Parisienne-Regular.ufo
<glyph name="dollar" format="2">
  <advance width="843"/>
  <unicode hex="0024"/>
  <outline>
    <contour>
      <point x="-34" y="-198" type="line"/>
      <point x="124" y="131" type="line"/>
      <point x="69" y="157"/>
      <point x="-13" y="248"/>
      <point x="-40" y="310" type="qcurve"/>
      <point x="10" y="333" type="line"/>
      <point x="38" y="277"/>
      <point x="102" y="199"/>
      <point x="146" y="177" type="qcurve"/>
      <point x="446" y="802" type="line"/>
      <point x="435" y="852"/>
      <point x="422" y="946"/>
      <point x="422" y="989" type="qcurve" smooth="yes"/>
      <point x="422" y="1096"/>
      <point x="474" y="1249"/>
      <point x="560" y="1348"/>
      <point x="673" y="1397"/>
      <point x="733" y="1402" type="qcurve"/>
      <point x="863" y="1673" type="line"/>
      <point x="905" y="1655" type="line"/>
      <point x="784" y="1402" type="line"/>
      <point x="822" y="1399"/>
      <point x="855" y="1387" type="qcurve"/>
      <point x="993" y="1673" type="line"/>
      <point x="1035" y="1655" type="line"/>
      <point x="897" y="1368" type="line"/>
      <point x="965" y="1331"/>
      <point x="1003" y="1275" type="qcurve"/>
      <point x="959" y="1241" type="line"/>
      <point x="947" y="1263"/>
      <point x="903" y="1304"/>
      <point x="875" y="1321" type="qcurve"/>
      <point x="584" y="712" type="line"/>
      <point x="598" y="651"/>
      <point x="618" y="542"/>
      <point x="618" y="504" type="qcurve" smooth="yes"/>
      <point x="618" y="409"/>
      <point x="568" y="263"/>
      <point x="481" y="162"/>
      <point x="361" y="106"/>
      <point x="291" y="102" type="qcurve"/>
      <point x="139" y="-217" type="line"/>
      <point x="96" y="-198" type="line"/>
      <point x="240" y="102" type="line"/>
      <point x="199" y="105"/>
      <point x="168" y="115" type="qcurve"/>
      <point x="9" y="-217" type="line"/>
    </contour>
    <contour>
      <point x="488" y="620" type="line"/>
      <point x="481" y="646"/>
      <point x="469" y="701"/>
      <point x="462" y="730" type="qcurve"/>
      <point x="189" y="160" type="line"/>
      <point x="222" y="151"/>
      <point x="263" y="151" type="qcurve"/>
    </contour>
    <contour>
      <point x="542" y="897" type="line"/>
      <point x="547" y="870"/>
      <point x="560" y="814"/>
      <point x="567" y="785" type="qcurve"/>
      <point x="833" y="1340" type="line"/>
      <point x="816" y="1346"/>
      <point x="781" y="1353"/>
      <point x="763" y="1353" type="qcurve" smooth="yes"/>
      <point x="760" y="1353" type="line"/>
    </contour>
    <contour>
      <point x="518" y="437" type="qcurve" smooth="yes"/>
      <point x="518" y="460"/>
      <point x="510" y="515"/>
      <point x="504" y="546" type="qcurve"/>
      <point x="317" y="155" type="line"/>
      <point x="366" y="164"/>
      <point x="441" y="216"/>
      <point x="492" y="292"/>
      <point x="518" y="386"/>
    </contour>
    <contour>
      <point x="522" y="1051" type="qcurve" smooth="yes"/>
      <point x="522" y="1017"/>
      <point x="528" y="975" type="qcurve"/>
      <point x="706" y="1347" type="line"/>
      <point x="671" y="1339"/>
      <point x="605" y="1300"/>
      <point x="554" y="1230"/>
      <point x="522" y="1125"/>
    </contour>
  </outline>
</glyph>
<glyph name="percent" format="2">
  <advance width="1470"/>
  <unicode hex="0025"/>
  <outline>
    <contour>
      <point x="664" y="1444" type="qcurve" smooth="yes"/>
      <point x="713" y="1444"/>
      <point x="789" y="1409"/>
      <point x="842" y="1350"/>
      <point x="870" y="1271"/>
      <point x="870" y="1227" type="qcurve" smooth="yes"/>
      <point x="870" y="1174"/>
      <point x="838" y="1063"/>
      <point x="781" y="958"/>
      <point x="703" y="866"/>
      <point x="612" y="796"/>
      <point x="511" y="756"/>
      <point x="460" y="756" type="qcurve" smooth="yes"/>
      <point x="409" y="756"/>
      <point x="325" y="789"/>
      <point x="265" y="849"/>
      <point x="232" y="935"/>
      <point x="232" y="989" type="qcurve" smooth="yes"/>
      <point x="232" y="1078"/>
      <point x="301" y="1243"/>
      <point x="419" y="1369"/>
      <point x="576" y="1444"/>
    </contour>
    <contour>
      <point x="678" y="1385" type="qcurve" smooth="yes"/>
      <point x="611" y="1385"/>
      <point x="481" y="1309"/>
      <point x="379" y="1189"/>
      <point x="316" y="1040"/>
      <point x="316" y="967" type="qcurve" smooth="yes"/>
      <point x="316" y="884"/>
      <point x="399" y="800"/>
      <point x="465" y="800" type="qcurve" smooth="yes"/>
      <point x="510" y="800"/>
      <point x="598" y="839"/>
      <point x="678" y="905"/>
      <point x="746" y="990"/>
      <point x="795" y="1084"/>
      <point x="823" y="1178"/>
      <point x="823" y="1220" type="qcurve" smooth="yes"/>
      <point x="823" y="1268"/>
      <point x="797" y="1331"/>
      <point x="756" y="1369"/>
      <point x="704" y="1385"/>
    </contour>
    <contour>
      <point x="200" y="-20" type="line"/>
      <point x="1314" y="1444" type="line"/>
      <point x="1398" y="1444" type="line"/>
      <point x="284" y="-20" type="line"/>
    </contour>
    <contour>
      <point x="1180" y="668" type="qcurve" smooth="yes"/>
      <point x="1229" y="668"/>
      <point x="1305" y="633"/>
      <point x="1358" y="574"/>
      <point x="1386" y="495"/>
      <point x="1386" y="451" type="qcurve" smooth="yes"/>
      <point x="1386" y="398"/>
      <point x="1354" y="287"/>
      <point x="1297" y="182"/>
      <point x="1219" y="90"/>
      <point x="1128" y="20"/>
      <point x="1027" y="-20"/>
      <point x="976" y="-20" type="qcurve" smooth="yes"/>
      <point x="925" y="-20"/>
      <point x="841" y="13"/>
      <point x="781" y="73"/>
      <point x="748" y="159"/>
      <point x="748" y="213" type="qcurve" smooth="yes"/>
      <point x="748" y="302"/>
      <point x="817" y="467"/>
      <point x="935" y="593"/>
      <point x="1092" y="668"/>
    </contour>
    <contour>
      <point x="1194" y="609" type="qcurve" smooth="yes"/>
      <point x="1127" y="609"/>
      <point x="997" y="533"/>
      <point x="895" y="413"/>
      <point x="832" y="264"/>
      <point x="832" y="191" type="qcurve" smooth="yes"/>
      <point x="832" y="108"/>
      <point x="915" y="24"/>
      <point x="981" y="24" type="qcurve" smooth="yes"/>
      <point x="1026" y="24"/>
      <point x="1114" y="63"/>
      <point x="1194" y="129"/>
      <point x="1262" y="214"/>
      <point x="1311" y="308"/>
      <point x="1339" y="402"/>
      <point x="1339" y="444" type="qcurve" smooth="yes"/>
      <point x="1339" y="492"/>
      <point x="1313" y="555"/>
      <point x="1272" y="593"/>
      <point x="1220" y="609"/>
    </contour>
  </outline>
</glyph>
<glyph name="ampersand" format="2">
  <advance width="1716"/>
  <unicode hex="0026"/>
  <outline>
    <contour>
      <point x="1190" y="300" type="line"/>
      <point x="1238" y="309"/>
      <point x="1287" y="309" type="qcurve" smooth="yes"/>
      <point x="1349" y="309"/>
      <point x="1467" y="273"/>
      <point x="1560" y="206"/>
      <point x="1616" y="108"/>
      <point x="1616" y="46" type="qcurve" smooth="yes"/>
      <point x="1616" y="-9"/>
      <point x="1567" y="-99"/>
      <point x="1481" y="-164"/>
      <point x="1363" y="-199"/>
      <point x="1294" y="-199" type="qcurve" smooth="yes"/>
      <point x="1214" y="-199"/>
      <point x="1067" y="-164"/>
      <point x="934" y="-102"/>
      <point x="813" y="-15"/>
      <point x="761" y="38" type="qcurve"/>
      <point x="688" y="4"/>
      <point x="527" y="-35"/>
      <point x="440" y="-35" type="qcurve" smooth="yes"/>
      <point x="333" y="-35"/>
      <point x="181" y="10"/>
      <point x="85" y="87"/>
      <point x="40" y="189"/>
      <point x="40" y="247" type="qcurve" smooth="yes"/>
      <point x="40" y="322"/>
      <point x="109" y="439"/>
      <point x="225" y="530"/>
      <point x="377" y="602"/>
      <point x="460" y="633" type="qcurve"/>
      <point x="454" y="679"/>
      <point x="454" y="724" type="qcurve" smooth="yes"/>
      <point x="454" y="827"/>
      <point x="530" y="995"/>
      <point x="653" y="1113"/>
      <point x="806" y="1178"/>
      <point x="883" y="1178" type="qcurve" smooth="yes"/>
      <point x="932" y="1178"/>
      <point x="1012" y="1150"/>
      <point x="1068" y="1101"/>
      <point x="1099" y="1035"/>
      <point x="1099" y="998" type="qcurve" smooth="yes"/>
      <point x="1099" y="946"/>
      <point x="1056" y="863"/>
      <point x="981" y="795"/>
      <point x="880" y="739"/>
      <point x="763" y="691"/>
      <point x="637" y="646"/>
      <point x="574" y="623" type="qcurve"/>
      <point x="586" y="567"/>
      <point x="629" y="441"/>
      <point x="689" y="312"/>
      <point x="766" y="184"/>
      <point x="811" y="126" type="qcurve"/>
      <point x="868" y="160"/>
      <point x="963" y="246"/>
      <point x="1032" y="343"/>
      <point x="1071" y="447"/>
      <point x="1071" y="500" type="qcurve" smooth="yes"/>
      <point x="1071" y="540"/>
      <point x="1057" y="588"/>
      <point x="1056" y="595" type="qcurve"/>
      <point x="1107" y="609" type="line"/>
      <point x="1111" y="598"/>
      <point x="1124" y="540"/>
      <point x="1124" y="499" type="qcurve" smooth="yes"/>
      <point x="1124" y="444"/>
      <point x="1084" y="330"/>
      <point x="1011" y="222"/>
      <point x="908" y="124"/>
      <point x="845" y="84" type="qcurve"/>
      <point x="889" y="32"/>
      <point x="988" y="-56"/>
      <point x="1096" y="-120"/>
      <point x="1211" y="-156"/>
      <point x="1272" y="-156" type="qcurve" smooth="yes"/>
      <point x="1322" y="-156"/>
      <point x="1414" y="-130"/>
      <point x="1484" y="-77"/>
      <point x="1526" y="6"/>
      <point x="1526" y="63" type="qcurve" smooth="yes"/>
      <point x="1526" y="114"/>
      <point x="1484" y="191"/>
      <point x="1414" y="244"/>
      <point x="1325" y="271"/>
      <point x="1277" y="271" type="qcurve" smooth="yes"/>
      <point x="1256" y="271"/>
      <point x="1217" y="267"/>
      <point x="1200" y="264" type="qcurve"/>
    </contour>
    <contour>
      <point x="468" y="582" type="qcurve"/>
      <point x="405" y="555"/>
      <point x="294" y="493"/>
      <point x="212" y="416"/>
      <point x="164" y="320"/>
      <point x="164" y="260" type="qcurve" smooth="yes"/>
      <point x="164" y="209"/>
      <point x="197" y="122"/>
      <point x="268" y="57"/>
      <point x="378" y="21"/>
      <point x="455" y="21" type="qcurve" smooth="yes"/>
      <point x="523" y="21"/>
      <point x="659" y="51"/>
      <point x="722" y="79" type="qcurve"/>
      <point x="672" y="134"/>
      <point x="590" y="258"/>
      <point x="526" y="387"/>
      <point x="480" y="518"/>
    </contour>
    <contour>
      <point x="1043" y="997" type="qcurve" smooth="yes"/>
      <point x="1043" y="1020"/>
      <point x="1024" y="1066"/>
      <point x="985" y="1102"/>
      <point x="924" y="1124"/>
      <point x="883" y="1124" type="qcurve" smooth="yes"/>
      <point x="827" y="1124"/>
      <point x="712" y="1081"/>
      <point x="619" y="988"/>
      <point x="560" y="841"/>
      <point x="560" y="738" type="qcurve" smooth="yes"/>
      <point x="560" y="722"/>
      <point x="562" y="688"/>
      <point x="565" y="670" type="qcurve"/>
      <point x="656" y="702"/>
      <point x="828" y="765"/>
      <point x="962" y="840"/>
      <point x="1043" y="934"/>
    </contour>
  </outline>
</glyph>
<glyph name="quotesingle" format="2">
  <advance width="500"/>
  <unicode hex="0027"/>
  <outline>
    <contour>
      <point x="414" y="1068" type="line"/>
      <point x="366" y="1068" type="line"/>
      <point x="512" y="1444" type="line"/>
      <point x="637" y="1444" type="line"/>
    </contour>
  </outline>
</glyph>
<glyph name="parenright" format="2">
  <advance width="702"/>
  <unicode hex="0029"/>
  <outline>
    <contour>
      <point x="340" y="1444" type="line"/>
      <point x="369" y="1390"/>
      <point x="442" y="1236"/>
      <point x="507" y="1050"/>
      <point x="552" y="838"/>
      <point x="552" y="726" type="qcurve" smooth="yes"/>
      <point x="552" y="526"/>
      <point x="422" y="164"/>
      <point x="186" y="-144"/>
      <point x="-144" y="-389"/>
      <point x="-344" y="-470" type="qcurve"/>
      <point x="-360" y="-428" type="line"/>
      <point x="-274" y="-393"/>
      <point x="-89" y="-272"/>
      <point x="89" y="-106"/>
      <point x="249" y="101"/>
      <point x="370" y="345"/>
      <point x="441" y="623"/>
      <point x="441" y="776" type="qcurve" smooth="yes"/>
      <point x="441" y="891"/>
      <point x="412" y="1080"/>
      <point x="368" y="1237"/>
      <point x="317" y="1366"/>
      <point x="295" y="1421" type="qcurve"/>
    </contour>
  </outline>
</glyph>
<glyph name="asterisk" format="2">
  <advance width="700"/>
  <unicode hex="002A"/>
  <outline>
    <contour>
      <point x="459" y="1123" type="line"/>
      <point x="308" y="896" type="line"/>
      <point x="230" y="960" type="line"/>
      <point x="413" y="1140" type="line"/>
      <point x="173" y="1218" type="line"/>
      <point x="213" y="1310" type="line"/>
      <point x="435" y="1183" type="line"/>
      <point x="409" y="1444" type="line"/>
      <point x="510" y="1444" type="line"/>
      <point x="482" y="1184" type="line"/>
      <point x="705" y="1310" type="line"/>
      <point x="745" y="1218" type="line"/>
      <point x="506" y="1140" type="line"/>
      <point x="689" y="960" type="line"/>
      <point x="611" y="896" type="line"/>
    </contour>
  </outline>
</glyph>
<glyph name="plus" format="2">
  <advance width="800"/>
  <unicode hex="002B"/>
  <outline>
    <contour>
      <point x="463" y="655" type="line"/>
      <point x="332" y="386" type="line"/>
      <point x="269" y="386" type="line"/>
      <point x="400" y="655" type="line"/>
      <point x="130" y="655" type="line"/>
      <point x="157" y="710" type="line"/>
      <point x="427" y="710" type="line"/>
      <point x="557" y="977" type="line"/>
      <point x="620" y="977" type="line"/>
      <point x="490" y="710" type="line"/>
      <point x="759" y="710" type="line"/>
      <point x="732" y="655" type="line"/>
    </contour>
  </outline>
</glyph>
<glyph name="period" format="2">
  <advance width="350"/>
  <unicode hex="002E"/>
  <outline>
    <contour>
      <point x="166" y="63" type="qcurve" smooth="yes"/>
      <point x="166" y="33"/>
      <point x="123" y="-10"/>
      <point x="92" y="-10" type="qcurve" smooth="yes"/>
      <point x="63" y="-10"/>
      <point x="20" y="33"/>
      <point x="20" y="63" type="qcurve" smooth="yes"/>
      <point x="20" y="92"/>
      <point x="63" y="135"/>
      <point x="92" y="135" type="qcurve" smooth="yes"/>
      <point x="123" y="135"/>
      <point x="166" y="92"/>
    </contour>
  </outline>
</glyph>
<glyph name="zero" format="2">
  <advance width="1410"/>
  <unicode hex="0030"/>
  <outline>
    <contour>
      <point x="1217" y="1372" type="line"/>
      <point x="1198" y="1377"/>
      <point x="1130" y="1393"/>
      <point x="1070" y="1393" type="qcurve" smooth="yes"/>
      <point x="992" y="1393"/>
      <point x="807" y="1323"/>
      <point x="619" y="1195"/>
      <point x="443" y="1016"/>
      <point x="307" y="799"/>
      <point x="225" y="550"/>
      <point x="225" y="417" type="qcurve" smooth="yes"/>
      <point x="225" y="324"/>
      <point x="276" y="180"/>
      <point x="367" y="82"/>
      <point x="494" y="32"/>
      <point x="570" y="32" type="qcurve" smooth="yes"/>
      <point x="646" y="32"/>
      <point x="797" y="82"/>
      <point x="942" y="171"/>
      <point x="1076" y="293"/>
      <point x="1194" y="436"/>
      <point x="1291" y="595"/>
      <point x="1360" y="756"/>
      <point x="1398" y="915"/>
      <point x="1398" y="988" type="qcurve" smooth="yes"/>
      <point x="1398" y="1065"/>
      <point x="1360" y="1172"/>
      <point x="1295" y="1240"/>
      <point x="1212" y="1270"/>
      <point x="1167" y="1270" type="qcurve" smooth="yes"/>
      <point x="1089" y="1270"/>
      <point x="936" y="1179"/>
      <point x="867" y="1089" type="qcurve"/>
      <point x="824" y="1122" type="line"/>
      <point x="901" y="1221"/>
      <point x="1074" y="1323"/>
      <point x="1165" y="1323" type="qcurve" smooth="yes"/>
      <point x="1226" y="1323"/>
      <point x="1331" y="1278"/>
      <point x="1407" y="1191"/>
      <point x="1450" y="1065"/>
      <point x="1450" y="983" type="qcurve" smooth="yes"/>
      <point x="1450" y="902"/>
      <point x="1409" y="729"/>
      <point x="1335" y="557"/>
      <point x="1230" y="391"/>
      <point x="1104" y="243"/>
      <point x="959" y="118"/>
      <point x="803" y="27"/>
      <point x="640" y="-24"/>
      <point x="559" y="-24" type="qcurve" smooth="yes"/>
      <point x="452" y="-24"/>
      <point x="285" y="52"/>
      <point x="170" y="181"/>
      <point x="110" y="350"/>
      <point x="110" y="444" type="qcurve" smooth="yes"/>
      <point x="110" y="572"/>
      <point x="180" y="820"/>
      <point x="307" y="1042"/>
      <point x="483" y="1230"/>
      <point x="695" y="1367"/>
      <point x="936" y="1444"/>
      <point x="1065" y="1444" type="qcurve" smooth="yes"/>
      <point x="1108" y="1444"/>
      <point x="1203" y="1425"/>
      <point x="1235" y="1412" type="qcurve"/>
    </contour>
  </outline>
</glyph>
<glyph name="one" format="2">
  <advance width="812"/>
  <unicode hex="0031"/>
  <outline>
    <contour>
      <point x="952" y="1388" type="line"/>
      <point x="255" y="-12" type="line"/>
      <point x="140" y="40" type="line"/>
      <point x="219" y="189"/>
      <point x="350" y="437"/>
      <point x="460" y="646"/>
      <point x="553" y="822"/>
      <point x="637" y="976"/>
      <point x="714" y="1112"/>
      <point x="753" y="1177" type="qcurve"/>
      <point x="685" y="1114"/>
      <point x="546" y="1002"/>
      <point x="416" y="907"/>
      <point x="301" y="831"/>
      <point x="216" y="778"/>
      <point x="166" y="749"/>
      <point x="165" y="749" type="qcurve" smooth="yes"/>
      <point x="140" y="795" type="line" smooth="yes"/>
      <point x="141" y="796"/>
      <point x="217" y="839"/>
      <point x="340" y="919"/>
      <point x="500" y="1031"/>
      <point x="670" y="1169"/>
      <point x="837" y="1329"/>
      <point x="908" y="1416" type="qcurve"/>
    </contour>
  </outline>
</glyph>
<glyph name="two" format="2">
  <advance width="1482"/>
  <unicode hex="0032"/>
  <outline>
    <contour>
      <point x="871" y="655" type="line"/>
      <point x="844" y="643"/>
      <point x="770" y="621"/>
      <point x="688" y="604"/>
      <point x="602" y="594"/>
      <point x="563" y="594" type="qcurve" smooth="yes"/>
      <point x="488" y="594"/>
      <point x="353" y="623"/>
      <point x="252" y="688"/>
      <point x="193" y="790"/>
      <point x="193" y="863" type="qcurve" smooth="yes"/>
      <point x="193" y="946"/>
      <point x="265" y="1104"/>
      <point x="389" y="1242"/>
      <point x="556" y="1357"/>
      <point x="745" y="1440"/>
      <point x="948" y="1486"/>
      <point x="1046" y="1486" type="qcurve" smooth="yes"/>
      <point x="1145" y="1486"/>
      <point x="1318" y="1445"/>
      <point x="1447" y="1352"/>
      <point x="1522" y="1204"/>
      <point x="1522" y="1098" type="qcurve" smooth="yes"/>
      <point x="1522" y="1006"/>
      <point x="1452" y="816"/>
      <point x="1330" y="630"/>
      <point x="1165" y="452"/>
      <point x="973" y="291"/>
      <point x="764" y="154"/>
      <point x="660" y="102" type="qcurve"/>
      <point x="745" y="65"/>
      <point x="913" y="9"/>
      <point x="999" y="9" type="qcurve" smooth="yes"/>
      <point x="1060" y="9"/>
      <point x="1120" y="25" type="qcurve"/>
      <point x="1134" y="-25" type="line"/>
      <point x="1065" y="-44"/>
      <point x="997" y="-44" type="qcurve" smooth="yes"/>
      <point x="942" y="-44"/>
      <point x="837" y="-24"/>
      <point x="737" y="8"/>
      <point x="640" y="49"/>
      <point x="593" y="70" type="qcurve"/>
      <point x="487" y="22"/>
      <point x="292" y="-29"/>
      <point x="210" y="-29" type="qcurve" smooth="yes"/>
      <point x="171" y="-29"/>
      <point x="104" y="-15"/>
      <point x="53" y="15"/>
      <point x="24" y="62"/>
      <point x="24" y="94" type="qcurve" smooth="yes"/>
      <point x="24" y="114"/>
      <point x="45" y="161"/>
      <point x="95" y="201"/>
      <point x="177" y="228"/>
      <point x="238" y="228" type="qcurve" smooth="yes"/>
      <point x="281" y="228"/>
      <point x="367" y="213"/>
      <point x="451" y="189"/>
      <point x="533" y="157"/>
      <point x="574" y="140" type="qcurve"/>
      <point x="671" y="190"/>
      <point x="872" y="326"/>
      <point x="1061" y="486"/>
      <point x="1228" y="665"/>
      <point x="1352" y="851"/>
      <point x="1424" y="1040"/>
      <point x="1424" y="1130" type="qcurve" smooth="yes"/>
      <point x="1424" y="1217"/>
      <point x="1362" y="1333"/>
      <point x="1256" y="1403"/>
      <point x="1115" y="1433"/>
      <point x="1036" y="1433" type="qcurve" smooth="yes"/>
      <point x="948" y="1433"/>
      <point x="772" y="1385"/>
      <point x="610" y="1303"/>
      <point x="470" y="1193"/>
      <point x="367" y="1067"/>
      <point x="308" y="933"/>
      <point x="308" y="869" type="qcurve" smooth="yes"/>
      <point x="308" y="808"/>
      <point x="355" y="724"/>
      <point x="432" y="672"/>
      <point x="527" y="649"/>
      <point x="575" y="649" type="qcurve" smooth="yes"/>
      <point x="630" y="649"/>
      <point x="715" y="658"/>
      <point x="781" y="672"/>
      <point x="833" y="690"/>
      <point x="856" y="698" type="qcurve"/>
    </contour>
    <contour>
      <point x="206" y="23" type="qcurve" smooth="yes"/>
      <point x="267" y="23"/>
      <point x="421" y="67"/>
      <point x="509" y="108" type="qcurve"/>
      <point x="440" y="137"/>
      <point x="308" y="178"/>
      <point x="241" y="178" type="qcurve" smooth="yes"/>
      <point x="197" y="178"/>
      <point x="137" y="162"/>
      <point x="99" y="137"/>
      <point x="83" y="107"/>
      <point x="83" y="94" type="qcurve" smooth="yes"/>
      <point x="83" y="65"/>
      <point x="143" y="23"/>
    </contour>
  </outline>
</glyph>
<glyph name="three" format="2">
  <advance width="1261"/>
  <unicode hex="0033"/>
  <outline>
    <contour>
      <point x="1415" y="1400" type="line"/>
      <point x="1367" y="1349"/>
      <point x="1245" y="1208"/>
      <point x="1107" y="1055"/>
      <point x="958" y="902"/>
      <point x="883" y="838" type="qcurve"/>
      <point x="940" y="815"/>
      <point x="1041" y="744"/>
      <point x="1116" y="645"/>
      <point x="1159" y="521"/>
      <point x="1159" y="446" type="qcurve" smooth="yes"/>
      <point x="1159" y="349"/>
      <point x="1102" y="176"/>
      <point x="1001" y="29"/>
      <point x="862" y="-88"/>
      <point x="696" y="-170"/>
      <point x="510" y="-214"/>
      <point x="413" y="-214" type="qcurve" smooth="yes"/>
      <point x="318" y="-214"/>
      <point x="149" y="-165"/>
      <point x="23" y="-71"/>
      <point x="-50" y="67"/>
      <point x="-50" y="156" type="qcurve" smooth="yes"/>
      <point x="-50" y="233"/>
      <point x="22" y="377"/>
      <point x="82" y="434" type="qcurve"/>
      <point x="119" y="396" type="line"/>
      <point x="68" y="347"/>
      <point x="8" y="223"/>
      <point x="8" y="157" type="qcurve" smooth="yes"/>
      <point x="8" y="86"/>
      <point x="61" y="-23"/>
      <point x="155" y="-97"/>
      <point x="287" y="-135"/>
      <point x="367" y="-135" type="qcurve" smooth="yes"/>
      <point x="456" y="-135"/>
      <point x="627" y="-92"/>
      <point x="779" y="-13"/>
      <point x="907" y="98"/>
      <point x="999" y="235"/>
      <point x="1051" y="394"/>
      <point x="1051" y="481" type="qcurve" smooth="yes"/>
      <point x="1051" y="539"/>
      <point x="1020" y="639"/>
      <point x="964" y="721"/>
      <point x="886" y="782"/>
      <point x="839" y="801" type="qcurve"/>
      <point x="762" y="741"/>
      <point x="616" y="668"/>
      <point x="550" y="668" type="qcurve" smooth="yes"/>
      <point x="525" y="668"/>
      <point x="491" y="683"/>
      <point x="469" y="706"/>
      <point x="459" y="733"/>
      <point x="459" y="745" type="qcurve" smooth="yes"/>
      <point x="459" y="768"/>
      <point x="485" y="815"/>
      <point x="540" y="852"/>
      <point x="627" y="875"/>
      <point x="688" y="875" type="qcurve" smooth="yes"/>
      <point x="753" y="875"/>
      <point x="821" y="858" type="qcurve"/>
      <point x="882" y="909"/>
      <point x="1009" y="1033"/>
      <point x="1134" y="1165"/>
      <point x="1253" y="1297"/>
      <point x="1307" y="1356" type="qcurve"/>
      <point x="1218" y="1329"/>
      <point x="1032" y="1308"/>
      <point x="941" y="1308" type="qcurve" smooth="yes"/>
      <point x="839" y="1308"/>
      <point x="655" y="1326"/>
      <point x="512" y="1348"/>
      <point x="424" y="1367"/>
      <point x="418" y="1369" type="qcurve"/>
      <point x="432" y="1425" type="line" smooth="yes"/>
      <point x="433" y="1425"/>
      <point x="518" y="1405"/>
      <point x="658" y="1381"/>
      <point x="841" y="1362"/>
      <point x="942" y="1362" type="qcurve" smooth="yes"/>
      <point x="1055" y="1362"/>
      <point x="1283" y="1396"/>
      <point x="1384" y="1441" type="qcurve"/>
    </contour>
    <contour>
      <point x="558" y="719" type="qcurve" smooth="yes"/>
      <point x="603" y="719"/>
      <point x="713" y="773"/>
      <point x="774" y="820" type="qcurve"/>
      <point x="733" y="829"/>
      <point x="690" y="829" type="qcurve" smooth="yes"/>
      <point x="650" y="829"/>
      <point x="585" y="816"/>
      <point x="538" y="794"/>
      <point x="513" y="766"/>
      <point x="513" y="751" type="qcurve" smooth="yes"/>
      <point x="513" y="741"/>
      <point x="534" y="719"/>
    </contour>
  </outline>
</glyph>
<glyph name="four" format="2">
  <advance width="1344"/>
  <unicode hex="0034"/>
  <outline>
    <contour>
      <point x="763" y="1461" type="line"/>
      <point x="762" y="1459"/>
      <point x="715" y="1369"/>
      <point x="631" y="1220"/>
      <point x="515" y="1025"/>
      <point x="377" y="813"/>
      <point x="220" y="597"/>
      <point x="137" y="501" type="qcurve"/>
      <point x="244" y="539"/>
      <point x="436" y="569"/>
      <point x="525" y="569" type="qcurve" smooth="yes"/>
      <point x="578" y="569"/>
      <point x="681" y="560"/>
      <point x="780" y="546"/>
      <point x="872" y="532"/>
      <point x="915" y="528" type="qcurve"/>
      <point x="1224" y="1272" type="line"/>
      <point x="1283" y="1254" type="line"/>
      <point x="1018" y="522" type="line"/>
      <point x="1082" y="523"/>
      <point x="1184" y="545"/>
      <point x="1256" y="570"/>
      <point x="1295" y="592"/>
      <point x="1296" y="592" type="qcurve" smooth="yes"/>
      <point x="1324" y="548" type="line" smooth="yes"/>
      <point x="1322" y="546"/>
      <point x="1276" y="522"/>
      <point x="1193" y="493"/>
      <point x="1074" y="470"/>
      <point x="999" y="470" type="qcurve"/>
      <point x="797" y="-89" type="line"/>
      <point x="672" y="-60" type="line"/>
      <point x="894" y="476" type="line"/>
      <point x="850" y="481"/>
      <point x="762" y="495"/>
      <point x="672" y="507"/>
      <point x="577" y="516"/>
      <point x="526" y="516" type="qcurve" smooth="yes"/>
      <point x="419" y="516"/>
      <point x="183" y="470"/>
      <point x="50" y="407" type="qcurve"/>
      <point x="20" y="449" type="line"/>
      <point x="82" y="532"/>
      <point x="174" y="677" type="qcurve" smooth="yes"/>
      <point x="213" y="739"/>
      <point x="312" y="902"/>
      <point x="432" y="1109"/>
      <point x="573" y="1362"/>
      <point x="655" y="1514" type="qcurve"/>
      <point x="763" y="1461" type="line"/>
    </contour>
  </outline>
</glyph>
<glyph name="seven" format="2">
  <advance width="1070"/>
  <unicode hex="0037"/>
  <outline>
    <contour>
      <point x="1400" y="1391" type="line"/>
      <point x="1187" y="1209"/>
      <point x="838" y="865"/>
      <point x="555" y="538"/>
      <point x="330" y="226"/>
      <point x="149" y="-70"/>
      <point x="4" y="-353"/>
      <point x="-56" y="-489" type="qcurve"/>
      <point x="-200" y="-452" type="line"/>
      <point x="-125" y="-271"/>
      <point x="81" y="77"/>
      <point x="317" y="399"/>
      <point x="568" y="689"/>
      <point x="687" y="813" type="qcurve" smooth="yes"/>
      <point x="967" y="1103"/>
      <point x="1274" y="1352" type="qcurve"/>
      <point x="1151" y="1321"/>
      <point x="915" y="1301"/>
      <point x="704" y="1308"/>
      <point x="524" y="1333"/>
      <point x="391" y="1361"/>
      <point x="311" y="1385"/>
      <point x="306" y="1387" type="qcurve"/>
      <point x="323" y="1436" type="line"/>
      <point x="324" y="1435"/>
      <point x="410" y="1410"/>
      <point x="557" y="1381"/>
      <point x="757" y="1356"/>
      <point x="990" y="1357"/>
      <point x="1245" y="1391"/>
      <point x="1374" y="1436" type="qcurve"/>
    </contour>
  </outline>
</glyph>
<glyph name="eight" format="2">
  <advance width="1474"/>
  <unicode hex="0038"/>
  <outline>
    <contour>
      <point x="1185" y="786" type="line"/>
      <point x="1289" y="834"/>
      <point x="1436" y="956"/>
      <point x="1529" y="1099"/>
      <point x="1572" y="1258"/>
      <point x="1572" y="1343" type="qcurve" smooth="yes"/>
      <point x="1572" y="1424"/>
      <point x="1521" y="1549"/>
      <point x="1428" y="1634"/>
      <point x="1299" y="1678"/>
      <point x="1221" y="1678" type="qcurve" smooth="yes"/>
      <point x="1074" y="1678"/>
      <point x="865" y="1545"/>
      <point x="733" y="1304"/>
      <point x="675" y="967"/>
      <point x="679" y="763" type="qcurve"/>
      <point x="796" y="814"/>
      <point x="1012" y="920"/>
      <point x="1191" y="1047"/>
      <point x="1324" y="1203"/>
      <point x="1358" y="1304" type="qcurve"/>
      <point x="1404" y="1292" type="line"/>
      <point x="1367" y="1167"/>
      <point x="1225" y="976"/>
      <point x="1035" y="823"/>
      <point x="804" y="697"/>
      <point x="677" y="636" type="qcurve"/>
      <point x="668" y="436"/>
      <point x="580" y="105"/>
      <point x="439" y="-132"/>
      <point x="253" y="-263"/>
      <point x="147" y="-263" type="qcurve" smooth="yes"/>
      <point x="86" y="-263"/>
      <point x="-13" y="-222"/>
      <point x="-82" y="-149"/>
      <point x="-120" y="-48"/>
      <point x="-120" y="13" type="qcurve" smooth="yes"/>
      <point x="-120" y="142"/>
      <point x="-3" y="352"/>
      <point x="200" y="528"/>
      <point x="471" y="674"/>
      <point x="625" y="740" type="qcurve"/>
      <point x="622" y="988"/>
      <point x="699" y="1360"/>
      <point x="853" y="1607"/>
      <point x="1079" y="1731"/>
      <point x="1224" y="1731" type="qcurve" smooth="yes"/>
      <point x="1316" y="1731"/>
      <point x="1480" y="1673"/>
      <point x="1603" y="1569"/>
      <point x="1674" y="1423"/>
      <point x="1674" y="1336" type="qcurve" smooth="yes"/>
      <point x="1674" y="1232"/>
      <point x="1596" y="1048"/>
      <point x="1464" y="896"/>
      <point x="1292" y="780"/>
      <point x="1198" y="746" type="qcurve"/>
    </contour>
    <contour>
      <point x="148" y="-210" type="qcurve" smooth="yes"/>
      <point x="245" y="-210"/>
      <point x="410" y="-86"/>
      <point x="534" y="133"/>
      <point x="611" y="433"/>
      <point x="622" y="609" type="qcurve"/>
      <point x="470" y="537"/>
      <point x="257" y="402"/>
      <point x="114" y="278"/>
      <point x="31" y="168"/>
      <point x="-10" y="72"/>
      <point x="-21" y="-6"/>
      <point x="-21" y="-35" type="qcurve" smooth="yes"/>
      <point x="-21" y="-63"/>
      <point x="-4" y="-124"/>
      <point x="35" y="-176"/>
      <point x="100" y="-210"/>
    </contour>
  </outline>
</glyph>
<glyph name="nine" format="2">
  <advance width="1406"/>
  <unicode hex="0039"/>
  <outline>
    <contour>
      <point x="16" y="138" type="line"/>
      <point x="14" y="135"/>
      <point x="1" y="75"/>
      <point x="1" y="32" type="qcurve" smooth="yes"/>
      <point x="1" y="-28"/>
      <point x="42" y="-127"/>
      <point x="116" y="-198"/>
      <point x="218" y="-237"/>
      <point x="278" y="-237" type="qcurve" smooth="yes"/>
      <point x="360" y="-237"/>
      <point x="537" y="-178"/>
      <point x="714" y="-72"/>
      <point x="886" y="76"/>
      <point x="1041" y="254"/>
      <point x="1172" y="457"/>
      <point x="1267" y="672"/>
      <point x="1321" y="894"/>
      <point x="1321" y="1003" type="qcurve" smooth="yes"/>
      <point x="1321" y="1102"/>
      <point x="1282" y="1261"/>
      <point x="1202" y="1374"/>
      <point x="1077" y="1434"/>
      <point x="992" y="1434" type="qcurve" smooth="yes"/>
      <point x="888" y="1434"/>
      <point x="694" y="1349"/>
      <point x="524" y="1208"/>
      <point x="383" y="1027"/>
      <point x="281" y="834"/>
      <point x="225" y="644"/>
      <point x="225" y="565" type="qcurve" smooth="yes"/>
      <point x="225" y="491"/>
      <point x="270" y="373"/>
      <point x="354" y="290"/>
      <point x="474" y="245"/>
      <point x="549" y="245" type="qcurve" smooth="yes"/>
      <point x="630" y="245"/>
      <point x="803" y="297"/>
      <point x="971" y="407"/>
      <point x="1123" y="579"/>
      <point x="1182" y="699" type="qcurve"/>
      <point x="1229" y="676" type="line"/>
      <point x="1166" y="548"/>
      <point x="1001" y="365"/>
      <point x="818" y="247"/>
      <point x="628" y="192"/>
      <point x="541" y="192" type="qcurve" smooth="yes"/>
      <point x="451" y="192"/>
      <point x="300" y="252"/>
      <point x="191" y="365"/>
      <point x="130" y="530"/>
      <point x="130" y="635" type="qcurve" smooth="yes"/>
      <point x="130" y="723"/>
      <point x="189" y="919"/>
      <point x="295" y="1111"/>
      <point x="445" y="1286"/>
      <point x="628" y="1419"/>
      <point x="838" y="1498"/>
      <point x="952" y="1498" type="qcurve" smooth="yes"/>
      <point x="1056" y="1498"/>
      <point x="1227" y="1428"/>
      <point x="1349" y="1292"/>
      <point x="1416" y="1089"/>
      <point x="1416" y="956" type="qcurve" smooth="yes"/>
      <point x="1416" y="802"/>
      <point x="1325" y="497"/>
      <point x="1168" y="219"/>
      <point x="957" y="-21"/>
      <point x="715" y="-197"/>
      <point x="454" y="-297"/>
      <point x="326" y="-297" type="qcurve" smooth="yes"/>
      <point x="225" y="-297"/>
      <point x="83" y="-241"/>
      <point x="-8" y="-149"/>
      <point x="-50" y="-29"/>
      <point x="-50" y="35" type="qcurve" smooth="yes"/>
      <point x="-50" y="64"/>
      <point x="-42" y="124"/>
      <point x="-34" y="154" type="qcurve"/>
    </contour>
  </outline>
</glyph>
<glyph name="colon" format="2">
  <advance width="440"/>
  <unicode hex="003A"/>
  <outline>
    <contour>
      <point x="186" y="63" type="qcurve" smooth="yes"/>
      <point x="186" y="33"/>
      <point x="143" y="-10"/>
      <point x="112" y="-10" type="qcurve" smooth="yes"/>
      <point x="83" y="-10"/>
      <point x="40" y="33"/>
      <point x="40" y="63" type="qcurve" smooth="yes"/>
      <point x="40" y="92"/>
      <point x="83" y="135"/>
      <point x="112" y="135" type="qcurve" smooth="yes"/>
      <point x="143" y="135"/>
      <point x="186" y="92"/>
    </contour>
    <contour>
      <point x="440" y="589" type="qcurve" smooth="yes"/>
      <point x="440" y="559"/>
      <point x="397" y="516"/>
      <point x="366" y="516" type="qcurve" smooth="yes"/>
      <point x="337" y="516"/>
      <point x="294" y="559"/>
      <point x="294" y="589" type="qcurve" smooth="yes"/>
      <point x="294" y="618"/>
      <point x="337" y="661"/>
      <point x="366" y="661" type="qcurve" smooth="yes"/>
      <point x="397" y="661"/>
      <point x="440" y="618"/>
    </contour>
  </outline>
</glyph>
<glyph name="semicolon" format="2">
  <advance width="440"/>
  <unicode hex="003B"/>
  <outline>
    <contour>
      <point x="440" y="589" type="qcurve" smooth="yes"/>
      <point x="440" y="559"/>
      <point x="397" y="516"/>
      <point x="366" y="516" type="qcurve" smooth="yes"/>
      <point x="337" y="516"/>
      <point x="294" y="559"/>
      <point x="294" y="589" type="qcurve" smooth="yes"/>
      <point x="294" y="618"/>
      <point x="337" y="661"/>
      <point x="366" y="661" type="qcurve" smooth="yes"/>
      <point x="397" y="661"/>
      <point x="440" y="618"/>
    </contour>
    <contour>
      <point x="-24" y="-109" type="line"/>
      <point x="16" y="-89"/>
      <point x="86" y="-33"/>
      <point x="100" y="-7" type="qcurve"/>
      <point x="68" y="0"/>
      <point x="40" y="41"/>
      <point x="40" y="64" type="qcurve" smooth="yes"/>
      <point x="40" y="95"/>
      <point x="84" y="136"/>
      <point x="113" y="136" type="qcurve" smooth="yes"/>
      <point x="144" y="136"/>
      <point x="185" y="92"/>
      <point x="185" y="63" type="qcurve" smooth="yes"/>
      <point x="185" y="31"/>
      <point x="152" y="-30"/>
      <point x="98" y="-84"/>
      <point x="30" y="-127"/>
      <point x="-5" y="-141" type="qcurve"/>
    </contour>
  </outline>
</glyph>
<glyph name="less" format="2">
  <advance width="800"/>
  <unicode hex="003C"/>
  <outline>
    <contour>
      <point x="225" y="684" type="line"/>
      <point x="728" y="1074" type="line"/>
      <point x="761" y="1032" type="line"/>
      <point x="299" y="675" type="line"/>
      <point x="516" y="326" type="line"/>
      <point x="467" y="294" type="line"/>
    </contour>
  </outline>
</glyph>
<glyph name="at" format="2">
  <advance width="1673"/>
  <unicode hex="0040"/>
  <outline>
    <contour>
      <point x="976" y="377" type="qcurve"/>
      <point x="932" y="326"/>
      <point x="850" y="259"/>
      <point x="772" y="221"/>
      <point x="696" y="206"/>
      <point x="660" y="206" type="qcurve" smooth="yes"/>
      <point x="622" y="206"/>
      <point x="555" y="231"/>
      <point x="504" y="279"/>
      <point x="475" y="349"/>
      <point x="475" y="395" type="qcurve" smooth="yes"/>
      <point x="475" y="464"/>
      <point x="527" y="592"/>
      <point x="613" y="705"/>
      <point x="723" y="799"/>
      <point x="840" y="866"/>
      <point x="953" y="903"/>
      <point x="1000" y="903" type="qcurve" smooth="yes"/>
      <point x="1092" y="903"/>
      <point x="1186" y="842"/>
      <point x="1196" y="779" type="qcurve"/>
      <point x="1216" y="804"/>
      <point x="1260" y="854"/>
      <point x="1283" y="880" type="qcurve"/>
      <point x="1315" y="866" type="line"/>
      <point x="1302" y="840"/>
      <point x="1253" y="755"/>
      <point x="1196" y="653"/>
      <point x="1137" y="541"/>
      <point x="1089" y="438"/>
      <point x="1058" y="350"/>
      <point x="1058" y="322" type="qcurve" smooth="yes"/>
      <point x="1058" y="295"/>
      <point x="1071" y="261"/>
      <point x="1092" y="242"/>
      <point x="1119" y="234"/>
      <point x="1133" y="234" type="qcurve" smooth="yes"/>
      <point x="1187" y="234"/>
      <point x="1285" y="295"/>
      <point x="1369" y="394"/>
      <point x="1437" y="523"/>
      <point x="1485" y="658"/>
      <point x="1511" y="789"/>
      <point x="1511" y="842" type="qcurve" smooth="yes"/>
      <point x="1511" y="945"/>
      <point x="1450" y="1111"/>
      <point x="1341" y="1227"/>
      <point x="1191" y="1289"/>
      <point x="1102" y="1289" type="qcurve" smooth="yes"/>
      <point x="993" y="1289"/>
      <point x="771" y="1214"/>
      <point x="567" y="1079"/>
      <point x="390" y="892"/>
      <point x="259" y="670"/>
      <point x="184" y="421"/>
      <point x="184" y="291" type="qcurve" smooth="yes"/>
      <point x="184" y="200"/>
      <point x="241" y="46"/>
      <point x="348" y="-65"/>
      <point x="502" y="-128"/>
      <point x="600" y="-128" type="qcurve" smooth="yes"/>
      <point x="627" y="-128"/>
      <point x="698" y="-117"/>
      <point x="772" y="-100"/>
      <point x="842" y="-79"/>
      <point x="868" y="-68" type="qcurve"/>
      <point x="895" y="-113" type="line"/>
      <point x="823" y="-145"/>
      <point x="675" y="-180"/>
      <point x="600" y="-180" type="qcurve" smooth="yes"/>
      <point x="493" y="-180"/>
      <point x="303" y="-109"/>
      <point x="162" y="29"/>
      <point x="80" y="230"/>
      <point x="80" y="360" type="qcurve" smooth="yes"/>
      <point x="80" y="505"/>
      <point x="160" y="765"/>
      <point x="301" y="985"/>
      <point x="491" y="1161"/>
      <point x="710" y="1285"/>
      <point x="948" y="1351"/>
      <point x="1066" y="1351" type="qcurve" smooth="yes"/>
      <point x="1172" y="1351"/>
      <point x="1370" y="1287"/>
      <point x="1522" y="1160"/>
      <point x="1613" y="971"/>
      <point x="1613" y="847" type="qcurve" smooth="yes"/>
      <point x="1613" y="782"/>
      <point x="1578" y="634"/>
      <point x="1515" y="488"/>
      <point x="1426" y="354"/>
      <point x="1317" y="251"/>
      <point x="1191" y="189"/>
      <point x="1122" y="189" type="qcurve" smooth="yes"/>
      <point x="1083" y="189"/>
      <point x="1026" y="211"/>
      <point x="988" y="249"/>
      <point x="969" y="299"/>
      <point x="969" y="328" type="qcurve" smooth="yes"/>
      <point x="969" y="330"/>
      <point x="971" y="343"/>
      <point x="973" y="358"/>
      <point x="975" y="373"/>
    </contour>
    <contour>
      <point x="1008" y="486" type="qcurve" smooth="yes"/>
      <point x="1021" y="507"/>
      <point x="1059" y="572"/>
      <point x="1101" y="641"/>
      <point x="1141" y="705"/>
      <point x="1156" y="727" type="qcurve"/>
      <point x="1156" y="736"/>
      <point x="1151" y="776"/>
      <point x="1129" y="817"/>
      <point x="1081" y="847"/>
      <point x="1038" y="847" type="qcurve" smooth="yes"/>
      <point x="991" y="847"/>
      <point x="888" y="808"/>
      <point x="788" y="740"/>
      <point x="697" y="649"/>
      <point x="627" y="545"/>
      <point x="586" y="433"/>
      <point x="586" y="378" type="qcurve" smooth="yes"/>
      <point x="586" y="321"/>
      <point x="638" y="259"/>
      <point x="686" y="259" type="qcurve" smooth="yes"/>
      <point x="741" y="259"/>
      <point x="831" y="300"/>
      <point x="908" y="365"/>
      <point x="975" y="446"/>
    </contour>
  </outline>
</glyph>
<glyph name="F" format="2">
  <advance width="1622"/>
  <unicode hex="0046"/>
  <outline>
    <contour>
      <point x="1665" y="1184" type="line"/>
      <point x="1664" y="1184"/>
      <point x="1592" y="1113"/>
      <point x="1472" y="968"/>
      <point x="1315" y="747"/>
      <point x="1229" y="597" type="qcurve" smooth="yes"/>
      <point x="1190" y="529" type="line"/>
      <point x="1223" y="537"/>
      <point x="1291" y="551"/>
      <point x="1326" y="557" type="qcurve" smooth="yes"/>
      <point x="1371" y="566" type="line"/>
      <point x="1403" y="624"/>
      <point x="1456" y="698"/>
      <point x="1501" y="741"/>
      <point x="1539" y="757"/>
      <point x="1554" y="757" type="qcurve" smooth="yes"/>
      <point x="1573" y="757"/>
      <point x="1609" y="731"/>
      <point x="1609" y="697" type="qcurve" smooth="yes"/>
      <point x="1609" y="670"/>
      <point x="1583" y="620"/>
      <point x="1535" y="576"/>
      <point x="1469" y="542"/>
      <point x="1429" y="532" type="qcurve"/>
      <point x="1410" y="493"/>
      <point x="1370" y="408"/>
      <point x="1326" y="322"/>
      <point x="1280" y="239"/>
      <point x="1255" y="202" type="qcurve"/>
      <point x="1184" y="269" type="line"/>
      <point x="1193" y="280"/>
      <point x="1230" y="328"/>
      <point x="1273" y="388"/>
      <point x="1315" y="455"/>
      <point x="1330" y="485" type="qcurve" smooth="yes"/>
      <point x="1344" y="515" type="line"/>
      <point x="1298" y="505"/>
      <point x="1205" y="484"/>
      <point x="1156" y="471" type="qcurve"/>
      <point x="1079" y="339"/>
      <point x="932" y="124"/>
      <point x="766" y="-29"/>
      <point x="568" y="-112"/>
      <point x="439" y="-112" type="qcurve" smooth="yes"/>
      <point x="355" y="-112"/>
      <point x="184" y="-65"/>
      <point x="47" y="25"/>
      <point x="-40" y="155"/>
      <point x="-40" y="238" type="qcurve" smooth="yes"/>
      <point x="-40" y="303"/>
      <point x="11" y="404"/>
      <point x="99" y="473"/>
      <point x="216" y="508"/>
      <point x="281" y="508" type="qcurve" smooth="yes"/>
      <point x="335" y="508"/>
      <point x="444" y="482"/>
      <point x="546" y="434"/>
      <point x="637" y="365"/>
      <point x="673" y="322" type="qcurve"/>
      <point x="635" y="293" type="line"/>
      <point x="605" y="323"/>
      <point x="531" y="370"/>
      <point x="447" y="403"/>
      <point x="359" y="420"/>
      <point x="316" y="420" type="qcurve" smooth="yes"/>
      <point x="269" y="420"/>
      <point x="179" y="396"/>
      <point x="109" y="343"/>
      <point x="65" y="260"/>
      <point x="65" y="200" type="qcurve" smooth="yes"/>
      <point x="65" y="146"/>
      <point x="119" y="52"/>
      <point x="212" y="-17"/>
      <point x="337" y="-57"/>
      <point x="408" y="-57" type="qcurve" smooth="yes"/>
      <point x="509" y="-57"/>
      <point x="671" y="18"/>
      <point x="808" y="148"/>
      <point x="929" y="323"/>
      <point x="989" y="422" type="qcurve"/>
      <point x="961" y="413"/>
      <point x="903" y="393"/>
      <point x="874" y="382" type="qcurve"/>
      <point x="855" y="431" type="line"/>
      <point x="901" y="446"/>
      <point x="985" y="472"/>
      <point x="1027" y="485" type="qcurve"/>
      <point x="1084" y="580"/>
      <point x="1207" y="779"/>
      <point x="1353" y="970"/>
      <point x="1528" y="1144"/>
      <point x="1636" y="1215" type="qcurve"/>
    </contour>
    <contour>
      <point x="990" y="640" type="line"/>
      <point x="898" y="598"/>
      <point x="716" y="560"/>
      <point x="636" y="560" type="qcurve" smooth="yes"/>
      <point x="543" y="560"/>
      <point x="389" y="610"/>
      <point x="277" y="700"/>
      <point x="215" y="826"/>
      <point x="215" y="902" type="qcurve" smooth="yes"/>
      <point x="215" y="997"/>
      <point x="280" y="1145"/>
      <point x="392" y="1258"/>
      <point x="544" y="1336"/>
      <point x="718" y="1386"/>
      <point x="906" y="1408"/>
      <point x="998" y="1408" type="qcurve" smooth="yes"/>
      <point x="1104" y="1408"/>
      <point x="1304" y="1382"/>
      <point x="1493" y="1351"/>
      <point x="1671" y="1325"/>
      <point x="1756" y="1325" type="qcurve" smooth="yes"/>
      <point x="1853" y="1325"/>
      <point x="2017" y="1355"/>
      <point x="2135" y="1392"/>
      <point x="2202" y="1423"/>
      <point x="2203" y="1423" type="qcurve" smooth="yes"/>
      <point x="2228" y="1377" type="line" smooth="yes"/>
      <point x="2225" y="1375"/>
      <point x="2153" y="1342"/>
      <point x="2030" y="1303"/>
      <point x="1860" y="1272"/>
      <point x="1758" y="1272" type="qcurve" smooth="yes"/>
      <point x="1663" y="1272"/>
      <point x="1487" y="1297"/>
      <point x="1308" y="1327"/>
      <point x="1116" y="1352"/>
      <point x="1005" y="1352" type="qcurve" smooth="yes"/>
      <point x="841" y="1352"/>
      <point x="590" y="1289"/>
      <point x="421" y="1172"/>
      <point x="335" y="1005"/>
      <point x="335" y="902" type="qcurve" smooth="yes"/>
      <point x="335" y="831"/>
      <point x="390" y="725"/>
      <point x="483" y="655"/>
      <point x="604" y="620"/>
      <point x="670" y="620" type="qcurve" smooth="yes"/>
      <point x="728" y="620"/>
      <point x="836" y="640"/>
      <point x="918" y="665"/>
      <point x="968" y="686"/>
      <point x="969" y="686" type="qcurve" smooth="yes"/>
    </contour>
    <contour>
      <point x="1544" y="705" type="qcurve" smooth="yes"/>
      <point x="1527" y="705"/>
      <point x="1484" y="642"/>
      <point x="1458" y="591" type="qcurve"/>
      <point x="1489" y="603"/>
      <point x="1527" y="629"/>
      <point x="1549" y="655"/>
      <point x="1557" y="681"/>
      <point x="1557" y="693" type="qcurve" smooth="yes"/>
      <point x="1557" y="700"/>
      <point x="1549" y="705"/>
    </contour>
  </outline>
</glyph>
<glyph name="H" format="2">
  <advance width="2205"/>
  <unicode hex="0048"/>
  <outline>
    <contour>
      <point x="1769" y="583" type="line"/>
      <point x="1783" y="581"/>
      <point x="1833" y="572"/>
      <point x="1892" y="550"/>
      <point x="1953" y="511"/>
      <point x="2003" y="445"/>
      <point x="2034" y="349"/>
      <point x="2034" y="282" type="qcurve" smooth="yes"/>
      <point x="2034" y="209"/>
      <point x="1980" y="69"/>
      <point x="1884" y="-40"/>
      <point x="1752" y="-107"/>
      <point x="1675" y="-107" type="qcurve" smooth="yes"/>
      <point x="1595" y="-107"/>
      <point x="1478" y="-58"/>
      <point x="1403" y="31"/>
      <point x="1367" y="156"/>
      <point x="1367" y="232" type="qcurve" smooth="yes"/>
      <point x="1367" y="313"/>
      <point x="1421" y="569"/>
      <point x="1494" y="735" type="qcurve"/>
      <point x="1379" y="688"/>
      <point x="1154" y="613"/>
      <point x="1042" y="580" type="qcurve"/>
      <point x="983" y="489"/>
      <point x="839" y="314"/>
      <point x="682" y="160"/>
      <point x="516" y="31"/>
      <point x="354" y="-63"/>
      <point x="201" y="-115"/>
      <point x="135" y="-115" type="qcurve" smooth="yes"/>
      <point x="76" y="-115"/>
      <point x="2" y="-81"/>
      <point x="-40" y="-32"/>
      <point x="-56" y="26"/>
      <point x="-56" y="50" type="qcurve" smooth="yes"/>
      <point x="-56" y="80"/>
      <point x="-27" y="153"/>
      <point x="33" y="229"/>
      <point x="125" y="302"/>
      <point x="187" y="334" type="qcurve" smooth="yes"/>
      <point x="283" y="383"/>
      <point x="473" y="461"/>
      <point x="660" y="526"/>
      <point x="844" y="582"/>
      <point x="936" y="609" type="qcurve"/>
      <point x="985" y="695"/>
      <point x="1068" y="872"/>
      <point x="1129" y="1040"/>
      <point x="1164" y="1193"/>
      <point x="1164" y="1256" type="qcurve" smooth="yes"/>
      <point x="1164" y="1304"/>
      <point x="1133" y="1384"/>
      <point x="1076" y="1441"/>
      <point x="994" y="1473"/>
      <point x="943" y="1473" type="qcurve" smooth="yes"/>
      <point x="849" y="1473"/>
      <point x="678" y="1428"/>
      <point x="530" y="1352"/>
      <point x="411" y="1250"/>
      <point x="326" y="1136"/>
      <point x="280" y="1017"/>
      <point x="280" y="961" type="qcurve" smooth="yes"/>
      <point x="280" y="905"/>
      <point x="327" y="832"/>
      <point x="399" y="789"/>
      <point x="482" y="772"/>
      <point x="518" y="772" type="qcurve" smooth="yes"/>
      <point x="559" y="772"/>
      <point x="634" y="786"/>
      <point x="691" y="802"/>
      <point x="726" y="817"/>
      <point x="726" y="817" type="qcurve"/>
      <point x="748" y="769" type="line"/>
      <point x="743" y="766"/>
      <point x="696" y="749"/>
      <point x="620" y="729"/>
      <point x="519" y="714"/>
      <point x="460" y="714" type="qcurve" smooth="yes"/>
      <point x="399" y="714"/>
      <point x="290" y="742"/>
      <point x="209" y="802"/>
      <point x="162" y="897"/>
      <point x="162" y="965" type="qcurve" smooth="yes"/>
      <point x="162" y="1042"/>
      <point x="233" y="1184"/>
      <point x="353" y="1309"/>
      <point x="510" y="1411"/>
      <point x="683" y="1485"/>
      <point x="860" y="1525"/>
      <point x="940" y="1525" type="qcurve" smooth="yes"/>
      <point x="1013" y="1525"/>
      <point x="1134" y="1485"/>
      <point x="1222" y="1406"/>
      <point x="1271" y="1288"/>
      <point x="1271" y="1210" type="qcurve" smooth="yes"/>
      <point x="1271" y="1144"/>
      <point x="1239" y="994"/>
      <point x="1187" y="846"/>
      <point x="1121" y="708"/>
      <point x="1086" y="653" type="qcurve"/>
      <point x="1198" y="686"/>
      <point x="1416" y="759"/>
      <point x="1527" y="807" type="qcurve"/>
      <point x="1638" y="1023"/>
      <point x="1838" y="1302"/>
      <point x="2009" y="1463"/>
      <point x="2149" y="1525"/>
      <point x="2200" y="1525" type="qcurve" smooth="yes"/>
      <point x="2259" y="1525"/>
      <point x="2325" y="1461"/>
      <point x="2325" y="1404" type="qcurve" smooth="yes"/>
      <point x="2325" y="1339"/>
      <point x="2228" y="1192"/>
      <point x="2145" y="1123" type="qcurve" smooth="yes"/>
      <point x="2021" y="1020"/>
      <point x="1777" y="866"/>
      <point x="1653" y="806" type="qcurve"/>
      <point x="1596" y="685"/>
      <point x="1522" y="491"/>
      <point x="1479" y="337"/>
      <point x="1461" y="217"/>
      <point x="1461" y="171" type="qcurve" smooth="yes"/>
      <point x="1461" y="113"/>
      <point x="1493" y="28"/>
      <point x="1550" y="-28"/>
      <point x="1628" y="-55"/>
      <point x="1675" y="-55" type="qcurve" smooth="yes"/>
      <point x="1737" y="-55"/>
      <point x="1848" y="-2"/>
      <point x="1932" y="90"/>
      <point x="1981" y="213"/>
      <point x="1981" y="283" type="qcurve" smooth="yes"/>
      <point x="1981" y="343"/>
      <point x="1952" y="427"/>
      <point x="1907" y="482"/>
      <point x="1853" y="513"/>
      <point x="1806" y="528"/>
      <point x="1771" y="531"/>
      <point x="1767" y="531" type="qcurve"/>
    </contour>
    <contour>
      <point x="180" y="-44" type="qcurve" smooth="yes"/>
      <point x="262" y="-44"/>
      <point x="446" y="44"/>
      <point x="633" y="199"/>
      <point x="814" y="411"/>
      <point x="892" y="535" type="qcurve"/>
      <point x="830" y="517" type="line" smooth="yes"/>
      <point x="766" y="498"/>
      <point x="604" y="443"/>
      <point x="436" y="373"/>
      <point x="275" y="290"/>
      <point x="150" y="196"/>
      <point x="74" y="91"/>
      <point x="74" y="34" type="qcurve" smooth="yes"/>
      <point x="74" y="-4"/>
      <point x="133" y="-44"/>
    </contour>
    <contour>
      <point x="1690" y="884" type="qcurve"/>
      <point x="1795" y="938"/>
      <point x="2005" y="1075"/>
      <point x="2113" y="1164" type="qcurve" smooth="yes"/>
      <point x="2157" y="1200"/>
      <point x="2218" y="1270"/>
      <point x="2256" y="1332"/>
      <point x="2273" y="1385"/>
      <point x="2273" y="1405" type="qcurve" smooth="yes"/>
      <point x="2273" y="1434"/>
      <point x="2238" y="1474"/>
      <point x="2200" y="1474" type="qcurve" smooth="yes"/>
      <point x="2159" y="1474"/>
      <point x="2072" y="1427"/>
      <point x="1982" y="1344"/>
      <point x="1893" y="1231"/>
      <point x="1807" y="1100"/>
      <point x="1726" y="956"/>
    </contour>
  </outline>
</glyph>
<glyph name="J" format="2">
  <advance width="1274"/>
  <unicode hex="004A"/>
  <outline>
    <contour>
      <point x="1153" y="160" type="line"/>
      <point x="1111" y="171"/>
      <point x="1028" y="192"/>
      <point x="985" y="201" type="qcurve"/>
      <point x="934" y="97"/>
      <point x="820" y="-103"/>
      <point x="756" y="-200" type="qcurve" smooth="yes"/>
      <point x="707" y="-274"/>
      <point x="586" y="-416"/>
      <point x="451" y="-541"/>
      <point x="306" y="-646"/>
      <point x="159" y="-723"/>
      <point x="14" y="-765"/>
      <point x="-54" y="-765" type="qcurve" smooth="yes"/>
      <point x="-115" y="-765"/>
      <point x="-239" y="-722"/>
      <point x="-338" y="-636"/>
      <point x="-400" y="-507"/>
      <point x="-400" y="-420" type="qcurve" smooth="yes"/>
      <point x="-400" y="-375"/>
      <point x="-379" y="-275"/>
      <point x="-331" y="-169"/>
      <point x="-255" y="-58"/>
      <point x="-200" y="0" type="qcurve" smooth="yes"/>
      <point x="-127" y="77"/>
      <point x="54" y="189"/>
      <point x="258" y="262"/>
      <point x="480" y="297"/>
      <point x="594" y="297" type="qcurve" smooth="yes"/>
      <point x="669" y="297"/>
      <point x="818" y="283"/>
      <point x="893" y="270" type="qcurve"/>
      <point x="946" y="380"/>
      <point x="1032" y="598"/>
      <point x="1064" y="704" type="qcurve" smooth="yes"/>
      <point x="1112" y="866"/>
      <point x="1154" y="1104"/>
      <point x="1154" y="1191" type="qcurve" smooth="yes"/>
      <point x="1154" y="1265"/>
      <point x="1130" y="1372"/>
      <point x="1092" y="1447"/>
      <point x="1042" y="1494"/>
      <point x="991" y="1519"/>
      <point x="942" y="1528"/>
      <point x="923" y="1528" type="qcurve" smooth="yes"/>
      <point x="843" y="1528"/>
      <point x="717" y="1452"/>
      <point x="630" y="1314"/>
      <point x="584" y="1119"/>
      <point x="584" y="1000" type="qcurve" smooth="yes"/>
      <point x="584" y="907"/>
      <point x="616" y="749"/>
      <point x="664" y="619"/>
      <point x="721" y="519"/>
      <point x="770" y="451"/>
      <point x="802" y="415"/>
      <point x="803" y="415" type="qcurve"/>
      <point x="772" y="383" type="line"/>
      <point x="708" y="438"/>
      <point x="596" y="572"/>
      <point x="514" y="726"/>
      <point x="466" y="899"/>
      <point x="466" y="994" type="qcurve" smooth="yes"/>
      <point x="466" y="1102"/>
      <point x="528" y="1312"/>
      <point x="646" y="1479"/>
      <point x="818" y="1581"/>
      <point x="928" y="1581" type="qcurve" smooth="yes"/>
      <point x="953" y="1581"/>
      <point x="1019" y="1571"/>
      <point x="1089" y="1540"/>
      <point x="1158" y="1484"/>
      <point x="1211" y="1391"/>
      <point x="1244" y="1256"/>
      <point x="1244" y="1162" type="qcurve" smooth="yes"/>
      <point x="1244" y="1119"/>
      <point x="1236" y="1022"/>
      <point x="1228" y="966" type="qcurve" smooth="yes"/>
      <point x="1200" y="780"/>
      <point x="1088" y="421"/>
      <point x="1007" y="247" type="qcurve"/>
      <point x="1049" y="238"/>
      <point x="1129" y="218"/>
      <point x="1168" y="207" type="qcurve"/>
    </contour>
    <contour>
      <point x="-55" y="-713" type="qcurve" smooth="yes"/>
      <point x="20" y="-717"/>
      <point x="182" y="-651"/>
      <point x="346" y="-526"/>
      <point x="509" y="-350"/>
      <point x="664" y="-140"/>
      <point x="807" y="96"/>
      <point x="869" y="220" type="qcurve"/>
      <point x="818" y="227"/>
      <point x="717" y="235"/>
      <point x="664" y="235" type="qcurve" smooth="yes"/>
      <point x="508" y="235"/>
      <point x="243" y="165"/>
      <point x="26" y="49"/>
      <point x="-140" y="-101"/>
      <point x="-252" y="-260"/>
      <point x="-310" y="-417"/>
      <point x="-310" y="-482" type="qcurve" smooth="yes"/>
      <point x="-310" y="-533"/>
      <point x="-275" y="-618"/>
      <point x="-210" y="-679"/>
      <point x="-115" y="-713"/>
    </contour>
  </outline>
</glyph>
<glyph name="K" format="2">
  <advance width="2369"/>
  <unicode hex="004B"/>
  <outline>
    <contour>
      <point x="1679" y="1352" type="qcurve"/>
      <point x="1620" y="1330"/>
      <point x="1521" y="1302"/>
      <point x="1434" y="1286"/>
      <point x="1353" y="1280"/>
      <point x="1311" y="1280" type="qcurve" smooth="yes"/>
      <point x="1243" y="1280"/>
      <point x="1097" y="1299"/>
      <point x="1029" y="1299" type="qcurve" smooth="yes"/>
      <point x="938" y="1299"/>
      <point x="771" y="1252"/>
      <point x="643" y="1159"/>
      <point x="567" y="1019"/>
      <point x="567" y="925" type="qcurve" smooth="yes"/>
      <point x="567" y="868"/>
      <point x="603" y="775"/>
      <point x="671" y="709"/>
      <point x="769" y="673"/>
      <point x="830" y="673" type="qcurve" smooth="yes"/>
      <point x="899" y="673"/>
      <point x="1001" y="707"/>
      <point x="1068" y="749"/>
      <point x="1102" y="785"/>
      <point x="1104" y="787" type="qcurve" smooth="yes"/>
      <point x="1146" y="756" type="line"/>
      <point x="1143" y="752"/>
      <point x="1093" y="704"/>
      <point x="1002" y="650"/>
      <point x="869" y="606"/>
      <point x="783" y="606" type="qcurve" smooth="yes"/>
      <point x="727" y="606"/>
      <point x="610" y="636"/>
      <point x="514" y="708"/>
      <point x="452" y="826"/>
      <point x="452" y="913" type="qcurve" smooth="yes"/>
      <point x="452" y="984"/>
      <point x="496" y="1104"/>
      <point x="573" y="1202"/>
      <point x="680" y="1277"/>
      <point x="805" y="1327"/>
      <point x="945" y="1353"/>
      <point x="1017" y="1353" type="qcurve" smooth="yes"/>
      <point x="1048" y="1353"/>
      <point x="1131" y="1346"/>
      <point x="1218" y="1339"/>
      <point x="1302" y="1332"/>
      <point x="1335" y="1332" type="qcurve" smooth="yes"/>
      <point x="1372" y="1332"/>
      <point x="1457" y="1341"/>
      <point x="1560" y="1365"/>
      <point x="1684" y="1408"/>
      <point x="1761" y="1442" type="qcurve"/>
      <point x="1786" y="1397" type="line"/>
      <point x="1786" y="1397"/>
      <point x="1744" y="1355"/>
      <point x="1670" y="1249"/>
      <point x="1570" y="1065"/>
      <point x="1510" y="922" type="qcurve" smooth="yes"/>
      <point x="1450" y="778"/>
      <point x="1327" y="495"/>
      <point x="1185" y="241"/>
      <point x="1016" y="24"/>
      <point x="803" y="-134"/>
      <point x="540" y="-223"/>
      <point x="374" y="-223" type="qcurve" smooth="yes"/>
      <point x="275" y="-223"/>
      <point x="108" y="-177"/>
      <point x="-12" y="-90"/>
      <point x="-80" y="34"/>
      <point x="-80" y="112" type="qcurve" smooth="yes"/>
      <point x="-80" y="209"/>
      <point x="2" y="354"/>
      <point x="138" y="452"/>
      <point x="317" y="501"/>
      <point x="413" y="501" type="qcurve" smooth="yes"/>
      <point x="505" y="501"/>
      <point x="691" y="465"/>
      <point x="777" y="432" type="qcurve"/>
      <point x="758" y="383" type="line"/>
      <point x="694" y="407"/>
      <point x="540" y="432"/>
      <point x="473" y="432" type="qcurve" smooth="yes"/>
      <point x="370" y="432"/>
      <point x="208" y="388"/>
      <point x="95" y="305"/>
      <point x="36" y="187"/>
      <point x="36" y="114" type="qcurve" smooth="yes"/>
      <point x="36" y="41"/>
      <point x="105" y="-64"/>
      <point x="215" y="-131"/>
      <point x="350" y="-163"/>
      <point x="415" y="-163" type="qcurve" smooth="yes"/>
      <point x="536" y="-163"/>
      <point x="731" y="-98"/>
      <point x="889" y="14"/>
      <point x="1014" y="164"/>
      <point x="1119" y="335"/>
      <point x="1207" y="517"/>
      <point x="1248" y="605" type="qcurve" smooth="yes"/>
      <point x="1319" y="769"/>
      <point x="1393" y="914" type="qcurve" smooth="yes"/>
      <point x="1424" y="976"/>
      <point x="1495" y="1104"/>
      <point x="1569" y="1221"/>
      <point x="1644" y="1320"/>
    </contour>
    <contour>
      <point x="2696" y="1109" type="line" smooth="yes"/>
      <point x="2696" y="1110"/>
      <point x="2712" y="1142"/>
      <point x="2731" y="1193"/>
      <point x="2746" y="1257"/>
      <point x="2746" y="1290" type="qcurve" smooth="yes"/>
      <point x="2746" y="1324"/>
      <point x="2721" y="1381"/>
      <point x="2678" y="1422"/>
      <point x="2618" y="1445"/>
      <point x="2584" y="1445" type="qcurve" smooth="yes"/>
      <point x="2539" y="1445"/>
      <point x="2454" y="1397"/>
      <point x="2361" y="1288"/>
      <point x="2253" y="1113"/>
      <point x="2184" y="986" type="qcurve" smooth="yes"/>
      <point x="2146" y="915"/>
      <point x="2069" y="806"/>
      <point x="1993" y="724"/>
      <point x="1919" y="665"/>
      <point x="1884" y="645" type="qcurve"/>
      <point x="1917" y="606"/>
      <point x="1962" y="491"/>
      <point x="1962" y="407" type="qcurve" smooth="yes"/>
      <point x="1962" y="362"/>
      <point x="1939" y="254"/>
      <point x="1912" y="144"/>
      <point x="1890" y="40"/>
      <point x="1890" y="0" type="qcurve" smooth="yes"/>
      <point x="1890" y="-54"/>
      <point x="1922" y="-120"/>
      <point x="1972" y="-157"/>
      <point x="2031" y="-169"/>
      <point x="2057" y="-169" type="qcurve" smooth="yes"/>
      <point x="2100" y="-169"/>
      <point x="2179" y="-142"/>
      <point x="2210" y="-125" type="qcurve" smooth="yes"/>
      <point x="2246" y="-106"/>
      <point x="2277" y="-80" type="qcurve"/>
      <point x="2310" y="-121" type="line"/>
      <point x="2307" y="-123"/>
      <point x="2260" y="-158"/>
      <point x="2183" y="-198"/>
      <point x="2085" y="-230"/>
      <point x="2032" y="-230" type="qcurve" smooth="yes"/>
      <point x="1977" y="-230"/>
      <point x="1882" y="-192"/>
      <point x="1813" y="-122"/>
      <point x="1773" y="-26"/>
      <point x="1773" y="33" type="qcurve" smooth="yes"/>
      <point x="1773" y="89"/>
      <point x="1801" y="199"/>
      <point x="1835" y="305"/>
      <point x="1863" y="405"/>
      <point x="1863" y="451" type="qcurve" smooth="yes"/>
      <point x="1863" y="491"/>
      <point x="1844" y="575"/>
      <point x="1817" y="613" type="qcurve"/>
      <point x="1771" y="599"/>
      <point x="1687" y="581"/>
      <point x="1633" y="581" type="qcurve" smooth="yes"/>
      <point x="1588" y="581"/>
      <point x="1536" y="602"/>
      <point x="1511" y="629"/>
      <point x="1504" y="656"/>
      <point x="1504" y="663" type="qcurve" smooth="yes"/>
      <point x="1504" y="705"/>
      <point x="1579" y="764"/>
      <point x="1644" y="764" type="qcurve" smooth="yes"/>
      <point x="1679" y="764"/>
      <point x="1775" y="733"/>
      <point x="1827" y="697" type="qcurve"/>
      <point x="1882" y="736"/>
      <point x="1975" y="854"/>
      <point x="2059" y="995"/>
      <point x="2139" y="1150"/>
      <point x="2181" y="1227" type="qcurve" smooth="yes"/>
      <point x="2256" y="1364"/>
      <point x="2446" y="1509"/>
      <point x="2552" y="1509" type="qcurve" smooth="yes"/>
      <point x="2598" y="1509"/>
      <point x="2687" y="1480"/>
      <point x="2757" y="1424"/>
      <point x="2800" y="1343"/>
      <point x="2800" y="1291" type="qcurve" smooth="yes"/>
      <point x="2800" y="1253"/>
      <point x="2783" y="1181"/>
      <point x="2762" y="1124"/>
      <point x="2743" y="1087"/>
      <point x="2742" y="1084" type="qcurve"/>
    </contour>
    <contour>
      <point x="1771" y="664" type="qcurve"/>
      <point x="1745" y="684"/>
      <point x="1676" y="712"/>
      <point x="1642" y="712" type="qcurve" smooth="yes"/>
      <point x="1603" y="712"/>
      <point x="1560" y="685"/>
      <point x="1560" y="667" type="qcurve" smooth="yes"/>
      <point x="1560" y="656"/>
      <point x="1589" y="634"/>
      <point x="1632" y="634" type="qcurve" smooth="yes"/>
      <point x="1663" y="634"/>
      <point x="1738" y="649"/>
    </contour>
  </outline>
</glyph>
<glyph name="N" format="2">
  <advance width="2090"/>
  <unicode hex="004E"/>
  <outline>
    <contour>
      <point x="2873" y="1293" type="line"/>
      <point x="2875" y="1305"/>
      <point x="2878" y="1328"/>
      <point x="2878" y="1339" type="qcurve" smooth="yes"/>
      <point x="2878" y="1381"/>
      <point x="2845" y="1458"/>
      <point x="2782" y="1517"/>
      <point x="2692" y="1552"/>
      <point x="2636" y="1552" type="qcurve" smooth="yes"/>
      <point x="2577" y="1552"/>
      <point x="2445" y="1501"/>
      <point x="2379" y="1437" type="qcurve" smooth="yes"/>
      <point x="2315" y="1375"/>
      <point x="2180" y="1180"/>
      <point x="2047" y="945"/>
      <point x="1920" y="685"/>
      <point x="1806" y="433"/>
      <point x="1710" y="203"/>
      <point x="1640" y="28"/>
      <point x="1601" y="-78"/>
      <point x="1600" y="-80" type="qcurve" smooth="yes"/>
      <point x="1549" y="-67" type="line"/>
      <point x="1537" y="10"/>
      <point x="1518" y="134"/>
      <point x="1505" y="248"/>
      <point x="1499" y="360"/>
      <point x="1499" y="424" type="qcurve" smooth="yes"/>
      <point x="1499" y="476"/>
      <point x="1508" y="610"/>
      <point x="1525" y="760"/>
      <point x="1548" y="918"/>
      <point x="1575" y="1070"/>
      <point x="1605" y="1207"/>
      <point x="1621" y="1262" type="qcurve"/>
      <point x="1536" y="1135"/>
      <point x="1395" y="877"/>
      <point x="1269" y="629"/>
      <point x="1151" y="396"/>
      <point x="1027" y="192"/>
      <point x="889" y="22"/>
      <point x="724" y="-99"/>
      <point x="524" y="-166"/>
      <point x="400" y="-166" type="qcurve" smooth="yes"/>
      <point x="306" y="-166"/>
      <point x="139" y="-114"/>
      <point x="13" y="-20"/>
      <point x="-60" y="114"/>
      <point x="-60" y="195" type="qcurve" smooth="yes"/>
      <point x="-60" y="287"/>
      <point x="19" y="432"/>
      <point x="149" y="531"/>
      <point x="319" y="583"/>
      <point x="410" y="583" type="qcurve" smooth="yes"/>
      <point x="462" y="583"/>
      <point x="569" y="569"/>
      <point x="672" y="537"/>
      <point x="768" y="484"/>
      <point x="809" y="445" type="qcurve"/>
      <point x="770" y="410" type="line"/>
      <point x="770" y="410"/>
      <point x="727" y="447"/>
      <point x="642" y="491"/>
      <point x="512" y="528"/>
      <point x="425" y="528" type="qcurve" smooth="yes"/>
      <point x="355" y="528"/>
      <point x="223" y="488"/>
      <point x="120" y="410"/>
      <point x="58" y="296"/>
      <point x="58" y="221" type="qcurve" smooth="yes"/>
      <point x="58" y="144"/>
      <point x="124" y="23"/>
      <point x="234" y="-60"/>
      <point x="374" y="-103"/>
      <point x="448" y="-103" type="qcurve" smooth="yes"/>
      <point x="558" y="-103"/>
      <point x="737" y="-30"/>
      <point x="890" y="102"/>
      <point x="1023" y="286"/>
      <point x="1149" y="508"/>
      <point x="1277" y="761"/>
      <point x="1419" y="1031"/>
      <point x="1583" y="1311"/>
      <point x="1682" y="1449" type="qcurve"/>
      <point x="1728" y="1425" type="line"/>
      <point x="1695" y="1328"/>
      <point x="1655" y="1113"/>
      <point x="1634" y="886"/>
      <point x="1627" y="654"/>
      <point x="1625" y="428"/>
      <point x="1624" y="213"/>
      <point x="1619" y="117" type="qcurve"/>
      <point x="1653" y="204"/>
      <point x="1749" y="436"/>
      <point x="1865" y="694"/>
      <point x="1996" y="961"/>
      <point x="2133" y="1205"/>
      <point x="2274" y="1408"/>
      <point x="2342" y="1474" type="qcurve" smooth="yes"/>
      <point x="2417" y="1546"/>
      <point x="2568" y="1605"/>
      <point x="2637" y="1605" type="qcurve" smooth="yes"/>
      <point x="2705" y="1605"/>
      <point x="2814" y="1560"/>
      <point x="2890" y="1487"/>
      <point x="2930" y="1391"/>
      <point x="2930" y="1340" type="qcurve" smooth="yes"/>
      <point x="2930" y="1312"/>
      <point x="2924" y="1282" type="qcurve"/>
    </contour>
  </outline>
</glyph>
<glyph name="S" format="2">
  <advance width="1752"/>
  <unicode hex="0053"/>
  <outline>
    <contour>
      <point x="2112" y="1248" type="qcurve" smooth="yes"/>
      <point x="2112" y="1184"/>
      <point x="2062" y="1046"/>
      <point x="1966" y="912"/>
      <point x="1825" y="788"/>
      <point x="1642" y="687"/>
      <point x="1420" y="615"/>
      <point x="1291" y="600" type="qcurve"/>
      <point x="1238" y="503"/>
      <point x="1124" y="312"/>
      <point x="996" y="139"/>
      <point x="853" y="-8"/>
      <point x="690" y="-116"/>
      <point x="503" y="-177"/>
      <point x="396" y="-177" type="qcurve" smooth="yes"/>
      <point x="308" y="-177"/>
      <point x="143" y="-126"/>
      <point x="16" y="-29"/>
      <point x="-60" y="111"/>
      <point x="-60" y="201" type="qcurve" smooth="yes"/>
      <point x="-60" y="298"/>
      <point x="11" y="442"/>
      <point x="128" y="538"/>
      <point x="276" y="585"/>
      <point x="353" y="585" type="qcurve" smooth="yes"/>
      <point x="412" y="585"/>
      <point x="527" y="562"/>
      <point x="632" y="520"/>
      <point x="723" y="462"/>
      <point x="758" y="427" type="qcurve"/>
      <point x="728" y="395" type="line"/>
      <point x="704" y="418"/>
      <point x="639" y="460"/>
      <point x="555" y="493"/>
      <point x="455" y="512"/>
      <point x="397" y="512" type="qcurve" smooth="yes"/>
      <point x="330" y="512"/>
      <point x="204" y="467"/>
      <point x="106" y="382"/>
      <point x="46" y="259"/>
      <point x="46" y="180" type="qcurve" smooth="yes"/>
      <point x="46" y="116"/>
      <point x="97" y="5"/>
      <point x="190" y="-76"/>
      <point x="317" y="-122"/>
      <point x="394" y="-122" type="qcurve" smooth="yes"/>
      <point x="482" y="-122"/>
      <point x="637" y="-67"/>
      <point x="772" y="30"/>
      <point x="893" y="164"/>
      <point x="1002" y="323"/>
      <point x="1102" y="499"/>
      <point x="1151" y="591" type="qcurve"/>
      <point x="1124" y="591" type="line" smooth="yes"/>
      <point x="956" y="591"/>
      <point x="687" y="660"/>
      <point x="498" y="780"/>
      <point x="397" y="941"/>
      <point x="397" y="1034" type="qcurve" smooth="yes"/>
      <point x="397" y="1127"/>
      <point x="469" y="1269"/>
      <point x="593" y="1365"/>
      <point x="757" y="1414"/>
      <point x="849" y="1414" type="qcurve" smooth="yes"/>
      <point x="928" y="1414"/>
      <point x="1060" y="1389"/>
      <point x="1165" y="1350"/>
      <point x="1246" y="1304"/>
      <point x="1302" y="1262"/>
      <point x="1334" y="1230"/>
      <point x="1339" y="1225" type="qcurve"/>
      <point x="1305" y="1195" type="line" smooth="yes"/>
      <point x="1304" y="1196"/>
      <point x="1248" y="1245"/>
      <point x="1146" y="1304"/>
      <point x="1002" y="1353"/>
      <point x="914" y="1353" type="qcurve" smooth="yes"/>
      <point x="825" y="1353"/>
      <point x="676" y="1303"/>
      <point x="568" y="1214"/>
      <point x="507" y="1092"/>
      <point x="507" y="1020" type="qcurve" smooth="yes"/>
      <point x="507" y="935"/>
      <point x="601" y="796"/>
      <point x="768" y="697"/>
      <point x="995" y="642"/>
      <point x="1129" y="642" type="qcurve" smooth="yes"/>
      <point x="1177" y="642" type="line"/>
      <point x="1229" y="741"/>
      <point x="1332" y="936"/>
      <point x="1440" y="1113"/>
      <point x="1556" y="1265"/>
      <point x="1686" y="1376"/>
      <point x="1834" y="1439"/>
      <point x="1919" y="1439" type="qcurve" smooth="yes"/>
      <point x="1954" y="1439"/>
      <point x="2023" y="1420"/>
      <point x="2078" y="1375"/>
      <point x="2112" y="1302"/>
    </contour>
    <contour>
      <point x="1940" y="1385" type="qcurve" smooth="yes"/>
      <point x="1877" y="1385"/>
      <point x="1763" y="1329"/>
      <point x="1659" y="1228"/>
      <point x="1561" y="1091"/>
      <point x="1466" y="928"/>
      <point x="1370" y="747"/>
      <point x="1320" y="654" type="qcurve"/>
      <point x="1450" y="671"/>
      <point x="1662" y="747"/>
      <point x="1826" y="848"/>
      <point x="1946" y="966"/>
      <point x="2024" y="1084"/>
      <point x="2061" y="1193"/>
      <point x="2061" y="1236" type="qcurve" smooth="yes"/>
      <point x="2061" y="1268"/>
      <point x="2048" y="1322"/>
      <point x="2020" y="1362"/>
      <point x="1974" y="1385"/>
    </contour>
  </outline>
</glyph>
<glyph name="W" format="2">
  <advance width="2779"/>
  <unicode hex="0057"/>
  <outline>
    <contour>
      <point x="2333" y="1214" type="line"/>
      <point x="2283" y="1048"/>
      <point x="2163" y="750"/>
      <point x="2109" y="635" type="qcurve" smooth="yes"/>
      <point x="2047" y="501"/>
      <point x="1984" y="387" type="qcurve" smooth="yes"/>
      <point x="1933" y="297"/>
      <point x="1864" y="163"/>
      <point x="1822" y="68"/>
      <point x="1804" y="5"/>
      <point x="1804" y="-15" type="qcurve" smooth="yes"/>
      <point x="1804" y="-36"/>
      <point x="1822" y="-59"/>
      <point x="1847" y="-71"/>
      <point x="1872" y="-74"/>
      <point x="1880" y="-74" type="qcurve" smooth="yes"/>
      <point x="1915" y="-74"/>
      <point x="2012" y="-35"/>
      <point x="2125" y="36"/>
      <point x="2249" y="137"/>
      <point x="2371" y="263"/>
      <point x="2486" y="410"/>
      <point x="2534" y="492" type="qcurve" smooth="yes"/>
      <point x="2611" y="626"/>
      <point x="2657" y="740" type="qcurve"/>
      <point x="2628" y="797"/>
      <point x="2600" y="918"/>
      <point x="2600" y="972" type="qcurve" smooth="yes"/>
      <point x="2600" y="1050"/>
      <point x="2649" y="1144"/>
      <point x="2693" y="1144" type="qcurve" smooth="yes"/>
      <point x="2717" y="1144"/>
      <point x="2750" y="1120"/>
      <point x="2770" y="1082"/>
      <point x="2779" y="1037"/>
      <point x="2779" y="1015" type="qcurve" smooth="yes"/>
      <point x="2779" y="968"/>
      <point x="2752" y="846"/>
      <point x="2701" y="705"/>
      <point x="2627" y="548"/>
      <point x="2579" y="466" type="qcurve" smooth="yes"/>
      <point x="2531" y="384"/>
      <point x="2414" y="233"/>
      <point x="2287" y="101"/>
      <point x="2156" y="-8"/>
      <point x="2033" y="-85"/>
      <point x="1922" y="-128"/>
      <point x="1880" y="-128" type="qcurve" smooth="yes"/>
      <point x="1801" y="-128"/>
      <point x="1711" y="-56"/>
      <point x="1711" y="23" type="qcurve" smooth="yes"/>
      <point x="1711" y="66"/>
      <point x="1734" y="152"/>
      <point x="1779" y="252"/>
      <point x="1845" y="371"/>
      <point x="1888" y="446" type="qcurve"/>
      <point x="1788" y="313"/>
      <point x="1557" y="64"/>
      <point x="1426" y="-34" type="qcurve" smooth="yes"/>
      <point x="1367" y="-78"/>
      <point x="1269" y="-137"/>
      <point x="1188" y="-173"/>
      <point x="1122" y="-188"/>
      <point x="1095" y="-188" type="qcurve" smooth="yes"/>
      <point x="1056" y="-188"/>
      <point x="999" y="-166"/>
      <point x="962" y="-129"/>
      <point x="945" y="-78"/>
      <point x="945" y="-48" type="qcurve" smooth="yes"/>
      <point x="945" y="2"/>
      <point x="975" y="92"/>
      <point x="1004" y="139" type="qcurve" smooth="yes"/>
      <point x="1037" y="191"/>
      <point x="1128" y="317"/>
      <point x="1227" y="455"/>
      <point x="1324" y="599"/>
      <point x="1401" y="741"/>
      <point x="1448" y="875"/>
      <point x="1448" y="934" type="qcurve" smooth="yes"/>
      <point x="1448" y="1027"/>
      <point x="1375" y="1181"/>
      <point x="1239" y="1291"/>
      <point x="1046" y="1351"/>
      <point x="926" y="1351" type="qcurve" smooth="yes"/>
      <point x="761" y="1351"/>
      <point x="485" y="1255"/>
      <point x="286" y="1086"/>
      <point x="175" y="857"/>
      <point x="175" y="725" type="qcurve" smooth="yes"/>
      <point x="175" y="644"/>
      <point x="226" y="511"/>
      <point x="319" y="415"/>
      <point x="452" y="362"/>
      <point x="534" y="362" type="qcurve" smooth="yes"/>
      <point x="629" y="362"/>
      <point x="791" y="429"/>
      <point x="924" y="545"/>
      <point x="1028" y="702"/>
      <point x="1064" y="792" type="qcurve"/>
      <point x="1109" y="776" type="line"/>
      <point x="1012" y="535"/>
      <point x="692" y="288"/>
      <point x="472" y="288" type="qcurve" smooth="yes"/>
      <point x="379" y="288"/>
      <point x="227" y="351"/>
      <point x="119" y="464"/>
      <point x="60" y="621"/>
      <point x="60" y="715" type="qcurve" smooth="yes"/>
      <point x="60" y="842"/>
      <point x="144" y="1044"/>
      <point x="283" y="1197"/>
      <point x="460" y="1305"/>
      <point x="646" y="1373"/>
      <point x="824" y="1404"/>
      <point x="895" y="1404" type="qcurve" smooth="yes"/>
      <point x="1029" y="1404"/>
      <point x="1257" y="1339"/>
      <point x="1424" y="1210"/>
      <point x="1518" y="1020"/>
      <point x="1518" y="895" type="qcurve" smooth="yes"/>
      <point x="1518" y="804"/>
      <point x="1449" y="583"/>
      <point x="1364" y="456" type="qcurve" smooth="yes"/>
      <point x="1286" y="339"/>
      <point x="1158" y="167"/>
      <point x="1067" y="42"/>
      <point x="1017" y="-42"/>
      <point x="1017" y="-70" type="qcurve" smooth="yes"/>
      <point x="1017" y="-99"/>
      <point x="1059" y="-135"/>
      <point x="1096" y="-135" type="qcurve" smooth="yes"/>
      <point x="1149" y="-135"/>
      <point x="1300" y="-63"/>
      <point x="1394" y="7" type="qcurve" smooth="yes"/>
      <point x="1487" y="76"/>
      <point x="1656" y="242"/>
      <point x="1807" y="421"/>
      <point x="1941" y="607"/>
      <point x="2055" y="786"/>
      <point x="2149" y="953"/>
      <point x="2221" y="1094"/>
      <point x="2271" y="1203"/>
      <point x="2284" y="1234" type="qcurve"/>
    </contour>
    <contour>
      <point x="2684" y="809" type="qcurve"/>
      <point x="2707" y="873"/>
      <point x="2727" y="977"/>
      <point x="2727" y="1014" type="qcurve" smooth="yes"/>
      <point x="2727" y="1021"/>
      <point x="2726" y="1048"/>
      <point x="2719" y="1073"/>
      <point x="2705" y="1092"/>
      <point x="2693" y="1092" type="qcurve" smooth="yes"/>
      <point x="2676" y="1092"/>
      <point x="2653" y="1024"/>
      <point x="2653" y="975" type="qcurve" smooth="yes"/>
      <point x="2653" y="938"/>
      <point x="2667" y="853"/>
    </contour>
  </outline>
</glyph>
<glyph name="Y" format="2">
  <advance width="2023"/>
  <unicode hex="0059"/>
  <outline>
    <contour>
      <point x="620" y="122" type="line"/>
      <point x="590" y="131"/>
      <point x="540" y="142"/>
      <point x="491" y="148"/>
      <point x="441" y="151"/>
      <point x="412" y="151" type="qcurve" smooth="yes"/>
      <point x="317" y="151"/>
      <point x="149" y="87"/>
      <point x="24" y="-29"/>
      <point x="-49" y="-190"/>
      <point x="-49" y="-286" type="qcurve" smooth="yes"/>
      <point x="-49" y="-386"/>
      <point x="30" y="-541"/>
      <point x="168" y="-647"/>
      <point x="356" y="-702"/>
      <point x="466" y="-702" type="qcurve" smooth="yes"/>
      <point x="604" y="-702"/>
      <point x="836" y="-629"/>
      <point x="1035" y="-497"/>
      <point x="1207" y="-315"/>
      <point x="1364" y="-97"/>
      <point x="1510" y="151"/>
      <point x="1584" y="282" type="qcurve"/>
      <point x="1521" y="215"/>
      <point x="1401" y="110"/>
      <point x="1283" y="37"/>
      <point x="1166" y="-1"/>
      <point x="1105" y="-1" type="qcurve" smooth="yes"/>
      <point x="1069" y="-1"/>
      <point x="992" y="19"/>
      <point x="930" y="66"/>
      <point x="890" y="141"/>
      <point x="890" y="195" type="qcurve" smooth="yes"/>
      <point x="890" y="230"/>
      <point x="917" y="307"/>
      <point x="973" y="397"/>
      <point x="1056" y="502"/>
      <point x="1112" y="566" type="qcurve" smooth="yes"/>
      <point x="1179" y="642"/>
      <point x="1269" y="780"/>
      <point x="1325" y="902"/>
      <point x="1349" y="1009"/>
      <point x="1349" y="1055" type="qcurve" smooth="yes"/>
      <point x="1349" y="1146"/>
      <point x="1282" y="1276"/>
      <point x="1168" y="1358"/>
      <point x="1018" y="1397"/>
      <point x="935" y="1397" type="qcurve" smooth="yes"/>
      <point x="848" y="1397"/>
      <point x="672" y="1364"/>
      <point x="508" y="1300"/>
      <point x="365" y="1206"/>
      <point x="259" y="1085"/>
      <point x="198" y="938"/>
      <point x="198" y="852" type="qcurve" smooth="yes"/>
      <point x="198" y="784"/>
      <point x="244" y="672"/>
      <point x="329" y="591"/>
      <point x="451" y="547"/>
      <point x="528" y="547" type="qcurve" smooth="yes"/>
      <point x="579" y="547"/>
      <point x="687" y="571"/>
      <point x="792" y="616"/>
      <point x="893" y="682"/>
      <point x="938" y="725" type="qcurve"/>
      <point x="969" y="692" type="line"/>
      <point x="916" y="634"/>
      <point x="796" y="549"/>
      <point x="670" y="493"/>
      <point x="542" y="466"/>
      <point x="481" y="466" type="qcurve" smooth="yes"/>
      <point x="398" y="466"/>
      <point x="253" y="511"/>
      <point x="144" y="602"/>
      <point x="81" y="738"/>
      <point x="81" y="829" type="qcurve" smooth="yes"/>
      <point x="81" y="931"/>
      <point x="158" y="1103"/>
      <point x="288" y="1241"/>
      <point x="460" y="1345"/>
      <point x="650" y="1415"/>
      <point x="846" y="1450"/>
      <point x="936" y="1450" type="qcurve" smooth="yes"/>
      <point x="1045" y="1450"/>
      <point x="1222" y="1394"/>
      <point x="1347" y="1284"/>
      <point x="1415" y="1124"/>
      <point x="1415" y="1019" type="qcurve" smooth="yes"/>
      <point x="1415" y="912"/>
      <point x="1355" y="725"/>
      <point x="1264" y="564"/>
      <point x="1159" y="426"/>
      <point x="1068" y="310"/>
      <point x="1008" y="213"/>
      <point x="1008" y="173" type="qcurve" smooth="yes"/>
      <point x="1008" y="149"/>
      <point x="1023" y="105"/>
      <point x="1054" y="72"/>
      <point x="1100" y="52"/>
      <point x="1131" y="52" type="qcurve" smooth="yes"/>
      <point x="1188" y="52"/>
      <point x="1328" y="123"/>
      <point x="1479" y="246"/>
      <point x="1636" y="412"/>
      <point x="1711" y="507" type="qcurve"/>
      <point x="1769" y="609"/>
      <point x="1894" y="811"/>
      <point x="2031" y="1006"/>
      <point x="2184" y="1192"/>
      <point x="2270" y="1276" type="qcurve"/>
      <point x="2303" y="1244" type="line"/>
      <point x="2172" y="1086"/>
      <point x="1961" y="747"/>
      <point x="1775" y="406"/>
      <point x="1604" y="75"/>
      <point x="1422" y="-221"/>
      <point x="1217" y="-473"/>
      <point x="964" y="-656"/>
      <point x="652" y="-759"/>
      <point x="453" y="-759" type="qcurve" smooth="yes"/>
      <point x="337" y="-759"/>
      <point x="116" y="-703"/>
      <point x="-56" y="-587"/>
      <point x="-160" y="-413"/>
      <point x="-160" y="-294" type="qcurve" smooth="yes"/>
      <point x="-160" y="-205"/>
      <point x="-109" y="-63"/>
      <point x="-24" y="47"/>
      <point x="88" y="127"/>
      <point x="210" y="178"/>
      <point x="335" y="202"/>
      <point x="391" y="202" type="qcurve" smooth="yes"/>
      <point x="433" y="202"/>
      <point x="499" y="199"/>
      <point x="556" y="191"/>
      <point x="608" y="180"/>
      <point x="637" y="171" type="qcurve"/>
    </contour>
  </outline>
</glyph>
<glyph name="Z" format="2">
  <advance width="1517"/>
  <unicode hex="005A"/>
  <outline>
    <contour>
      <point x="762" y="45" type="qcurve"/>
      <point x="781" y="24"/>
      <point x="829" y="-51"/>
      <point x="842" y="-111" type="qcurve"/>
      <point x="946" y="-56"/>
      <point x="1135" y="46"/>
      <point x="1304" y="158"/>
      <point x="1453" y="289"/>
      <point x="1517" y="373" type="qcurve"/>
      <point x="1554" y="345" type="line"/>
      <point x="1494" y="264"/>
      <point x="1355" y="135"/>
      <point x="1185" y="17"/>
      <point x="979" y="-99"/>
      <point x="850" y="-167" type="qcurve"/>
      <point x="850" y="-175"/>
      <point x="851" y="-190"/>
      <point x="851" y="-198" type="qcurve" smooth="yes"/>
      <point x="851" y="-270"/>
      <point x="799" y="-433"/>
      <point x="710" y="-592"/>
      <point x="594" y="-738"/>
      <point x="466" y="-849"/>
      <point x="334" y="-915"/>
      <point x="275" y="-915" type="qcurve" smooth="yes"/>
      <point x="244" y="-915"/>
      <point x="192" y="-893"/>
      <point x="154" y="-854"/>
      <point x="133" y="-803"/>
      <point x="133" y="-773" type="qcurve" smooth="yes"/>
      <point x="133" y="-722"/>
      <point x="182" y="-614"/>
      <point x="270" y="-503"/>
      <point x="389" y="-393"/>
      <point x="529" y="-290"/>
      <point x="684" y="-194"/>
      <point x="764" y="-153" type="qcurve"/>
      <point x="764" y="-99"/>
      <point x="735" y="-7"/>
      <point x="714" y="20" type="qcurve"/>
      <point x="616" y="-26"/>
      <point x="516" y="-26" type="qcurve" smooth="yes"/>
      <point x="450" y="-26"/>
      <point x="368" y="20"/>
      <point x="368" y="61" type="qcurve" smooth="yes"/>
      <point x="368" y="106"/>
      <point x="451" y="158"/>
      <point x="517" y="158" type="qcurve" smooth="yes"/>
      <point x="564" y="158"/>
      <point x="665" y="125"/>
      <point x="707" y="95" type="qcurve"/>
      <point x="786" y="140"/>
      <point x="917" y="295"/>
      <point x="1047" y="494"/>
      <point x="1188" y="723"/>
      <point x="1365" y="960"/>
      <point x="1593" y="1193"/>
      <point x="1744" y="1296" type="qcurve"/>
      <point x="1666" y="1279"/>
      <point x="1516" y="1264"/>
      <point x="1443" y="1264" type="qcurve" smooth="yes"/>
      <point x="1332" y="1264"/>
      <point x="1119" y="1292"/>
      <point x="917" y="1325"/>
      <point x="730" y="1353"/>
      <point x="645" y="1353" type="qcurve" smooth="yes"/>
      <point x="533" y="1353"/>
      <point x="359" y="1279"/>
      <point x="239" y="1162"/>
      <point x="176" y="1016"/>
      <point x="176" y="944" type="qcurve" smooth="yes"/>
      <point x="176" y="866"/>
      <point x="229" y="743"/>
      <point x="322" y="658"/>
      <point x="451" y="613"/>
      <point x="527" y="613" type="qcurve" smooth="yes"/>
      <point x="604" y="613"/>
      <point x="730" y="644"/>
      <point x="822" y="681"/>
      <point x="875" y="714"/>
      <point x="878" y="717" type="qcurve"/>
      <point x="908" y="674" type="line"/>
      <point x="871" y="649"/>
      <point x="781" y="604"/>
      <point x="677" y="569"/>
      <point x="560" y="549"/>
      <point x="496" y="549" type="qcurve" smooth="yes"/>
      <point x="391" y="549"/>
      <point x="228" y="609"/>
      <point x="117" y="712"/>
      <point x="60" y="849"/>
      <point x="60" y="927" type="qcurve" smooth="yes"/>
      <point x="60" y="1036"/>
      <point x="147" y="1214"/>
      <point x="305" y="1340"/>
      <point x="525" y="1408"/>
      <point x="657" y="1408" type="qcurve" smooth="yes"/>
      <point x="739" y="1408"/>
      <point x="924" y="1380"/>
      <point x="1124" y="1345"/>
      <point x="1337" y="1317"/>
      <point x="1446" y="1317" type="qcurve" smooth="yes"/>
      <point x="1550" y="1317"/>
      <point x="1763" y="1349"/>
      <point x="1880" y="1390" type="qcurve"/>
      <point x="1903" y="1344" type="line"/>
      <point x="1775" y="1254"/>
      <point x="1584" y="1070"/>
      <point x="1427" y="876"/>
      <point x="1291" y="667"/>
      <point x="1219" y="551" type="qcurve" smooth="yes"/>
      <point x="1100" y="358"/>
      <point x="873" y="109"/>
    </contour>
    <contour>
      <point x="758" y="-215" type="qcurve"/>
      <point x="638" y="-278"/>
      <point x="429" y="-425"/>
      <point x="274" y="-573"/>
      <point x="185" y="-714"/>
      <point x="185" y="-772" type="qcurve" smooth="yes"/>
      <point x="185" y="-784"/>
      <point x="192" y="-810"/>
      <point x="207" y="-831"/>
      <point x="229" y="-845"/>
      <point x="244" y="-845" type="qcurve" smooth="yes"/>
      <point x="274" y="-845"/>
      <point x="366" y="-790"/>
      <point x="472" y="-697"/>
      <point x="582" y="-572"/>
      <point x="676" y="-432"/>
      <point x="745" y="-285"/>
    </contour>
    <contour>
      <point x="663" y="65" type="qcurve"/>
      <point x="634" y="82"/>
      <point x="561" y="108"/>
      <point x="514" y="108" type="qcurve" smooth="yes"/>
      <point x="477" y="108"/>
      <point x="421" y="83"/>
      <point x="421" y="63" type="qcurve" smooth="yes"/>
      <point x="421" y="46"/>
      <point x="462" y="22"/>
      <point x="507" y="22" type="qcurve" smooth="yes"/>
      <point x="552" y="22"/>
      <point x="629" y="46"/>
    </contour>
  </outline>
</glyph>
<glyph name="bracketleft" format="2">
  <advance width="702"/>
  <unicode hex="005B"/>
  <outline>
    <contour>
      <point x="-263" y="-470" type="line"/>
      <point x="579" y="1444" type="line"/>
      <point x="931" y="1444" type="line"/>
      <point x="907" y="1389" type="line"/>
      <point x="669" y="1389" type="line"/>
      <point x="-126" y="-415" type="line"/>
      <point x="113" y="-415" type="line"/>
      <point x="89" y="-470" type="line"/>
    </contour>
  </outline>
</glyph>
<glyph name="bracketright" format="2">
  <advance width="702"/>
  <unicode hex="005D"/>
  <outline>
    <contour>
      <point x="891" y="1444" type="line"/>
      <point x="49" y="-470" type="line"/>
      <point x="-303" y="-470" type="line"/>
      <point x="-279" y="-415" type="line"/>
      <point x="-41" y="-415" type="line"/>
      <point x="754" y="1389" type="line"/>
      <point x="515" y="1389" type="line"/>
      <point x="539" y="1444" type="line"/>
    </contour>
  </outline>
</glyph>
<glyph name="underscore" format="2">
  <advance width="617"/>
  <unicode hex="005F"/>
  <outline>
    <contour>
      <point x="-200" y="-300" type="line"/>
      <point x="-164" y="-225" type="line"/>
      <point x="427" y="-225" type="line"/>
      <point x="391" y="-300" type="line"/>
    </contour>
  </outline>
</glyph>
<glyph name="grave" format="2">
  <advance width="500"/>
  <unicode hex="0060"/>
  <outline>
    <contour>
      <point x="333" y="856" type="line"/>
      <point x="178" y="1050" type="line"/>
      <point x="303" y="1050" type="line"/>
      <point x="381" y="856" type="line"/>
    </contour>
  </outline>
</glyph>
<glyph name="a" format="2">
  <advance width="905"/>
  <unicode hex="0061"/>
  <outline>
    <contour>
      <point x="795" y="665" type="line"/>
      <point x="782" y="639"/>
      <point x="735" y="555"/>
      <point x="681" y="454"/>
      <point x="626" y="344"/>
      <point x="581" y="239"/>
      <point x="552" y="146"/>
      <point x="552" y="114" type="qcurve" smooth="yes"/>
      <point x="552" y="82"/>
      <point x="577" y="63"/>
      <point x="597" y="63" type="qcurve" smooth="yes"/>
      <point x="626" y="63"/>
      <point x="687" y="97"/>
      <point x="746" y="151"/>
      <point x="802" y="219"/>
      <point x="851" y="288"/>
      <point x="891" y="351"/>
      <point x="905" y="373" type="qcurve"/>
      <point x="941" y="345" type="line"/>
      <point x="924" y="313"/>
      <point x="878" y="239"/>
      <point x="823" y="164"/>
      <point x="759" y="94"/>
      <point x="688" y="40"/>
      <point x="610" y="8"/>
      <point x="569" y="8" type="qcurve" smooth="yes"/>
      <point x="509" y="8"/>
      <point x="453" y="80"/>
      <point x="453" y="137" type="qcurve" smooth="yes"/>
      <point x="453" y="141"/>
      <point x="454" y="168"/>
      <point x="456" y="176" type="qcurve"/>
      <point x="406" y="113"/>
      <point x="315" y="31"/>
      <point x="230" y="-17"/>
      <point x="151" y="-36"/>
      <point x="115" y="-36" type="qcurve" smooth="yes"/>
      <point x="77" y="-36"/>
      <point x="10" y="-11"/>
      <point x="-41" y="37"/>
      <point x="-70" y="107"/>
      <point x="-70" y="153" type="qcurve" smooth="yes"/>
      <point x="-70" y="210"/>
      <point x="-19" y="357"/>
      <point x="46" y="442" type="qcurve" smooth="yes"/>
      <point x="101" y="515"/>
      <point x="220" y="615"/>
      <point x="335" y="676"/>
      <point x="439" y="702"/>
      <point x="480" y="702" type="qcurve" smooth="yes"/>
      <point x="572" y="702"/>
      <point x="666" y="641"/>
      <point x="676" y="578" type="qcurve"/>
      <point x="696" y="603"/>
      <point x="740" y="653"/>
      <point x="763" y="679" type="qcurve"/>
    </contour>
    <contour>
      <point x="488" y="285" type="qcurve" smooth="yes"/>
      <point x="501" y="306"/>
      <point x="539" y="371"/>
      <point x="581" y="440"/>
      <point x="621" y="504"/>
      <point x="636" y="526" type="qcurve"/>
      <point x="636" y="535"/>
      <point x="631" y="575"/>
      <point x="609" y="616"/>
      <point x="561" y="646"/>
      <point x="518" y="646" type="qcurve" smooth="yes"/>
      <point x="487" y="646"/>
      <point x="410" y="627"/>
      <point x="323" y="582"/>
      <point x="231" y="508"/>
      <point x="185" y="453" type="qcurve" smooth="yes"/>
      <point x="116" y="370"/>
      <point x="41" y="203"/>
      <point x="41" y="136" type="qcurve" smooth="yes"/>
      <point x="41" y="79"/>
      <point x="93" y="17"/>
      <point x="141" y="17" type="qcurve" smooth="yes"/>
      <point x="196" y="17"/>
      <point x="292" y="66"/>
      <point x="376" y="144"/>
      <point x="452" y="239"/>
    </contour>
  </outline>
</glyph>
<glyph name="b" format="2">
  <advance width="719"/>
  <unicode hex="0062"/>
  <outline>
    <contour>
      <point x="570" y="454" type="qcurve"/>
      <point x="532" y="463"/>
      <point x="477" y="496"/>
      <point x="443" y="538"/>
      <point x="427" y="585"/>
      <point x="427" y="608" type="qcurve" smooth="yes"/>
      <point x="427" y="658"/>
      <point x="483" y="713"/>
      <point x="525" y="713" type="qcurve" smooth="yes"/>
      <point x="553" y="713"/>
      <point x="593" y="684"/>
      <point x="619" y="636"/>
      <point x="631" y="573"/>
      <point x="631" y="539" type="qcurve" smooth="yes"/>
      <point x="631" y="516"/>
      <point x="627" y="471"/>
      <point x="622" y="448" type="qcurve" smooth="yes"/>
      <point x="598" y="340"/>
      <point x="505" y="165"/>
      <point x="388" y="40"/>
      <point x="256" y="-27"/>
      <point x="193" y="-27" type="qcurve" smooth="yes"/>
      <point x="150" y="-27"/>
      <point x="73" y="-3"/>
      <point x="14" y="53"/>
      <point x="-20" y="144"/>
      <point x="-20" y="211" type="qcurve" smooth="yes"/>
      <point x="-20" y="294"/>
      <point x="45" y="524"/>
      <point x="123" y="679" type="qcurve" smooth="yes"/>
      <point x="235" y="896"/>
      <point x="348" y="1068" type="qcurve" smooth="yes"/>
      <point x="396" y="1141"/>
      <point x="502" y="1281"/>
      <point x="609" y="1391"/>
      <point x="714" y="1458"/>
      <point x="761" y="1458" type="qcurve" smooth="yes"/>
      <point x="767" y="1458"/>
      <point x="798" y="1454"/>
      <point x="830" y="1437"/>
      <point x="855" y="1402"/>
      <point x="855" y="1371" type="qcurve" smooth="yes"/>
      <point x="855" y="1334"/>
      <point x="816" y="1221"/>
      <point x="739" y="1084"/>
      <point x="626" y="929"/>
      <point x="479" y="773"/>
      <point x="300" y="623"/>
      <point x="195" y="558" type="qcurve"/>
      <point x="160" y="482"/>
      <point x="113" y="359"/>
      <point x="85" y="260"/>
      <point x="73" y="184"/>
      <point x="73" y="156" type="qcurve" smooth="yes"/>
      <point x="73" y="117"/>
      <point x="94" y="66"/>
      <point x="130" y="37"/>
      <point x="176" y="25"/>
      <point x="201" y="25" type="qcurve" smooth="yes"/>
      <point x="248" y="25"/>
      <point x="337" y="73"/>
      <point x="417" y="150"/>
      <point x="484" y="246"/>
      <point x="534" y="341"/>
      <point x="566" y="426"/>
    </contour>
    <contour>
      <point x="237" y="649" type="qcurve"/>
      <point x="329" y="712"/>
      <point x="484" y="852"/>
      <point x="610" y="993"/>
      <point x="706" y="1128"/>
      <point x="770" y="1246"/>
      <point x="803" y="1339"/>
      <point x="803" y="1368" type="qcurve" smooth="yes"/>
      <point x="803" y="1394"/>
      <point x="784" y="1394" type="qcurve" smooth="yes"/>
      <point x="748" y="1394"/>
      <point x="647" y="1316"/>
      <point x="514" y="1140"/>
      <point x="343" y="856"/>
    </contour>
    <contour>
      <point x="577" y="506" type="qcurve"/>
      <point x="578" y="515"/>
      <point x="579" y="533"/>
      <point x="579" y="541" type="qcurve" smooth="yes"/>
      <point x="579" y="595"/>
      <point x="551" y="661"/>
      <point x="525" y="661" type="qcurve" smooth="yes"/>
      <point x="519" y="661"/>
      <point x="504" y="658"/>
      <point x="489" y="647"/>
      <point x="479" y="627"/>
      <point x="479" y="611" type="qcurve" smooth="yes"/>
      <point x="479" y="570"/>
      <point x="536" y="517"/>
    </contour>
  </outline>
</glyph>
<glyph name="f" format="2">
  <advance width="534"/>
  <unicode hex="0066"/>
  <outline>
    <contour>
      <point x="11" y="71" type="line"/>
      <point x="43" y="46"/>
      <point x="96" y="46" type="qcurve" smooth="yes"/>
      <point x="153" y="46"/>
      <point x="254" y="82"/>
      <point x="342" y="141"/>
      <point x="416" y="213"/>
      <point x="475" y="286"/>
      <point x="520" y="351"/>
      <point x="534" y="373" type="qcurve"/>
      <point x="590" y="373" type="line"/>
      <point x="576" y="349"/>
      <point x="527" y="274"/>
      <point x="460" y="190"/>
      <point x="376" y="105"/>
      <point x="275" y="37"/>
      <point x="161" y="-6"/>
      <point x="97" y="-6" type="qcurve" smooth="yes"/>
      <point x="69" y="-6"/>
      <point x="16" y="7"/>
      <point x="-9" y="21" type="qcurve"/>
      <point x="-42" y="-60"/>
      <point x="-105" y="-216"/>
      <point x="-162" y="-356"/>
      <point x="-210" y="-474"/>
      <point x="-246" y="-561"/>
      <point x="-266" y="-612"/>
      <point x="-267" y="-613" type="qcurve" smooth="yes"/>
      <point x="-372" y="-561" type="line"/>
      <point x="-321" y="-441"/>
      <point x="-240" y="-241"/>
      <point x="-171" y="-67"/>
      <point x="-110" y="86"/>
      <point x="-79" y="158" type="qcurve"/>
      <point x="-95" y="181"/>
      <point x="-110" y="225"/>
      <point x="-112" y="239" type="qcurve" smooth="yes"/>
      <point x="-114" y="262"/>
      <point x="-85" y="293"/>
      <point x="-62" y="293" type="qcurve" smooth="yes"/>
      <point x="-43" y="293"/>
      <point x="-27" y="280" type="qcurve"/>
      <point x="3" y="352"/>
      <point x="50" y="461"/>
      <point x="66" y="498" type="qcurve" smooth="yes"/>
      <point x="84" y="541"/>
      <point x="98" y="573" type="qcurve" smooth="yes"/>
      <point x="185" y="778"/>
      <point x="334" y="1077"/>
      <point x="460" y="1286"/>
      <point x="564" y="1415"/>
      <point x="649" y="1487"/>
      <point x="717" y="1512"/>
      <point x="744" y="1512" type="qcurve" smooth="yes"/>
      <point x="788" y="1512"/>
      <point x="849" y="1473"/>
      <point x="853" y="1426" type="qcurve" smooth="yes"/>
      <point x="857" y="1380"/>
      <point x="816" y="1240"/>
      <point x="745" y="1083"/>
      <point x="651" y="923"/>
      <point x="602" y="856" type="qcurve" smooth="yes"/>
      <point x="509" y="730"/>
      <point x="358" y="564"/>
      <point x="244" y="462"/>
      <point x="168" y="413"/>
      <point x="150" y="404" type="qcurve"/>
    </contour>
    <contour>
      <point x="791" y="1411" type="qcurve" smooth="yes"/>
      <point x="790" y="1428"/>
      <point x="777" y="1453"/>
      <point x="757" y="1453" type="qcurve" smooth="yes"/>
      <point x="745" y="1453"/>
      <point x="707" y="1442"/>
      <point x="656" y="1406"/>
      <point x="592" y="1336"/>
      <point x="513" y="1218"/>
      <point x="420" y="1044"/>
      <point x="367" y="921" type="qcurve" smooth="yes"/>
      <point x="332" y="843"/>
      <point x="240" y="620"/>
      <point x="185" y="490" type="qcurve"/>
      <point x="232" y="523"/>
      <point x="335" y="622"/>
      <point x="440" y="741"/>
      <point x="542" y="875"/>
      <point x="634" y="1013"/>
      <point x="711" y="1149"/>
      <point x="766" y="1272"/>
      <point x="794" y="1375"/>
    </contour>
  </outline>
</glyph>
<glyph name="j" format="2">
  <advance width="549"/>
  <unicode hex="006A"/>
  <outline>
    <contour>
      <point x="426" y="662" type="line"/>
      <point x="387" y="591"/>
      <point x="303" y="422"/>
      <point x="218" y="240"/>
      <point x="133" y="52"/>
      <point x="92" y="-38" type="qcurve"/>
      <point x="186" y="14"/>
      <point x="329" y="118"/>
      <point x="437" y="221"/>
      <point x="517" y="323"/>
      <point x="549" y="373" type="qcurve"/>
      <point x="585" y="345" type="line"/>
      <point x="540" y="277"/>
      <point x="437" y="156"/>
      <point x="309" y="42"/>
      <point x="150" y="-70"/>
      <point x="51" y="-129" type="qcurve"/>
      <point x="15" y="-208"/>
      <point x="-51" y="-347"/>
      <point x="-80" y="-403" type="qcurve" smooth="yes"/>
      <point x="-130" y="-498"/>
      <point x="-250" y="-664"/>
      <point x="-375" y="-787"/>
      <point x="-497" y="-858"/>
      <point x="-549" y="-858" type="qcurve" smooth="yes"/>
      <point x="-570" y="-858"/>
      <point x="-609" y="-844"/>
      <point x="-641" y="-816"/>
      <point x="-660" y="-771"/>
      <point x="-660" y="-739" type="qcurve" smooth="yes"/>
      <point x="-660" y="-655"/>
      <point x="-579" y="-491"/>
      <point x="-426" y="-334"/>
      <point x="-203" y="-185"/>
      <point x="-61" y="-117" type="qcurve"/>
      <point x="-28" y="-49"/>
      <point x="28" y="69"/>
      <point x="86" y="183"/>
      <point x="149" y="298"/>
      <point x="228" y="430"/>
      <point x="327" y="584"/>
      <point x="392" y="679" type="qcurve"/>
    </contour>
    <contour>
      <point x="-546" y="-805" type="qcurve" smooth="yes"/>
      <point x="-494" y="-805"/>
      <point x="-393" y="-721"/>
      <point x="-288" y="-567"/>
      <point x="-175" y="-352"/>
      <point x="-111" y="-221" type="qcurve"/>
      <point x="-154" y="-244" type="line" smooth="yes"/>
      <point x="-258" y="-300"/>
      <point x="-425" y="-437"/>
      <point x="-541" y="-575"/>
      <point x="-603" y="-701"/>
      <point x="-603" y="-744" type="qcurve" smooth="yes"/>
      <point x="-603" y="-770"/>
      <point x="-576" y="-805"/>
    </contour>
    <contour>
      <point x="565" y="835" type="qcurve" smooth="yes"/>
      <point x="545" y="806"/>
      <point x="497" y="768"/>
      <point x="476" y="768" type="qcurve" smooth="yes"/>
      <point x="459" y="768"/>
      <point x="441" y="793"/>
      <point x="441" y="810" type="qcurve" smooth="yes"/>
      <point x="441" y="826"/>
      <point x="455" y="870"/>
      <point x="480" y="910"/>
      <point x="514" y="938"/>
      <point x="533" y="938" type="qcurve" smooth="yes"/>
      <point x="555" y="938"/>
      <point x="584" y="906"/>
      <point x="584" y="888" type="qcurve" smooth="yes"/>
      <point x="584" y="863"/>
    </contour>
  </outline>
</glyph>
<glyph name="k" format="2">
  <advance width="863"/>
  <unicode hex="006B"/>
  <outline>
    <contour>
      <point x="120" y="351" type="line"/>
      <point x="172" y="423"/>
      <point x="289" y="556"/>
      <point x="409" y="659"/>
      <point x="531" y="721"/>
      <point x="589" y="721" type="qcurve" smooth="yes"/>
      <point x="625" y="721"/>
      <point x="671" y="699"/>
      <point x="698" y="665"/>
      <point x="709" y="622"/>
      <point x="709" y="601" type="qcurve" smooth="yes"/>
      <point x="709" y="571"/>
      <point x="686" y="501"/>
      <point x="639" y="430"/>
      <point x="567" y="365"/>
      <point x="517" y="339" type="qcurve"/>
      <point x="528" y="313"/>
      <point x="528" y="276" type="qcurve" smooth="yes"/>
      <point x="528" y="253"/>
      <point x="516" y="206"/>
      <point x="502" y="160"/>
      <point x="490" y="113"/>
      <point x="490" y="89" type="qcurve" smooth="yes"/>
      <point x="490" y="77"/>
      <point x="493" y="55"/>
      <point x="502" y="37"/>
      <point x="521" y="26"/>
      <point x="538" y="26" type="qcurve" smooth="yes"/>
      <point x="558" y="26"/>
      <point x="610" y="59"/>
      <point x="668" y="113"/>
      <point x="729" y="184"/>
      <point x="787" y="262"/>
      <point x="841" y="339"/>
      <point x="863" y="373" type="qcurve"/>
      <point x="900" y="345" type="line"/>
      <point x="849" y="269"/>
      <point x="752" y="131"/>
      <point x="655" y="27"/>
      <point x="555" y="-35"/>
      <point x="502" y="-35" type="qcurve" smooth="yes"/>
      <point x="481" y="-35"/>
      <point x="436" y="-23"/>
      <point x="399" y="4"/>
      <point x="375" y="48"/>
      <point x="375" y="80" type="qcurve" smooth="yes"/>
      <point x="375" y="118"/>
      <point x="394" y="169" type="qcurve" smooth="yes"/>
      <point x="411" y="217"/>
      <point x="427" y="282"/>
      <point x="428" y="304" type="qcurve"/>
      <point x="407" y="299"/>
      <point x="360" y="291"/>
      <point x="339" y="291" type="qcurve" smooth="yes"/>
      <point x="328" y="291"/>
      <point x="302" y="296"/>
      <point x="280" y="308"/>
      <point x="265" y="327"/>
      <point x="265" y="342" type="qcurve" smooth="yes"/>
      <point x="265" y="357"/>
      <point x="284" y="384"/>
      <point x="317" y="405"/>
      <point x="363" y="417"/>
      <point x="391" y="417" type="qcurve" smooth="yes"/>
      <point x="443" y="417"/>
      <point x="480" y="389" type="qcurve"/>
      <point x="516" y="417"/>
      <point x="563" y="483"/>
      <point x="589" y="545"/>
      <point x="599" y="594"/>
      <point x="599" y="606" type="qcurve" smooth="yes"/>
      <point x="599" y="639"/>
      <point x="575" y="664"/>
      <point x="558" y="664" type="qcurve" smooth="yes"/>
      <point x="526" y="664"/>
      <point x="447" y="622"/>
      <point x="362" y="550"/>
      <point x="273" y="456"/>
      <point x="188" y="352"/>
      <point x="109" y="246"/>
      <point x="76" y="199" type="qcurve"/>
      <point x="46" y="149"/>
      <point x="-1" y="63"/>
      <point x="-33" y="1"/>
      <point x="-51" y="-31"/>
      <point x="-52" y="-26" type="qcurve"/>
      <point x="-151" y="0" type="line"/>
      <point x="-33" y="269"/>
      <point x="209" y="807"/>
      <point x="343" y="1082" type="qcurve" smooth="yes"/>
      <point x="363" y="1122"/>
      <point x="414" y="1217"/>
      <point x="473" y="1312"/>
      <point x="540" y="1402"/>
      <point x="611" y="1471"/>
      <point x="685" y="1512"/>
      <point x="722" y="1512" type="qcurve" smooth="yes"/>
      <point x="761" y="1512"/>
      <point x="810" y="1468"/>
      <point x="810" y="1420" type="qcurve" smooth="yes"/>
      <point x="810" y="1354"/>
      <point x="739" y="1165"/>
      <point x="599" y="953"/>
      <point x="390" y="736"/>
      <point x="251" y="643" type="qcurve"/>
    </contour>
    <contour>
      <point x="295" y="739" type="qcurve"/>
      <point x="416" y="833"/>
      <point x="591" y="1032"/>
      <point x="704" y="1216"/>
      <point x="757" y="1373"/>
      <point x="757" y="1426" type="qcurve" smooth="yes"/>
      <point x="757" y="1441"/>
      <point x="741" y="1459"/>
      <point x="724" y="1459" type="qcurve" smooth="yes"/>
      <point x="687" y="1459"/>
      <point x="609" y="1386"/>
      <point x="510" y="1218"/>
      <point x="382" y="942"/>
    </contour>
    <contour>
      <point x="423" y="349" type="qcurve"/>
      <point x="418" y="360"/>
      <point x="395" y="377"/>
      <point x="381" y="377" type="qcurve" smooth="yes"/>
      <point x="352" y="377"/>
      <point x="308" y="353"/>
      <point x="308" y="342" type="qcurve" smooth="yes"/>
      <point x="308" y="334"/>
      <point x="327" y="329"/>
      <point x="335" y="329" type="qcurve" smooth="yes"/>
      <point x="361" y="329"/>
      <point x="405" y="341"/>
    </contour>
  </outline>
</glyph>
<glyph name="m" format="2">
  <advance width="1342"/>
  <unicode hex="006D"/>
  <outline>
    <contour>
      <point x="832" y="544" type="qcurve"/>
      <point x="861" y="578"/>
      <point x="923" y="636"/>
      <point x="985" y="678"/>
      <point x="1046" y="701"/>
      <point x="1074" y="701" type="qcurve" smooth="yes"/>
      <point x="1096" y="701"/>
      <point x="1139" y="686"/>
      <point x="1173" y="655"/>
      <point x="1193" y="607"/>
      <point x="1193" y="574" type="qcurve" smooth="yes"/>
      <point x="1193" y="526"/>
      <point x="1167" y="433"/>
      <point x="1127" y="345"/>
      <point x="1082" y="263"/>
      <point x="1042" y="188"/>
      <point x="1016" y="121"/>
      <point x="1016" y="93" type="qcurve" smooth="yes"/>
      <point x="1016" y="71"/>
      <point x="1039" y="52"/>
      <point x="1052" y="52" type="qcurve" smooth="yes"/>
      <point x="1078" y="52"/>
      <point x="1149" y="112"/>
      <point x="1227" y="206"/>
      <point x="1306" y="319"/>
      <point x="1342" y="373" type="qcurve"/>
      <point x="1378" y="345" type="line"/>
      <point x="1365" y="324"/>
      <point x="1324" y="255"/>
      <point x="1270" y="176"/>
      <point x="1206" y="95"/>
      <point x="1135" y="30"/>
      <point x="1059" y="-11"/>
      <point x="1021" y="-11" type="qcurve" smooth="yes"/>
      <point x="1000" y="-11"/>
      <point x="961" y="1"/>
      <point x="931" y="28"/>
      <point x="913" y="72"/>
      <point x="913" y="104" type="qcurve" smooth="yes"/>
      <point x="913" y="148"/>
      <point x="943" y="232"/>
      <point x="989" y="314"/>
      <point x="1042" y="395"/>
      <point x="1088" y="475"/>
      <point x="1118" y="556"/>
      <point x="1118" y="598" type="qcurve" smooth="yes"/>
      <point x="1118" y="619"/>
      <point x="1102" y="644"/>
      <point x="1080" y="644" type="qcurve" smooth="yes"/>
      <point x="1045" y="644"/>
      <point x="967" y="587"/>
      <point x="883" y="491"/>
      <point x="795" y="364"/>
      <point x="708" y="223"/>
      <point x="623" y="78"/>
      <point x="584" y="11" type="qcurve"/>
      <point x="500" y="55" type="line"/>
      <point x="553" y="164"/>
      <point x="646" y="336"/>
      <point x="716" y="475"/>
      <point x="756" y="590"/>
      <point x="756" y="641" type="qcurve" smooth="yes"/>
      <point x="756" y="651"/>
      <point x="752" y="672"/>
      <point x="740" y="688"/>
      <point x="721" y="699"/>
      <point x="706" y="699" type="qcurve" smooth="yes"/>
      <point x="672" y="699"/>
      <point x="602" y="636"/>
      <point x="524" y="527"/>
      <point x="435" y="382"/>
      <point x="332" y="220"/>
      <point x="212" y="49"/>
      <point x="141" y="-31" type="qcurve"/>
      <point x="72" y="15" type="line"/>
      <point x="104" y="63"/>
      <point x="175" y="170"/>
      <point x="244" y="280"/>
      <point x="307" y="389"/>
      <point x="355" y="487"/>
      <point x="383" y="569"/>
      <point x="383" y="598" type="qcurve" smooth="yes"/>
      <point x="383" y="632"/>
      <point x="349" y="662"/>
      <point x="322" y="662" type="qcurve" smooth="yes"/>
      <point x="290" y="662"/>
      <point x="229" y="616"/>
      <point x="162" y="532"/>
      <point x="85" y="415"/>
      <point x="36" y="345" type="qcurve"/>
      <point x="0" y="373" type="line"/>
      <point x="53" y="457"/>
      <point x="138" y="585"/>
      <point x="214" y="671"/>
      <point x="289" y="715"/>
      <point x="333" y="715" type="qcurve" smooth="yes"/>
      <point x="346" y="715"/>
      <point x="387" y="705"/>
      <point x="427" y="679"/>
      <point x="458" y="633"/>
      <point x="461" y="597" type="qcurve"/>
      <point x="517" y="669"/>
      <point x="639" y="755"/>
      <point x="693" y="755" type="qcurve" smooth="yes"/>
      <point x="732" y="755"/>
      <point x="786" y="724"/>
      <point x="819" y="674"/>
      <point x="834" y="611"/>
      <point x="834" y="579" type="qcurve" smooth="yes"/>
      <point x="834" y="571"/>
      <point x="833" y="553"/>
    </contour>
  </outline>
</glyph>
<glyph name="n" format="2">
  <advance width="1027"/>
  <unicode hex="006E"/>
  <outline>
    <contour>
      <point x="835" y="519" type="qcurve" smooth="yes"/>
      <point x="835" y="476"/>
      <point x="805" y="387"/>
      <point x="759" y="298"/>
      <point x="707" y="212"/>
      <point x="661" y="132"/>
      <point x="631" y="59"/>
      <point x="631" y="29" type="qcurve" smooth="yes"/>
      <point x="631" y="6"/>
      <point x="651" y="-10"/>
      <point x="663" y="-10" type="qcurve" smooth="yes"/>
      <point x="701" y="-10"/>
      <point x="795" y="65"/>
      <point x="892" y="179"/>
      <point x="988" y="313"/>
      <point x="1027" y="373" type="qcurve"/>
      <point x="1063" y="345" type="line"/>
      <point x="1055" y="333"/>
      <point x="1013" y="262"/>
      <point x="951" y="171"/>
      <point x="874" y="72"/>
      <point x="786" y="-11"/>
      <point x="693" y="-65"/>
      <point x="646" y="-65" type="qcurve" smooth="yes"/>
      <point x="619" y="-65"/>
      <point x="575" y="-47"/>
      <point x="544" y="-15"/>
      <point x="526" y="28"/>
      <point x="526" y="52" type="qcurve" smooth="yes"/>
      <point x="526" y="91"/>
      <point x="561" y="182"/>
      <point x="613" y="278"/>
      <point x="675" y="375"/>
      <point x="727" y="463"/>
      <point x="762" y="538"/>
      <point x="762" y="565" type="qcurve" smooth="yes"/>
      <point x="762" y="596"/>
      <point x="729" y="638"/>
      <point x="699" y="638" type="qcurve" smooth="yes"/>
      <point x="667" y="638"/>
      <point x="583" y="585"/>
      <point x="479" y="483"/>
      <point x="356" y="334"/>
      <point x="284" y="239" type="qcurve" smooth="yes"/>
      <point x="243" y="184"/>
      <point x="204" y="133" type="qcurve" smooth="yes"/>
      <point x="187" y="111"/>
      <point x="153" y="65"/>
      <point x="119" y="20"/>
      <point x="89" y="-21"/>
      <point x="77" y="-36" type="qcurve"/>
      <point x="-11" y="0" type="line"/>
      <point x="106" y="161" type="line" smooth="yes"/>
      <point x="131" y="195"/>
      <point x="183" y="273"/>
      <point x="234" y="356"/>
      <point x="280" y="440"/>
      <point x="300" y="480" type="qcurve" smooth="yes"/>
      <point x="329" y="540"/>
      <point x="351" y="619"/>
      <point x="351" y="643" type="qcurve" smooth="yes"/>
      <point x="351" y="670"/>
      <point x="331" y="687"/>
      <point x="313" y="687" type="qcurve" smooth="yes"/>
      <point x="294" y="687"/>
      <point x="245" y="648"/>
      <point x="193" y="587"/>
      <point x="140" y="510"/>
      <point x="92" y="434"/>
      <point x="50" y="366"/>
      <point x="36" y="345" type="qcurve"/>
      <point x="0" y="373" type="line"/>
      <point x="51" y="453"/>
      <point x="134" y="586"/>
      <point x="211" y="682"/>
      <point x="284" y="735"/>
      <point x="325" y="735" type="qcurve" smooth="yes"/>
      <point x="347" y="735"/>
      <point x="388" y="717"/>
      <point x="419" y="682"/>
      <point x="437" y="632"/>
      <point x="437" y="599" type="qcurve" smooth="yes"/>
      <point x="437" y="573"/>
      <point x="431" y="545" type="qcurve"/>
      <point x="475" y="588"/>
      <point x="551" y="644"/>
      <point x="615" y="677"/>
      <point x="669" y="691"/>
      <point x="691" y="691" type="qcurve" smooth="yes"/>
      <point x="710" y="691"/>
      <point x="760" y="677"/>
      <point x="804" y="639"/>
      <point x="835" y="572"/>
    </contour>
  </outline>
</glyph>
<glyph name="q" format="2">
  <advance width="914"/>
  <unicode hex="0071"/>
  <outline>
    <contour>
      <point x="707" y="596" type="qcurve"/>
      <point x="717" y="612"/>
      <point x="740" y="649"/>
      <point x="749" y="663" type="qcurve"/>
      <point x="784" y="648" type="line"/>
      <point x="783" y="647"/>
      <point x="759" y="594"/>
      <point x="717" y="505"/>
      <point x="660" y="384"/>
      <point x="596" y="246"/>
      <point x="526" y="96"/>
      <point x="492" y="22" type="qcurve"/>
      <point x="494" y="23"/>
      <point x="539" y="45"/>
      <point x="608" y="87"/>
      <point x="696" y="148"/>
      <point x="789" y="225"/>
      <point x="878" y="319"/>
      <point x="914" y="373" type="qcurve"/>
      <point x="950" y="345" type="line"/>
      <point x="895" y="261"/>
      <point x="770" y="136"/>
      <point x="654" y="48"/>
      <point x="560" y="-5"/>
      <point x="536" y="-16" type="qcurve"/>
      <point x="538" y="-45"/>
      <point x="541" y="-105"/>
      <point x="541" y="-135" type="qcurve" smooth="yes"/>
      <point x="541" y="-226"/>
      <point x="520" y="-407"/>
      <point x="481" y="-572"/>
      <point x="427" y="-714"/>
      <point x="361" y="-818"/>
      <point x="285" y="-878"/>
      <point x="244" y="-878" type="qcurve" smooth="yes"/>
      <point x="199" y="-878"/>
      <point x="137" y="-847"/>
      <point x="98" y="-796"/>
      <point x="80" y="-729"/>
      <point x="80" y="-693" type="qcurve" smooth="yes"/>
      <point x="80" y="-635"/>
      <point x="122" y="-492"/>
      <point x="200" y="-313"/>
      <point x="309" y="-91"/>
      <point x="376" y="46" type="qcurve"/>
      <point x="322" y="4"/>
      <point x="209" y="-44"/>
      <point x="146" y="-44" type="qcurve" smooth="yes"/>
      <point x="114" y="-44"/>
      <point x="39" y="-22"/>
      <point x="-26" y="27"/>
      <point x="-70" y="105"/>
      <point x="-70" y="162" type="qcurve" smooth="yes"/>
      <point x="-70" y="223"/>
      <point x="-26" y="351"/>
      <point x="51" y="473"/>
      <point x="157" y="581"/>
      <point x="282" y="662"/>
      <point x="420" y="709"/>
      <point x="491" y="709" type="qcurve" smooth="yes"/>
      <point x="547" y="709"/>
      <point x="622" y="688"/>
      <point x="671" y="655"/>
      <point x="698" y="615"/>
    </contour>
    <contour>
      <point x="667" y="544" type="qcurve"/>
      <point x="664" y="562"/>
      <point x="651" y="598"/>
      <point x="624" y="627"/>
      <point x="579" y="645"/>
      <point x="543" y="645" type="qcurve" smooth="yes"/>
      <point x="484" y="645"/>
      <point x="363" y="602"/>
      <point x="251" y="527"/>
      <point x="153" y="428"/>
      <point x="81" y="316"/>
      <point x="39" y="197"/>
      <point x="39" y="140" type="qcurve" smooth="yes"/>
      <point x="39" y="77"/>
      <point x="101" y="9"/>
      <point x="159" y="9" type="qcurve" smooth="yes"/>
      <point x="222" y="9"/>
      <point x="364" y="80"/>
      <point x="433" y="148" type="qcurve"/>
      <point x="491" y="247"/>
      <point x="608" y="448"/>
    </contour>
    <contour>
      <point x="482" y="0" type="qcurve"/>
      <point x="430" y="-108"/>
      <point x="329" y="-315"/>
      <point x="285" y="-403" type="qcurve" smooth="yes"/>
      <point x="234" y="-503"/>
      <point x="182" y="-673"/>
      <point x="182" y="-731" type="qcurve" smooth="yes"/>
      <point x="182" y="-749"/>
      <point x="188" y="-782"/>
      <point x="201" y="-809"/>
      <point x="222" y="-825"/>
      <point x="237" y="-825" type="qcurve" smooth="yes"/>
      <point x="269" y="-825"/>
      <point x="331" y="-758"/>
      <point x="386" y="-646"/>
      <point x="434" y="-499"/>
      <point x="468" y="-339"/>
      <point x="488" y="-177"/>
      <point x="488" y="-105" type="qcurve" smooth="yes"/>
      <point x="488" y="-79"/>
      <point x="484" y="-28"/>
    </contour>
  </outline>
</glyph>
<glyph name="r" format="2">
  <advance width="594"/>
  <unicode hex="0072"/>
  <outline>
    <contour>
      <point x="631" y="345" type="line"/>
      <point x="616" y="323"/>
      <point x="575" y="248"/>
      <point x="521" y="161"/>
      <point x="456" y="71"/>
      <point x="379" y="-1"/>
      <point x="289" y="-47"/>
      <point x="238" y="-47" type="qcurve" smooth="yes"/>
      <point x="210" y="-47"/>
      <point x="160" y="-30"/>
      <point x="122" y="6"/>
      <point x="100" y="59"/>
      <point x="100" y="95" type="qcurve" smooth="yes"/>
      <point x="100" y="144"/>
      <point x="139" y="251"/>
      <point x="191" y="351"/>
      <point x="243" y="434"/>
      <point x="255" y="459" type="qcurve" smooth="yes"/>
      <point x="267" y="484"/>
      <point x="267" y="502" type="qcurve" smooth="yes"/>
      <point x="267" y="515"/>
      <point x="250" y="535"/>
      <point x="225" y="554"/>
      <point x="198" y="575"/>
      <point x="189" y="590" type="qcurve"/>
      <point x="164" y="550"/>
      <point x="138" y="509" type="qcurve" smooth="yes"/>
      <point x="115" y="474"/>
      <point x="61" y="387"/>
      <point x="36" y="345" type="qcurve"/>
      <point x="0" y="373" type="line"/>
      <point x="214" y="708" type="line"/>
      <point x="243" y="693" type="line"/>
      <point x="241" y="687"/>
      <point x="232" y="661"/>
      <point x="232" y="646" type="qcurve" smooth="yes"/>
      <point x="232" y="635"/>
      <point x="239" y="614"/>
      <point x="250" y="605" type="qcurve" smooth="yes"/>
      <point x="290" y="569"/>
      <point x="336" y="530"/>
      <point x="357" y="507"/>
      <point x="362" y="492"/>
      <point x="362" y="480" type="qcurve" smooth="yes"/>
      <point x="362" y="468"/>
      <point x="354" y="434"/>
      <point x="335" y="386"/>
      <point x="302" y="321"/>
      <point x="277" y="278" type="qcurve" smooth="yes"/>
      <point x="262" y="252"/>
      <point x="233" y="199"/>
      <point x="210" y="145"/>
      <point x="196" y="91"/>
      <point x="196" y="66" type="qcurve" smooth="yes"/>
      <point x="196" y="47"/>
      <point x="207" y="24"/>
      <point x="225" y="12"/>
      <point x="246" y="8"/>
      <point x="256" y="8" type="qcurve" smooth="yes"/>
      <point x="289" y="8"/>
      <point x="354" y="47"/>
      <point x="417" y="109"/>
      <point x="476" y="188"/>
      <point x="530" y="270"/>
      <point x="576" y="345"/>
      <point x="594" y="373" type="qcurve"/>
    </contour>
  </outline>
</glyph>
<glyph name="s" format="2">
  <advance width="560"/>
  <unicode hex="0073"/>
  <outline>
    <contour>
      <point x="321" y="785" type="line"/>
      <point x="316" y="776"/>
      <point x="300" y="755"/>
      <point x="285" y="728"/>
      <point x="274" y="692"/>
      <point x="274" y="667" type="qcurve" smooth="yes"/>
      <point x="274" y="646"/>
      <point x="295" y="574"/>
      <point x="319" y="481"/>
      <point x="340" y="372"/>
      <point x="340" y="314" type="qcurve" smooth="yes"/>
      <point x="340" y="229"/>
      <point x="294" y="99"/>
      <point x="256" y="53" type="qcurve"/>
      <point x="334" y="95"/>
      <point x="484" y="252"/>
      <point x="560" y="373" type="qcurve"/>
      <point x="594" y="343" type="line"/>
      <point x="551" y="272"/>
      <point x="442" y="133"/>
      <point x="312" y="22"/>
      <point x="162" y="-47"/>
      <point x="78" y="-47" type="qcurve" smooth="yes"/>
      <point x="3" y="-47"/>
      <point x="-100" y="24"/>
      <point x="-112" y="95" type="qcurve"/>
      <point x="-76" y="102" type="line"/>
      <point x="-76" y="96"/>
      <point x="-65" y="69"/>
      <point x="-41" y="43"/>
      <point x="0" y="23"/>
      <point x="30" y="23" type="qcurve" smooth="yes"/>
      <point x="70" y="23"/>
      <point x="132" y="60"/>
      <point x="178" y="120"/>
      <point x="210" y="197"/>
      <point x="229" y="279"/>
      <point x="237" y="357"/>
      <point x="237" y="389" type="qcurve" smooth="yes"/>
      <point x="237" y="421"/>
      <point x="232" y="499"/>
      <point x="226" y="570"/>
      <point x="221" y="623"/>
      <point x="221" y="631" type="qcurve" smooth="yes"/>
      <point x="221" y="633" type="line"/>
      <point x="208" y="619"/>
      <point x="172" y="565"/>
      <point x="131" y="501"/>
      <point x="90" y="435"/>
      <point x="57" y="381"/>
      <point x="36" y="346"/>
      <point x="36" y="345" type="qcurve"/>
      <point x="0" y="373" type="line"/>
      <point x="1" y="374"/>
      <point x="49" y="458"/>
      <point x="128" y="587"/>
      <point x="228" y="744"/>
      <point x="281" y="818" type="qcurve"/>
      <point x="321" y="785" type="line"/>
    </contour>
  </outline>
</glyph>
<glyph name="t" format="2">
  <advance width="546"/>
  <unicode hex="0074"/>
  <outline>
    <contour>
      <point x="203" y="825" type="line"/>
      <point x="213" y="842"/>
      <point x="264" y="926"/>
      <point x="333" y="1028"/>
      <point x="414" y="1131"/>
      <point x="453" y="1167" type="qcurve"/>
      <point x="498" y="1140" type="line"/>
      <point x="455" y="1069"/>
      <point x="365" y="910"/>
      <point x="321" y="825" type="qcurve"/>
      <point x="647" y="825" type="line"/>
      <point x="627" y="773" type="line"/>
      <point x="294" y="773" type="line"/>
      <point x="249" y="683"/>
      <point x="170" y="505"/>
      <point x="110" y="343"/>
      <point x="76" y="202"/>
      <point x="76" y="150" type="qcurve" smooth="yes"/>
      <point x="76" y="85"/>
      <point x="136" y="28"/>
      <point x="180" y="28" type="qcurve" smooth="yes"/>
      <point x="219" y="28"/>
      <point x="301" y="75"/>
      <point x="380" y="147"/>
      <point x="451" y="233"/>
      <point x="506" y="309"/>
      <point x="542" y="366"/>
      <point x="546" y="373" type="qcurve"/>
      <point x="583" y="345" type="line"/>
      <point x="548" y="287"/>
      <point x="460" y="157"/>
      <point x="353" y="46"/>
      <point x="227" y="-27"/>
      <point x="154" y="-27" type="qcurve" smooth="yes"/>
      <point x="109" y="-27"/>
      <point x="42" y="5"/>
      <point x="-4" y="62"/>
      <point x="-27" y="140"/>
      <point x="-27" y="186" type="qcurve" smooth="yes"/>
      <point x="-27" y="216"/>
      <point x="-8" y="326"/>
      <point x="38" y="477"/>
      <point x="115" y="665"/>
      <point x="174" y="773" type="qcurve"/>
      <point x="8" y="773" type="line"/>
      <point x="28" y="825" type="line"/>
    </contour>
  </outline>
</glyph>
<glyph name="v" format="2">
  <advance width="716"/>
  <unicode hex="0076"/>
  <outline>
    <contour>
      <point x="529" y="383" type="qcurve"/>
      <point x="513" y="418"/>
      <point x="496" y="494"/>
      <point x="496" y="535" type="qcurve" smooth="yes"/>
      <point x="496" y="588"/>
      <point x="515" y="661"/>
      <point x="543" y="706"/>
      <point x="576" y="726"/>
      <point x="591" y="726" type="qcurve" smooth="yes"/>
      <point x="604" y="726"/>
      <point x="627" y="715"/>
      <point x="645" y="689"/>
      <point x="656" y="647"/>
      <point x="656" y="616" type="qcurve" smooth="yes"/>
      <point x="656" y="544"/>
      <point x="599" y="392"/>
      <point x="504" y="250"/>
      <point x="380" y="124"/>
      <point x="314" y="76" type="qcurve" smooth="yes"/>
      <point x="296" y="63"/>
      <point x="249" y="34"/>
      <point x="196" y="9"/>
      <point x="139" y="-8"/>
      <point x="112" y="-8" type="qcurve" smooth="yes"/>
      <point x="45" y="-8"/>
      <point x="-40" y="93"/>
      <point x="-40" y="184" type="qcurve" smooth="yes"/>
      <point x="-40" y="226"/>
      <point x="-16" y="322"/>
      <point x="26" y="423"/>
      <point x="82" y="525"/>
      <point x="145" y="618"/>
      <point x="213" y="700"/>
      <point x="246" y="731" type="qcurve"/>
      <point x="290" y="702" type="line"/>
      <point x="232" y="614"/>
      <point x="148" y="449"/>
      <point x="93" y="303"/>
      <point x="66" y="182"/>
      <point x="66" y="138" type="qcurve" smooth="yes"/>
      <point x="66" y="87"/>
      <point x="93" y="44"/>
      <point x="118" y="44" type="qcurve" smooth="yes"/>
      <point x="142" y="44"/>
      <point x="227" y="79"/>
      <point x="283" y="118" type="qcurve" smooth="yes"/>
      <point x="354" y="168"/>
      <point x="483" y="305"/>
    </contour>
    <contour>
      <point x="561" y="433" type="qcurve"/>
      <point x="581" y="478"/>
      <point x="604" y="575"/>
      <point x="604" y="618" type="qcurve" smooth="yes"/>
      <point x="604" y="648"/>
      <point x="594" y="674"/>
      <point x="591" y="676" type="qcurve" smooth="yes"/>
      <point x="590" y="676"/>
      <point x="576" y="664"/>
      <point x="559" y="633"/>
      <point x="546" y="578"/>
      <point x="546" y="535" type="qcurve" smooth="yes"/>
      <point x="546" y="510"/>
      <point x="553" y="454"/>
    </contour>
  </outline>
</glyph>
<glyph name="w" format="2">
  <advance width="1011"/>
  <unicode hex="0077"/>
  <outline>
    <contour>
      <point x="277" y="665" type="line"/>
      <point x="220" y="578"/>
      <point x="140" y="421"/>
      <point x="88" y="287"/>
      <point x="64" y="177"/>
      <point x="64" y="137" type="qcurve" smooth="yes"/>
      <point x="64" y="45"/>
      <point x="117" y="45" type="qcurve" smooth="yes"/>
      <point x="149" y="45"/>
      <point x="232" y="109"/>
      <point x="318" y="215"/>
      <point x="400" y="353"/>
      <point x="431" y="427" type="qcurve"/>
      <point x="432" y="426" type="line"/>
      <point x="461" y="498"/>
      <point x="530" y="636"/>
      <point x="566" y="693" type="qcurve"/>
      <point x="611" y="665" type="line"/>
      <point x="594" y="618"/>
      <point x="546" y="484"/>
      <point x="503" y="337"/>
      <point x="472" y="191"/>
      <point x="472" y="132" type="qcurve" smooth="yes"/>
      <point x="472" y="115"/>
      <point x="475" y="84"/>
      <point x="483" y="60"/>
      <point x="499" y="46"/>
      <point x="511" y="46" type="qcurve" smooth="yes"/>
      <point x="545" y="46"/>
      <point x="632" y="106"/>
      <point x="719" y="201"/>
      <point x="798" y="316"/>
      <point x="825" y="370" type="qcurve"/>
      <point x="785" y="444"/>
      <point x="785" y="538" type="qcurve" smooth="yes"/>
      <point x="785" y="590"/>
      <point x="804" y="662"/>
      <point x="832" y="707"/>
      <point x="866" y="726"/>
      <point x="880" y="726" type="qcurve" smooth="yes"/>
      <point x="906" y="726"/>
      <point x="945" y="674"/>
      <point x="945" y="607" type="qcurve" smooth="yes"/>
      <point x="945" y="559"/>
      <point x="911" y="436"/>
      <point x="881" y="370" type="qcurve"/>
      <point x="899" y="344"/>
      <point x="951" y="312"/>
      <point x="986" y="311" type="qcurve"/>
      <point x="977" y="263" type="line"/>
      <point x="941" y="265"/>
      <point x="881" y="296"/>
      <point x="858" y="322" type="qcurve"/>
      <point x="825" y="259"/>
      <point x="738" y="140"/>
      <point x="639" y="48"/>
      <point x="531" y="-8"/>
      <point x="476" y="-8" type="qcurve" smooth="yes"/>
      <point x="453" y="-8"/>
      <point x="412" y="10"/>
      <point x="380" y="46"/>
      <point x="362" y="102"/>
      <point x="362" y="140" type="qcurve" smooth="yes"/>
      <point x="362" y="154"/>
      <point x="364" y="186"/>
      <point x="367" y="203" type="qcurve"/>
      <point x="338" y="158"/>
      <point x="277" y="80"/>
      <point x="213" y="24"/>
      <point x="144" y="-8"/>
      <point x="108" y="-8" type="qcurve" smooth="yes"/>
      <point x="69" y="-8"/>
      <point x="13" y="19"/>
      <point x="-23" y="68"/>
      <point x="-40" y="134"/>
      <point x="-40" y="173" type="qcurve" smooth="yes"/>
      <point x="-40" y="242"/>
      <point x="5" y="386"/>
      <point x="81" y="524"/>
      <point x="180" y="646"/>
      <point x="234" y="693" type="qcurve"/>
    </contour>
    <contour>
      <point x="853" y="431" type="qcurve"/>
      <point x="872" y="476"/>
      <point x="892" y="568"/>
      <point x="892" y="612" type="qcurve" smooth="yes"/>
      <point x="892" y="645"/>
      <point x="882" y="673"/>
      <point x="879" y="675" type="qcurve" smooth="yes"/>
      <point x="878" y="675"/>
      <point x="865" y="664"/>
      <point x="849" y="634"/>
      <point x="836" y="581"/>
      <point x="836" y="539" type="qcurve" smooth="yes"/>
      <point x="836" y="510"/>
      <point x="845" y="454"/>
    </contour>
  </outline>
</glyph>
<glyph name="y" format="2">
  <advance width="887"/>
  <unicode hex="0079"/>
  <outline>
    <contour>
      <point x="443" y="223" type="qcurve"/>
      <point x="404" y="180"/>
      <point x="324" y="107"/>
      <point x="246" y="53"/>
      <point x="171" y="22"/>
      <point x="136" y="22" type="qcurve" smooth="yes"/>
      <point x="97" y="22"/>
      <point x="34" y="51"/>
      <point x="-11" y="105"/>
      <point x="-35" y="179"/>
      <point x="-35" y="224" type="qcurve" smooth="yes"/>
      <point x="-35" y="284"/>
      <point x="15" y="414"/>
      <point x="94" y="537"/>
      <point x="191" y="647"/>
      <point x="237" y="687" type="qcurve"/>
      <point x="280" y="657" type="line"/>
      <point x="268" y="640"/>
      <point x="226" y="580"/>
      <point x="178" y="501"/>
      <point x="129" y="409"/>
      <point x="89" y="313"/>
      <point x="64" y="217"/>
      <point x="64" y="175" type="qcurve" smooth="yes"/>
      <point x="64" y="155"/>
      <point x="71" y="118"/>
      <point x="88" y="90"/>
      <point x="116" y="74"/>
      <point x="138" y="74" type="qcurve" smooth="yes"/>
      <point x="173" y="74"/>
      <point x="256" y="117"/>
      <point x="345" y="192"/>
      <point x="438" y="292"/>
      <point x="528" y="406"/>
      <point x="612" y="527"/>
      <point x="648" y="586" type="qcurve" smooth="yes"/>
      <point x="680" y="639"/>
      <point x="744" y="746"/>
      <point x="776" y="797" type="qcurve"/>
      <point x="823" y="773" type="line" smooth="yes"/>
      <point x="822" y="771"/>
      <point x="787" y="700"/>
      <point x="729" y="579"/>
      <point x="652" y="420"/>
      <point x="566" y="241"/>
      <point x="477" y="53"/>
      <point x="435" y="-36" type="qcurve"/>
      <point x="576" y="42"/>
      <point x="805" y="256"/>
      <point x="887" y="373" type="qcurve"/>
      <point x="924" y="345" type="line"/>
      <point x="837" y="212"/>
      <point x="579" y="-13"/>
      <point x="397" y="-116" type="qcurve"/>
      <point x="314" y="-294"/>
      <point x="155" y="-588"/>
      <point x="-4" y="-798"/>
      <point x="-163" y="-913"/>
      <point x="-245" y="-913" type="qcurve" smooth="yes"/>
      <point x="-299" y="-913"/>
      <point x="-371" y="-841"/>
      <point x="-371" y="-774" type="qcurve" smooth="yes"/>
      <point x="-371" y="-718"/>
      <point x="-321" y="-600"/>
      <point x="-233" y="-481"/>
      <point x="-112" y="-364"/>
      <point x="31" y="-256"/>
      <point x="188" y="-158"/>
      <point x="269" y="-117" type="qcurve"/>
      <point x="290" y="-73"/>
      <point x="338" y="24"/>
      <point x="384" y="115"/>
      <point x="427" y="196"/>
    </contour>
    <contour>
      <point x="223" y="-214" type="qcurve"/>
      <point x="108" y="-285"/>
      <point x="-89" y="-446"/>
      <point x="-234" y="-603"/>
      <point x="-316" y="-741"/>
      <point x="-316" y="-789" type="qcurve" smooth="yes"/>
      <point x="-316" y="-821"/>
      <point x="-279" y="-859"/>
      <point x="-250" y="-859" type="qcurve" smooth="yes"/>
      <point x="-211" y="-859"/>
      <point x="-128" y="-806"/>
      <point x="-45" y="-714"/>
      <point x="37" y="-589"/>
      <point x="116" y="-446"/>
      <point x="190" y="-291"/>
    </contour>
  </outline>
</glyph>
<glyph name="braceleft" format="2">
  <advance width="702"/>
  <unicode hex="007B"/>
  <outline>
    <contour>
      <point x="238" y="541" type="qcurve"/>
      <point x="267" y="532"/>
      <point x="302" y="465"/>
      <point x="302" y="428" type="qcurve" smooth="yes"/>
      <point x="302" y="387"/>
      <point x="264" y="281"/>
      <point x="207" y="162"/>
      <point x="140" y="37"/>
      <point x="83" y="-86"/>
      <point x="45" y="-202"/>
      <point x="45" y="-250" type="qcurve" smooth="yes"/>
      <point x="45" y="-280"/>
      <point x="65" y="-339"/>
      <point x="114" y="-386"/>
      <point x="196" y="-415"/>
      <point x="258" y="-415" type="qcurve"/>
      <point x="232" y="-470" type="line"/>
      <point x="148" y="-470"/>
      <point x="34" y="-428"/>
      <point x="-34" y="-362"/>
      <point x="-63" y="-283"/>
      <point x="-63" y="-246" type="qcurve" smooth="yes"/>
      <point x="-63" y="-197"/>
      <point x="-24" y="-77"/>
      <point x="35" y="52"/>
      <point x="103" y="183"/>
      <point x="162" y="303"/>
      <point x="201" y="407"/>
      <point x="201" y="445" type="qcurve" smooth="yes"/>
      <point x="201" y="529"/>
      <point x="127" y="529" type="qcurve" smooth="yes"/>
      <point x="72" y="529" type="line"/>
      <point x="99" y="584" type="line"/>
      <point x="177" y="584" type="line" smooth="yes"/>
      <point x="235" y="584"/>
      <point x="328" y="688"/>
      <point x="404" y="858"/>
      <point x="467" y="1076"/>
      <point x="495" y="1189" type="qcurve" smooth="yes"/>
      <point x="519" y="1285"/>
      <point x="605" y="1389"/>
      <point x="720" y="1436"/>
      <point x="857" y="1444"/>
      <point x="931" y="1444" type="qcurve"/>
      <point x="907" y="1389" type="line"/>
      <point x="857" y="1389"/>
      <point x="762" y="1375"/>
      <point x="681" y="1330"/>
      <point x="618" y="1244"/>
      <point x="600" y="1171" type="qcurve" smooth="yes"/>
      <point x="570" y="1053"/>
      <point x="513" y="843"/>
      <point x="435" y="677"/>
      <point x="323" y="563"/>
    </contour>
  </outline>
</glyph>
<glyph name="braceright" format="2">
  <advance width="702"/>
  <unicode hex="007D"/>
  <outline>
    <contour>
      <point x="370" y="433" type="qcurve"/>
      <point x="341" y="442"/>
      <point x="306" y="509"/>
      <point x="306" y="546" type="qcurve" smooth="yes"/>
      <point x="306" y="587"/>
      <point x="344" y="693"/>
      <point x="401" y="812"/>
      <point x="468" y="937"/>
      <point x="525" y="1060"/>
      <point x="563" y="1175"/>
      <point x="563" y="1224" type="qcurve" smooth="yes"/>
      <point x="563" y="1254"/>
      <point x="543" y="1313"/>
      <point x="494" y="1360"/>
      <point x="412" y="1389"/>
      <point x="350" y="1389" type="qcurve"/>
      <point x="376" y="1444" type="line"/>
      <point x="460" y="1444"/>
      <point x="574" y="1402"/>
      <point x="642" y="1336"/>
      <point x="671" y="1257"/>
      <point x="671" y="1220" type="qcurve" smooth="yes"/>
      <point x="671" y="1171"/>
      <point x="632" y="1051"/>
      <point x="573" y="922"/>
      <point x="505" y="791"/>
      <point x="446" y="671"/>
      <point x="407" y="566"/>
      <point x="407" y="529" type="qcurve" smooth="yes"/>
      <point x="407" y="445"/>
      <point x="481" y="445" type="qcurve" smooth="yes"/>
      <point x="536" y="445" type="line"/>
      <point x="509" y="390" type="line"/>
      <point x="431" y="390" type="line" smooth="yes"/>
      <point x="373" y="390"/>
      <point x="280" y="286"/>
      <point x="204" y="116"/>
      <point x="141" y="-102"/>
      <point x="113" y="-215" type="qcurve" smooth="yes"/>
      <point x="89" y="-311"/>
      <point x="3" y="-415"/>
      <point x="-112" y="-462"/>
      <point x="-249" y="-470"/>
      <point x="-323" y="-470" type="qcurve"/>
      <point x="-299" y="-415" type="line"/>
      <point x="-249" y="-415"/>
      <point x="-155" y="-401"/>
      <point x="-74" y="-356"/>
      <point x="-10" y="-270"/>
      <point x="8" y="-197" type="qcurve" smooth="yes"/>
      <point x="38" y="-79"/>
      <point x="95" y="131"/>
      <point x="173" y="297"/>
      <point x="285" y="411"/>
    </contour>
  </outline>
</glyph>
<glyph name="asciitilde" format="2">
  <advance width="800"/>
  <unicode hex="007E"/>
  <outline>
    <contour>
      <point x="331" y="717" type="qcurve" smooth="yes"/>
      <point x="302" y="717"/>
      <point x="247" y="679"/>
      <point x="224" y="656" type="qcurve" smooth="yes"/>
      <point x="198" y="630"/>
      <point x="174" y="596" type="qcurve"/>
      <point x="130" y="625" type="line"/>
      <point x="157" y="665"/>
      <point x="190" y="698" type="qcurve" smooth="yes"/>
      <point x="218" y="725"/>
      <point x="294" y="771"/>
      <point x="339" y="771" type="qcurve" smooth="yes"/>
      <point x="375" y="771"/>
      <point x="433" y="733"/>
      <point x="484" y="688"/>
      <point x="533" y="650"/>
      <point x="562" y="650" type="qcurve" smooth="yes"/>
      <point x="591" y="650"/>
      <point x="646" y="687"/>
      <point x="669" y="710" type="qcurve" smooth="yes"/>
      <point x="695" y="736"/>
      <point x="719" y="771" type="qcurve"/>
      <point x="763" y="742" type="line"/>
      <point x="736" y="701"/>
      <point x="703" y="669" type="qcurve" smooth="yes"/>
      <point x="674" y="641"/>
      <point x="599" y="596"/>
      <point x="554" y="596" type="qcurve" smooth="yes"/>
      <point x="518" y="596"/>
      <point x="460" y="634"/>
      <point x="409" y="679"/>
      <point x="359" y="717"/>
    </contour>
  </outline>
</glyph>
<glyph name="exclamdown" format="2">
  <advance width="761"/>
  <unicode hex="00A1"/>
  <outline>
    <contour>
      <point x="467" y="770" type="line"/>
      <point x="510" y="753" type="line"/>
      <point x="-43" y="-482" type="line"/>
      <point x="-159" y="-429" type="line"/>
    </contour>
    <contour>
      <point x="506" y="950" type="qcurve" smooth="yes"/>
      <point x="506" y="980"/>
      <point x="549" y="1023"/>
      <point x="580" y="1023" type="qcurve" smooth="yes"/>
      <point x="609" y="1023"/>
      <point x="652" y="980"/>
      <point x="652" y="950" type="qcurve" smooth="yes"/>
      <point x="652" y="921"/>
      <point x="609" y="878"/>
      <point x="580" y="878" type="qcurve" smooth="yes"/>
      <point x="549" y="878"/>
      <point x="506" y="921"/>
    </contour>
  </outline>
</glyph>
<glyph name="yen" format="2">
  <advance width="887"/>
  <unicode hex="00A5"/>
  <outline>
    <contour>
      <point x="550" y="293" type="line"/>
      <point x="485" y="165"/>
      <point x="354" y="-45"/>
      <point x="221" y="-196"/>
      <point x="86" y="-279"/>
      <point x="16" y="-279" type="qcurve" smooth="yes"/>
      <point x="-38" y="-279"/>
      <point x="-110" y="-207"/>
      <point x="-110" y="-140" type="qcurve" smooth="yes"/>
      <point x="-110" y="-65"/>
      <point x="-22" y="96"/>
      <point x="53" y="175" type="qcurve"/>
      <point x="84" y="93" type="line"/>
      <point x="18" y="19"/>
      <point x="-55" y="-110"/>
      <point x="-55" y="-155" type="qcurve" smooth="yes"/>
      <point x="-55" y="-187"/>
      <point x="-18" y="-225"/>
      <point x="11" y="-225" type="qcurve" smooth="yes"/>
      <point x="63" y="-225"/>
      <point x="174" y="-134"/>
      <point x="282" y="13"/>
      <point x="384" y="198"/>
      <point x="428" y="293" type="qcurve"/>
      <point x="72" y="293" type="line"/>
      <point x="99" y="348" type="line"/>
      <point x="453" y="348" type="line"/>
      <point x="498" y="450" type="line"/>
      <point x="139" y="450" type="line"/>
      <point x="166" y="505" type="line"/>
      <point x="524" y="505" type="line"/>
      <point x="545" y="550"/>
      <point x="595" y="650"/>
      <point x="643" y="745"/>
      <point x="687" y="829"/>
      <point x="704" y="857" type="qcurve"/>
      <point x="665" y="814"/>
      <point x="585" y="741"/>
      <point x="507" y="687"/>
      <point x="432" y="656"/>
      <point x="397" y="656" type="qcurve" smooth="yes"/>
      <point x="358" y="656"/>
      <point x="295" y="685"/>
      <point x="250" y="739"/>
      <point x="226" y="813"/>
      <point x="226" y="858" type="qcurve" smooth="yes"/>
      <point x="226" y="918"/>
      <point x="276" y="1048"/>
      <point x="355" y="1171"/>
      <point x="452" y="1281"/>
      <point x="498" y="1321" type="qcurve"/>
      <point x="541" y="1291" type="line"/>
      <point x="529" y="1274"/>
      <point x="487" y="1214"/>
      <point x="439" y="1135"/>
      <point x="390" y="1043"/>
      <point x="350" y="947"/>
      <point x="325" y="851"/>
      <point x="325" y="809" type="qcurve" smooth="yes"/>
      <point x="325" y="789"/>
      <point x="332" y="752"/>
      <point x="349" y="724"/>
      <point x="377" y="708"/>
      <point x="399" y="708" type="qcurve" smooth="yes"/>
      <point x="434" y="708"/>
      <point x="517" y="751"/>
      <point x="606" y="826"/>
      <point x="699" y="926"/>
      <point x="789" y="1040"/>
      <point x="873" y="1161"/>
      <point x="909" y="1220" type="qcurve" smooth="yes"/>
      <point x="941" y="1273"/>
      <point x="1005" y="1380"/>
      <point x="1037" y="1431" type="qcurve"/>
      <point x="1084" y="1407" type="line"/>
      <point x="1083" y="1406"/>
      <point x="1042" y="1321"/>
      <point x="975" y="1182"/>
      <point x="887" y="999"/>
      <point x="792" y="800"/>
      <point x="695" y="596"/>
      <point x="652" y="505" type="qcurve"/>
      <point x="902" y="505" type="line"/>
      <point x="875" y="450" type="line"/>
      <point x="627" y="450" type="line"/>
      <point x="614" y="424"/>
      <point x="590" y="373"/>
      <point x="577" y="348" type="qcurve"/>
      <point x="835" y="348" type="line"/>
      <point x="808" y="293" type="line"/>
    </contour>
  </outline>
</glyph>
<glyph name="section" format="2">
  <advance width="1034"/>
  <unicode hex="00A7"/>
  <outline>
    <contour>
      <point x="688" y="504" type="qcurve" smooth="yes"/>
      <point x="688" y="430"/>
      <point x="658" y="309"/>
      <point x="603" y="215"/>
      <point x="525" y="147"/>
      <point x="478" y="128" type="qcurve"/>
      <point x="489" y="76"/>
      <point x="489" y="43" type="qcurve" smooth="yes"/>
      <point x="489" y="-56"/>
      <point x="435" y="-206"/>
      <point x="341" y="-308"/>
      <point x="213" y="-360"/>
      <point x="138" y="-360" type="qcurve" smooth="yes"/>
      <point x="28" y="-360"/>
      <point x="-127" y="-248"/>
      <point x="-169" y="-151" type="qcurve"/>
      <point x="-119" y="-128" type="line"/>
      <point x="-97" y="-172"/>
      <point x="-47" y="-240"/>
      <point x="15" y="-286"/>
      <point x="91" y="-310"/>
      <point x="140" y="-310" type="qcurve" smooth="yes"/>
      <point x="201" y="-310"/>
      <point x="294" y="-263"/>
      <point x="357" y="-185"/>
      <point x="389" y="-81"/>
      <point x="389" y="-24" type="qcurve" smooth="yes"/>
      <point x="389" y="8"/>
      <point x="372" y="91"/>
      <point x="346" y="185"/>
      <point x="316" y="286"/>
      <point x="290" y="387"/>
      <point x="273" y="485"/>
      <point x="273" y="528" type="qcurve" smooth="yes"/>
      <point x="273" y="613"/>
      <point x="306" y="743"/>
      <point x="364" y="839"/>
      <point x="441" y="902"/>
      <point x="486" y="919" type="qcurve"/>
      <point x="484" y="937"/>
      <point x="482" y="972"/>
      <point x="482" y="989" type="qcurve" smooth="yes"/>
      <point x="482" y="1102"/>
      <point x="540" y="1260"/>
      <point x="635" y="1359"/>
      <point x="756" y="1403"/>
      <point x="820" y="1403" type="qcurve" smooth="yes"/>
      <point x="859" y="1403"/>
      <point x="931" y="1383"/>
      <point x="994" y="1348"/>
      <point x="1045" y="1302"/>
      <point x="1063" y="1275" type="qcurve"/>
      <point x="1019" y="1241" type="line"/>
      <point x="1008" y="1262"/>
      <point x="967" y="1302"/>
      <point x="915" y="1333"/>
      <point x="854" y="1353"/>
      <point x="823" y="1353" type="qcurve" smooth="yes"/>
      <point x="783" y="1353"/>
      <point x="698" y="1326"/>
      <point x="627" y="1258"/>
      <point x="582" y="1141"/>
      <point x="582" y="1051" type="qcurve" smooth="yes"/>
      <point x="582" y="1016"/>
      <point x="598" y="925"/>
      <point x="621" y="825"/>
      <point x="649" y="720"/>
      <point x="672" y="622"/>
      <point x="688" y="536"/>
    </contour>
    <contour>
      <point x="588" y="437" type="qcurve" smooth="yes"/>
      <point x="588" y="474"/>
      <point x="567" y="574"/>
      <point x="538" y="686"/>
      <point x="506" y="805"/>
      <point x="495" y="862" type="qcurve"/>
      <point x="470" y="848"/>
      <point x="425" y="802"/>
      <point x="392" y="736"/>
      <point x="373" y="647"/>
      <point x="373" y="590" type="qcurve" smooth="yes"/>
      <point x="373" y="552"/>
      <point x="392" y="454"/>
      <point x="420" y="346"/>
      <point x="452" y="235"/>
      <point x="465" y="184" type="qcurve"/>
      <point x="526" y="222"/>
      <point x="588" y="356"/>
    </contour>
  </outline>
</glyph>
<glyph name="dieresis" format="2">
  <advance width="500"/>
  <unicode hex="00A8"/>
  <outline>
    <contour>
      <point x="499" y="950" type="qcurve" smooth="yes"/>
      <point x="499" y="921"/>
      <point x="456" y="878"/>
      <point x="427" y="878" type="qcurve" smooth="yes"/>
      <point x="396" y="878"/>
      <point x="354" y="921"/>
      <point x="354" y="950" type="qcurve" smooth="yes"/>
      <point x="354" y="981"/>
      <point x="396" y="1024"/>
      <point x="427" y="1024" type="qcurve" smooth="yes"/>
      <point x="456" y="1024"/>
      <point x="499" y="981"/>
    </contour>
    <contour>
      <point x="286" y="950" type="qcurve" smooth="yes"/>
      <point x="286" y="921"/>
      <point x="243" y="878"/>
      <point x="212" y="878" type="qcurve" smooth="yes"/>
      <point x="183" y="878"/>
      <point x="141" y="921"/>
      <point x="141" y="950" type="qcurve" smooth="yes"/>
      <point x="141" y="981"/>
      <point x="183" y="1024"/>
      <point x="212" y="1024" type="qcurve" smooth="yes"/>
      <point x="243" y="1024"/>
      <point x="286" y="981"/>
    </contour>
  </outline>
</glyph>
<glyph name="ordfeminine" format="2">
  <advance width="724"/>
  <unicode hex="00AA"/>
  <outline>
    <contour>
      <point x="857" y="1020" type="line"/>
      <point x="823" y="985"/>
      <point x="746" y="939"/>
      <point x="703" y="939" type="qcurve" smooth="yes"/>
      <point x="658" y="939"/>
      <point x="618" y="991"/>
      <point x="618" y="1033" type="qcurve" smooth="yes"/>
      <point x="618" y="1035"/>
      <point x="618" y="1046"/>
      <point x="619" y="1052" type="qcurve"/>
      <point x="583" y="1008"/>
      <point x="519" y="952"/>
      <point x="459" y="919"/>
      <point x="403" y="907"/>
      <point x="377" y="907" type="qcurve" smooth="yes"/>
      <point x="349" y="907"/>
      <point x="300" y="925"/>
      <point x="263" y="960"/>
      <point x="242" y="1011"/>
      <point x="242" y="1044" type="qcurve" smooth="yes"/>
      <point x="242" y="1087"/>
      <point x="276" y="1180"/>
      <point x="335" y="1268"/>
      <point x="413" y="1347"/>
      <point x="502" y="1406"/>
      <point x="595" y="1441"/>
      <point x="639" y="1441" type="qcurve" smooth="yes"/>
      <point x="701" y="1441"/>
      <point x="770" y="1394"/>
      <point x="781" y="1355" type="qcurve"/>
      <point x="795" y="1372"/>
      <point x="827" y="1407"/>
      <point x="843" y="1424" type="qcurve"/>
      <point x="868" y="1414" type="line"/>
      <point x="863" y="1403"/>
      <point x="847" y="1371"/>
      <point x="837" y="1354" type="qcurve" smooth="yes"/>
      <point x="817" y="1316"/>
      <point x="767" y="1221"/>
      <point x="723" y="1127"/>
      <point x="693" y="1043"/>
      <point x="693" y="1016" type="qcurve" smooth="yes"/>
      <point x="693" y="995"/>
      <point x="710" y="982"/>
      <point x="724" y="982" type="qcurve" smooth="yes"/>
      <point x="750" y="982"/>
      <point x="805" y="1018"/>
      <point x="831" y="1046" type="qcurve"/>
    </contour>
    <contour>
      <point x="642" y="1141" type="qcurve" smooth="yes"/>
      <point x="651" y="1156"/>
      <point x="680" y="1202"/>
      <point x="710" y="1251"/>
      <point x="739" y="1298"/>
      <point x="750" y="1314" type="qcurve"/>
      <point x="750" y="1323"/>
      <point x="744" y="1351"/>
      <point x="727" y="1378"/>
      <point x="694" y="1397"/>
      <point x="666" y="1397" type="qcurve" smooth="yes"/>
      <point x="628" y="1397"/>
      <point x="549" y="1364"/>
      <point x="473" y="1308"/>
      <point x="406" y="1234"/>
      <point x="356" y="1153"/>
      <point x="326" y="1069"/>
      <point x="326" y="1032" type="qcurve" smooth="yes"/>
      <point x="326" y="993"/>
      <point x="362" y="950"/>
      <point x="396" y="950" type="qcurve" smooth="yes"/>
      <point x="435" y="950"/>
      <point x="503" y="985"/>
      <point x="563" y="1040"/>
      <point x="617" y="1108"/>
    </contour>
  </outline>
</glyph>
<glyph name="guillemotleft" format="2">
  <advance width="990"/>
  <unicode hex="00AB"/>
  <outline>
    <contour>
      <point x="135" y="372" type="line"/>
      <point x="568" y="654" type="line"/>
      <point x="560" y="576" type="line"/>
      <point x="213" y="372" type="line"/>
      <point x="360" y="166" type="line"/>
      <point x="293" y="89" type="line"/>
    </contour>
    <contour>
      <point x="425" y="372" type="line"/>
      <point x="858" y="654" type="line"/>
      <point x="850" y="576" type="line"/>
      <point x="503" y="372" type="line"/>
      <point x="650" y="166" type="line"/>
      <point x="583" y="89" type="line"/>
    </contour>
  </outline>
</glyph>
<glyph name="logicalnot" format="2">
  <advance width="800"/>
  <unicode hex="00AC"/>
  <outline>
    <contour>
      <point x="644" y="517" type="line"/>
      <point x="581" y="517" type="line"/>
      <point x="685" y="733" type="line"/>
      <point x="163" y="733" type="line"/>
      <point x="190" y="788" type="line"/>
      <point x="775" y="788" type="line"/>
    </contour>
  </outline>
</glyph>
<glyph name="registered" format="2">
  <advance width="1024"/>
  <unicode hex="00AE"/>
  <outline>
    <contour>
      <point x="633" y="1324" type="qcurve" smooth="yes"/>
      <point x="716" y="1324"/>
      <point x="856" y="1266"/>
      <point x="958" y="1165"/>
      <point x="1015" y="1027"/>
      <point x="1015" y="947" type="qcurve" smooth="yes"/>
      <point x="1015" y="844"/>
      <point x="929" y="662"/>
      <point x="787" y="527"/>
      <point x="605" y="448"/>
      <point x="508" y="448" type="qcurve" smooth="yes"/>
      <point x="425" y="448"/>
      <point x="286" y="506"/>
      <point x="186" y="606"/>
      <point x="130" y="743"/>
      <point x="130" y="823" type="qcurve" smooth="yes"/>
      <point x="130" y="926"/>
      <point x="214" y="1108"/>
      <point x="354" y="1245"/>
      <point x="535" y="1324"/>
    </contour>
    <contour>
      <point x="626" y="1263" type="qcurve" smooth="yes"/>
      <point x="540" y="1263"/>
      <point x="385" y="1189"/>
      <point x="266" y="1068"/>
      <point x="196" y="911"/>
      <point x="196" y="828" type="qcurve" smooth="yes"/>
      <point x="196" y="760"/>
      <point x="240" y="644"/>
      <point x="322" y="558"/>
      <point x="440" y="509"/>
      <point x="515" y="509" type="qcurve" smooth="yes"/>
      <point x="599" y="509"/>
      <point x="755" y="581"/>
      <point x="875" y="701"/>
      <point x="948" y="856"/>
      <point x="948" y="939" type="qcurve" smooth="yes"/>
      <point x="948" y="1008"/>
      <point x="904" y="1126"/>
      <point x="820" y="1213"/>
      <point x="701" y="1263"/>
    </contour>
    <contour>
      <point x="780" y="679" type="line"/>
      <point x="765" y="667"/>
      <point x="732" y="655"/>
      <point x="707" y="655" type="qcurve" smooth="yes"/>
      <point x="699" y="655"/>
      <point x="679" y="660"/>
      <point x="662" y="673"/>
      <point x="651" y="693"/>
      <point x="651" y="708" type="qcurve" smooth="yes"/>
      <point x="651" y="721"/>
      <point x="659" y="751"/>
      <point x="669" y="781"/>
      <point x="677" y="812"/>
      <point x="677" y="828" type="qcurve" smooth="yes"/>
      <point x="677" y="842"/>
      <point x="672" y="867"/>
      <point x="668" y="876" type="qcurve"/>
      <point x="651" y="876"/>
      <point x="619" y="883"/>
      <point x="619" y="901" type="qcurve" smooth="yes"/>
      <point x="619" y="909"/>
      <point x="633" y="922"/>
      <point x="644" y="922" type="qcurve" smooth="yes"/>
      <point x="655" y="922"/>
      <point x="673" y="914"/>
      <point x="687" y="905" type="qcurve"/>
      <point x="716" y="918"/>
      <point x="754" y="972"/>
      <point x="754" y="1010" type="qcurve" smooth="yes"/>
      <point x="754" y="1037"/>
      <point x="739" y="1077"/>
      <point x="713" y="1103"/>
      <point x="681" y="1117"/>
      <point x="665" y="1119" type="qcurve"/>
      <point x="648" y="1082"/>
      <point x="619" y="984"/>
      <point x="589" y="881"/>
      <point x="553" y="782"/>
      <point x="507" y="703"/>
      <point x="445" y="655"/>
      <point x="403" y="655" type="qcurve" smooth="yes"/>
      <point x="381" y="655"/>
      <point x="341" y="673"/>
      <point x="310" y="709"/>
      <point x="292" y="762"/>
      <point x="292" y="798" type="qcurve" smooth="yes"/>
      <point x="292" y="826"/>
      <point x="307" y="900"/>
      <point x="340" y="977"/>
      <point x="394" y="1052"/>
      <point x="471" y="1111"/>
      <point x="573" y="1147"/>
      <point x="638" y="1147" type="qcurve"/>
      <point x="652" y="1161"/>
      <point x="683" y="1189"/>
      <point x="701" y="1203" type="qcurve"/>
      <point x="714" y="1186" type="line"/>
      <point x="703" y="1179"/>
      <point x="685" y="1157"/>
      <point x="677" y="1143" type="qcurve"/>
      <point x="703" y="1138"/>
      <point x="756" y="1117"/>
      <point x="798" y="1084"/>
      <point x="825" y="1036"/>
      <point x="825" y="1004" type="qcurve" smooth="yes"/>
      <point x="825" y="979"/>
      <point x="806" y="940"/>
      <point x="773" y="910"/>
      <point x="731" y="891"/>
      <point x="708" y="886" type="qcurve"/>
      <point x="723" y="872"/>
      <point x="748" y="836"/>
      <point x="748" y="813" type="qcurve" smooth="yes"/>
      <point x="748" y="801"/>
      <point x="740" y="766"/>
      <point x="730" y="733"/>
      <point x="722" y="705"/>
      <point x="722" y="700" type="qcurve" smooth="yes"/>
      <point x="722" y="680"/>
      <point x="738" y="680" type="qcurve" smooth="yes"/>
      <point x="746" y="680"/>
      <point x="760" y="690"/>
      <point x="769" y="699" type="qcurve"/>
    </contour>
    <contour>
      <point x="398" y="687" type="qcurve" smooth="yes"/>
      <point x="425" y="687"/>
      <point x="459" y="725"/>
      <point x="483" y="791"/>
      <point x="504" y="877"/>
      <point x="534" y="973"/>
      <point x="579" y="1073"/>
      <point x="615" y="1119" type="qcurve"/>
      <point x="538" y="1112"/>
      <point x="430" y="1039"/>
      <point x="362" y="938"/>
      <point x="331" y="826"/>
      <point x="331" y="781" type="qcurve" smooth="yes"/>
      <point x="331" y="735"/>
      <point x="371" y="687"/>
    </contour>
  </outline>
</glyph>
<glyph name="plusminus" format="2">
  <advance width="800"/>
  <unicode hex="00B1"/>
  <outline>
    <contour>
      <point x="463" y="655" type="line"/>
      <point x="332" y="386" type="line"/>
      <point x="269" y="386" type="line"/>
      <point x="400" y="655" type="line"/>
      <point x="130" y="655" type="line"/>
      <point x="157" y="710" type="line"/>
      <point x="427" y="710" type="line"/>
      <point x="557" y="977" type="line"/>
      <point x="620" y="977" type="line"/>
      <point x="490" y="710" type="line"/>
      <point x="759" y="710" type="line"/>
      <point x="732" y="655" type="line"/>
    </contour>
    <contour>
      <point x="-19" y="202" type="line"/>
      <point x="8" y="257" type="line"/>
      <point x="600" y="257" type="line"/>
      <point x="573" y="202" type="line"/>
    </contour>
  </outline>
</glyph>
<glyph name="twosuperior" format="2">
  <advance width="881"/>
  <unicode hex="00B2"/>
  <outline>
    <contour>
      <point x="676" y="969" type="line"/>
      <point x="658" y="961"/>
      <point x="611" y="947"/>
      <point x="560" y="936"/>
      <point x="508" y="930"/>
      <point x="485" y="930" type="qcurve" smooth="yes"/>
      <point x="439" y="930"/>
      <point x="357" y="947"/>
      <point x="295" y="985"/>
      <point x="259" y="1046"/>
      <point x="259" y="1089" type="qcurve" smooth="yes"/>
      <point x="259" y="1137"/>
      <point x="302" y="1228"/>
      <point x="377" y="1308"/>
      <point x="477" y="1375"/>
      <point x="591" y="1423"/>
      <point x="713" y="1450"/>
      <point x="772" y="1450" type="qcurve" smooth="yes"/>
      <point x="832" y="1450"/>
      <point x="937" y="1426"/>
      <point x="1016" y="1372"/>
      <point x="1061" y="1285"/>
      <point x="1061" y="1223" type="qcurve" smooth="yes"/>
      <point x="1061" y="1145"/>
      <point x="973" y="983"/>
      <point x="830" y="833"/>
      <point x="649" y="703"/>
      <point x="557" y="657" type="qcurve"/>
      <point x="605" y="637"/>
      <point x="698" y="609"/>
      <point x="744" y="609" type="qcurve" smooth="yes"/>
      <point x="761" y="609"/>
      <point x="798" y="613"/>
      <point x="820" y="620" type="qcurve"/>
      <point x="833" y="579" type="line"/>
      <point x="782" y="567"/>
      <point x="743" y="567" type="qcurve" smooth="yes"/>
      <point x="676" y="567"/>
      <point x="558" y="607"/>
      <point x="502" y="631" type="qcurve"/>
      <point x="439" y="605"/>
      <point x="323" y="575"/>
      <point x="275" y="575" type="qcurve" smooth="yes"/>
      <point x="227" y="575"/>
      <point x="158" y="611"/>
      <point x="158" y="651" type="qcurve" smooth="yes"/>
      <point x="158" y="663"/>
      <point x="171" y="692"/>
      <point x="202" y="717"/>
      <point x="254" y="734"/>
      <point x="292" y="734" type="qcurve" smooth="yes"/>
      <point x="346" y="734"/>
      <point x="440" y="704"/>
      <point x="489" y="684" type="qcurve"/>
      <point x="546" y="713"/>
      <point x="663" y="790"/>
      <point x="773" y="880"/>
      <point x="868" y="980"/>
      <point x="940" y="1085"/>
      <point x="981" y="1190"/>
      <point x="981" y="1241" type="qcurve" smooth="yes"/>
      <point x="981" y="1289"/>
      <point x="947" y="1353"/>
      <point x="889" y="1392"/>
      <point x="811" y="1408"/>
      <point x="766" y="1408" type="qcurve" smooth="yes"/>
      <point x="689" y="1408"/>
      <point x="538" y="1350"/>
      <point x="419" y="1258"/>
      <point x="345" y="1146"/>
      <point x="345" y="1092" type="qcurve" smooth="yes"/>
      <point x="345" y="1059"/>
      <point x="370" y="1014"/>
      <point x="412" y="985"/>
      <point x="465" y="973"/>
      <point x="493" y="973" type="qcurve" smooth="yes"/>
      <point x="556" y="973"/>
      <point x="634" y="993"/>
      <point x="663" y="1003" type="qcurve"/>
    </contour>
    <contour>
      <point x="272" y="616" type="qcurve" smooth="yes"/>
      <point x="306" y="616"/>
      <point x="386" y="639"/>
      <point x="434" y="659" type="qcurve"/>
      <point x="396" y="673"/>
      <point x="329" y="693"/>
      <point x="294" y="693" type="qcurve" smooth="yes"/>
      <point x="244" y="693"/>
      <point x="205" y="664"/>
      <point x="205" y="651" type="qcurve" smooth="yes"/>
      <point x="205" y="637"/>
      <point x="237" y="616"/>
    </contour>
  </outline>
</glyph>
<glyph name="threesuperior" format="2">
  <advance width="751"/>
  <unicode hex="00B3"/>
  <outline>
    <contour>
      <point x="976" y="1391" type="line"/>
      <point x="942" y="1356"/>
      <point x="899" y="1308" type="qcurve" smooth="yes"/>
      <point x="848" y="1252"/>
      <point x="729" y="1128"/>
      <point x="667" y="1077" type="qcurve"/>
      <point x="700" y="1063"/>
      <point x="758" y="1021"/>
      <point x="800" y="964"/>
      <point x="825" y="894"/>
      <point x="825" y="852" type="qcurve" smooth="yes"/>
      <point x="825" y="768"/>
      <point x="750" y="627"/>
      <point x="626" y="526"/>
      <point x="464" y="470"/>
      <point x="376" y="470" type="qcurve" smooth="yes"/>
      <point x="318" y="470"/>
      <point x="215" y="498"/>
      <point x="139" y="554"/>
      <point x="94" y="634"/>
      <point x="94" y="687" type="qcurve" smooth="yes"/>
      <point x="94" y="732"/>
      <point x="140" y="818"/>
      <point x="178" y="853" type="qcurve"/>
      <point x="209" y="823" type="line"/>
      <point x="178" y="794"/>
      <point x="141" y="724"/>
      <point x="141" y="687" type="qcurve" smooth="yes"/>
      <point x="141" y="648"/>
      <point x="172" y="589"/>
      <point x="227" y="550"/>
      <point x="303" y="531"/>
      <point x="348" y="531" type="qcurve" smooth="yes"/>
      <point x="427" y="531"/>
      <point x="573" y="585"/>
      <point x="684" y="680"/>
      <point x="750" y="807"/>
      <point x="750" y="881" type="qcurve" smooth="yes"/>
      <point x="750" y="944"/>
      <point x="683" y="1026"/>
      <point x="629" y="1047" type="qcurve"/>
      <point x="584" y="1013"/>
      <point x="496" y="972"/>
      <point x="457" y="972" type="qcurve" smooth="yes"/>
      <point x="425" y="972"/>
      <point x="397" y="1007"/>
      <point x="397" y="1022" type="qcurve" smooth="yes"/>
      <point x="397" y="1036"/>
      <point x="413" y="1065"/>
      <point x="448" y="1088"/>
      <point x="502" y="1102"/>
      <point x="540" y="1102" type="qcurve" smooth="yes"/>
      <point x="578" y="1102"/>
      <point x="616" y="1093" type="qcurve"/>
      <point x="646" y="1117"/>
      <point x="707" y="1173"/>
      <point x="768" y="1233"/>
      <point x="828" y="1294"/>
      <point x="855" y="1323" type="qcurve" smooth="yes"/>
      <point x="865" y="1334"/>
      <point x="877" y="1347"/>
      <point x="888" y="1358" type="qcurve"/>
      <point x="840" y="1347"/>
      <point x="738" y="1336"/>
      <point x="690" y="1336" type="qcurve" smooth="yes"/>
      <point x="629" y="1336"/>
      <point x="517" y="1347"/>
      <point x="430" y="1360"/>
      <point x="375" y="1371"/>
      <point x="372" y="1372" type="qcurve" smooth="yes"/>
      <point x="382" y="1415" type="line"/>
      <point x="387" y="1415" type="line" smooth="yes"/>
      <point x="389" y="1415"/>
      <point x="392" y="1414"/>
      <point x="394" y="1414" type="qcurve"/>
      <point x="393" y="1414" type="line"/>
      <point x="403" y="1412"/>
      <point x="458" y="1401"/>
      <point x="538" y="1389"/>
      <point x="637" y="1380"/>
      <point x="690" y="1380" type="qcurve" smooth="yes"/>
      <point x="756" y="1380"/>
      <point x="893" y="1400"/>
      <point x="956" y="1426" type="qcurve"/>
      <point x="977" y="1399" type="line"/>
    </contour>
    <contour>
      <point x="462" y="1013" type="qcurve" smooth="yes"/>
      <point x="485" y="1013"/>
      <point x="542" y="1038"/>
      <point x="574" y="1061" type="qcurve"/>
      <point x="566" y="1062"/>
      <point x="549" y="1063"/>
      <point x="541" y="1063" type="qcurve" smooth="yes"/>
      <point x="496" y="1063"/>
      <point x="441" y="1040"/>
      <point x="441" y="1025" type="qcurve" smooth="yes"/>
      <point x="441" y="1021"/>
      <point x="451" y="1013"/>
    </contour>
  </outline>
</glyph>
<glyph name="acute" format="2">
  <advance width="500"/>
  <unicode hex="00B4"/>
  <outline>
    <contour>
      <point x="272" y="856" type="line"/>
      <point x="203" y="856" type="line"/>
      <point x="381" y="1050" type="line"/>
      <point x="506" y="1050" type="line"/>
    </contour>
  </outline>
</glyph>
<glyph name="paragraph" format="2">
  <advance width="1024"/>
  <unicode hex="00B6"/>
  <outline>
    <contour>
      <point x="144" y="-286" type="line"/>
      <point x="582" y="678" type="line"/>
      <point x="535" y="630"/>
      <point x="455" y="570"/>
      <point x="383" y="537"/>
      <point x="316" y="526"/>
      <point x="283" y="526" type="qcurve" smooth="yes"/>
      <point x="245" y="526"/>
      <point x="178" y="551"/>
      <point x="127" y="599"/>
      <point x="98" y="669"/>
      <point x="98" y="715" type="qcurve" smooth="yes"/>
      <point x="98" y="796"/>
      <point x="152" y="940"/>
      <point x="246" y="1062"/>
      <point x="373" y="1160"/>
      <point x="517" y="1228"/>
      <point x="672" y="1264"/>
      <point x="748" y="1264" type="qcurve" smooth="yes"/>
      <point x="1140" y="1264" type="line"/>
      <point x="1112" y="1208" type="line"/>
      <point x="1036" y="1208" type="line"/>
      <point x="356" y="-286" type="line"/>
      <point x="284" y="-286" type="line"/>
      <point x="964" y="1208" type="line"/>
      <point x="896" y="1208" type="line"/>
      <point x="216" y="-286" type="line"/>
    </contour>
    <contour>
      <point x="824" y="1208" type="line"/>
      <point x="786" y="1208" type="line" smooth="yes"/>
      <point x="718" y="1208"/>
      <point x="580" y="1166"/>
      <point x="452" y="1092"/>
      <point x="340" y="993"/>
      <point x="257" y="880"/>
      <point x="209" y="758"/>
      <point x="209" y="698" type="qcurve" smooth="yes"/>
      <point x="209" y="641"/>
      <point x="261" y="579"/>
      <point x="309" y="579" type="qcurve" smooth="yes"/>
      <point x="346" y="579"/>
      <point x="422" y="611"/>
      <point x="495" y="661"/>
      <point x="561" y="722"/>
      <point x="613" y="782"/>
      <point x="649" y="832"/>
      <point x="656" y="847" type="qcurve" smooth="yes"/>
    </contour>
  </outline>
</glyph>
<glyph name="cedilla" format="2">
  <advance width="500"/>
  <unicode hex="00B8"/>
  <outline>
    <contour>
      <point x="99" y="-76" type="line"/>
      <point x="111" y="-73"/>
      <point x="131" y="-72"/>
      <point x="141" y="-72" type="qcurve" smooth="yes"/>
      <point x="160" y="-72"/>
      <point x="200" y="-83"/>
      <point x="233" y="-107"/>
      <point x="254" y="-144"/>
      <point x="254" y="-169" type="qcurve" smooth="yes"/>
      <point x="254" y="-194"/>
      <point x="227" y="-240"/>
      <point x="176" y="-276"/>
      <point x="105" y="-297"/>
      <point x="60" y="-297" type="qcurve" smooth="yes"/>
      <point x="4" y="-297"/>
      <point x="-72" y="-267"/>
      <point x="-90" y="-256" type="qcurve"/>
      <point x="-70" y="-218" type="line"/>
      <point x="-48" y="-228"/>
      <point x="7" y="-251"/>
      <point x="55" y="-251" type="qcurve" smooth="yes"/>
      <point x="76" y="-251"/>
      <point x="116" y="-242"/>
      <point x="148" y="-224"/>
      <point x="168" y="-196"/>
      <point x="168" y="-177" type="qcurve" smooth="yes"/>
      <point x="168" y="-161"/>
      <point x="155" y="-139"/>
      <point x="137" y="-125"/>
      <point x="115" y="-120"/>
      <point x="106" y="-120" type="qcurve" smooth="yes"/>
      <point x="92" y="-120"/>
      <point x="70" y="-125"/>
      <point x="61" y="-128" type="qcurve" smooth="yes"/>
      <point x="50" y="-132"/>
      <point x="42" y="-135" type="qcurve"/>
      <point x="23" y="-109" type="line"/>
      <point x="107" y="10" type="line"/>
      <point x="158" y="10" type="line"/>
    </contour>
  </outline>
</glyph>
<glyph name="ordmasculine" format="2">
  <advance width="598"/>
  <unicode hex="00BA"/>
  <outline>
    <contour>
      <point x="792" y="1095" type="line"/>
      <point x="770" y="1080"/>
      <point x="725" y="1068"/>
      <point x="700" y="1068" type="qcurve" smooth="yes"/>
      <point x="693" y="1068"/>
      <point x="681" y="1068"/>
      <point x="675" y="1070" type="qcurve"/>
      <point x="644" y="1020"/>
      <point x="572" y="948"/>
      <point x="498" y="902"/>
      <point x="427" y="880"/>
      <point x="396" y="880" type="qcurve" smooth="yes"/>
      <point x="364" y="880"/>
      <point x="309" y="903"/>
      <point x="270" y="944"/>
      <point x="248" y="1003"/>
      <point x="248" y="1039" type="qcurve" smooth="yes"/>
      <point x="248" y="1094"/>
      <point x="298" y="1208"/>
      <point x="378" y="1311"/>
      <point x="478" y="1394"/>
      <point x="528" y="1417" type="qcurve"/>
      <point x="554" y="1383" type="line"/>
      <point x="515" y="1356"/>
      <point x="436" y="1272"/>
      <point x="372" y="1173"/>
      <point x="331" y="1066"/>
      <point x="331" y="1016" type="qcurve" smooth="yes"/>
      <point x="331" y="971"/>
      <point x="371" y="923"/>
      <point x="410" y="923" type="qcurve" smooth="yes"/>
      <point x="441" y="923"/>
      <point x="504" y="951"/>
      <point x="563" y="996"/>
      <point x="617" y="1055"/>
      <point x="638" y="1086" type="qcurve"/>
      <point x="600" y="1115"/>
      <point x="555" y="1221"/>
      <point x="555" y="1285" type="qcurve" smooth="yes"/>
      <point x="555" y="1317"/>
      <point x="571" y="1374"/>
      <point x="599" y="1416"/>
      <point x="637" y="1441"/>
      <point x="660" y="1441" type="qcurve" smooth="yes"/>
      <point x="681" y="1441"/>
      <point x="713" y="1420"/>
      <point x="735" y="1382"/>
      <point x="747" y="1332"/>
      <point x="747" y="1303" type="qcurve" smooth="yes"/>
      <point x="747" y="1284"/>
      <point x="739" y="1232"/>
      <point x="726" y="1178"/>
      <point x="707" y="1126"/>
      <point x="695" y="1107" type="qcurve"/>
      <point x="724" y="1107"/>
      <point x="761" y="1117"/>
      <point x="777" y="1128" type="qcurve"/>
    </contour>
    <contour>
      <point x="596" y="1285" type="qcurve" smooth="yes"/>
      <point x="596" y="1264"/>
      <point x="604" y="1216"/>
      <point x="619" y="1171"/>
      <point x="642" y="1133"/>
      <point x="658" y="1121" type="qcurve"/>
      <point x="683" y="1172"/>
      <point x="706" y="1272"/>
      <point x="706" y="1303" type="qcurve" smooth="yes"/>
      <point x="706" y="1345"/>
      <point x="680" y="1400"/>
      <point x="659" y="1400" type="qcurve" smooth="yes"/>
      <point x="645" y="1400"/>
      <point x="621" y="1381"/>
      <point x="605" y="1349"/>
      <point x="596" y="1307"/>
    </contour>
  </outline>
</glyph>
<glyph name="guillemotright" format="2">
  <advance width="990"/>
  <unicode hex="00BB"/>
  <outline>
    <contour>
      <point x="490" y="371" type="line"/>
      <point x="57" y="89" type="line"/>
      <point x="65" y="167" type="line"/>
      <point x="412" y="371" type="line"/>
      <point x="265" y="577" type="line"/>
      <point x="332" y="654" type="line"/>
    </contour>
    <contour>
      <point x="780" y="371" type="line"/>
      <point x="347" y="89" type="line"/>
      <point x="355" y="167" type="line"/>
      <point x="702" y="371" type="line"/>
      <point x="555" y="577" type="line"/>
      <point x="622" y="654" type="line"/>
    </contour>
  </outline>
</glyph>
<glyph name="threequarters" format="2">
  <advance width="1884"/>
  <unicode hex="00BE"/>
  <outline>
    <contour>
      <point x="1005" y="1392" type="line"/>
      <point x="934" y="1317"/>
      <point x="793" y="1165"/>
      <point x="709" y="1095" type="qcurve"/>
      <point x="740" y="1081"/>
      <point x="796" y="1040"/>
      <point x="836" y="984"/>
      <point x="860" y="916"/>
      <point x="860" y="876" type="qcurve" smooth="yes"/>
      <point x="860" y="795"/>
      <point x="789" y="661"/>
      <point x="669" y="564"/>
      <point x="514" y="510"/>
      <point x="430" y="510" type="qcurve" smooth="yes"/>
      <point x="374" y="510"/>
      <point x="276" y="537"/>
      <point x="203" y="590"/>
      <point x="160" y="668"/>
      <point x="160" y="718" type="qcurve" smooth="yes"/>
      <point x="160" y="761"/>
      <point x="205" y="843"/>
      <point x="241" y="877" type="qcurve"/>
      <point x="273" y="844" type="line"/>
      <point x="244" y="817"/>
      <point x="209" y="753"/>
      <point x="209" y="718" type="qcurve" smooth="yes"/>
      <point x="209" y="643"/>
      <point x="316" y="570"/>
      <point x="403" y="570" type="qcurve" smooth="yes"/>
      <point x="487" y="570"/>
      <point x="627" y="621"/>
      <point x="727" y="711"/>
      <point x="782" y="833"/>
      <point x="782" y="904" type="qcurve" smooth="yes"/>
      <point x="782" y="964"/>
      <point x="725" y="1040"/>
      <point x="673" y="1060" type="qcurve"/>
      <point x="630" y="1022"/>
      <point x="546" y="988"/>
      <point x="508" y="988" type="qcurve" smooth="yes"/>
      <point x="490" y="988"/>
      <point x="467" y="999"/>
      <point x="453" y="1014"/>
      <point x="447" y="1032"/>
      <point x="447" y="1039" type="qcurve" smooth="yes"/>
      <point x="447" y="1052"/>
      <point x="464" y="1081"/>
      <point x="498" y="1104"/>
      <point x="551" y="1119"/>
      <point x="587" y="1119" type="qcurve" smooth="yes"/>
      <point x="622" y="1119"/>
      <point x="658" y="1110" type="qcurve"/>
      <point x="728" y="1165"/>
      <point x="851" y="1287"/>
      <point x="915" y="1358" type="qcurve"/>
      <point x="869" y="1347"/>
      <point x="777" y="1336"/>
      <point x="731" y="1336" type="qcurve" smooth="yes"/>
      <point x="672" y="1336"/>
      <point x="565" y="1346"/>
      <point x="482" y="1358"/>
      <point x="429" y="1369"/>
      <point x="426" y="1370" type="qcurve" smooth="yes"/>
      <point x="436" y="1415" type="line"/>
      <point x="449" y="1413"/>
      <point x="504" y="1403"/>
      <point x="581" y="1391"/>
      <point x="677" y="1382"/>
      <point x="731" y="1382" type="qcurve" smooth="yes"/>
      <point x="794" y="1382"/>
      <point x="926" y="1400"/>
      <point x="986" y="1426" type="qcurve"/>
    </contour>
    <contour>
      <point x="1496" y="832" type="line" smooth="yes"/>
      <point x="1496" y="829"/>
      <point x="1469" y="778"/>
      <point x="1420" y="696"/>
      <point x="1352" y="590"/>
      <point x="1271" y="474"/>
      <point x="1179" y="354"/>
      <point x="1130" y="299" type="qcurve"/>
      <point x="1187" y="316"/>
      <point x="1292" y="330"/>
      <point x="1342" y="330" type="qcurve" smooth="yes"/>
      <point x="1387" y="330"/>
      <point x="1470" y="320"/>
      <point x="1509" y="315" type="qcurve" smooth="yes"/>
      <point x="1523" y="313"/>
      <point x="1549" y="310"/>
      <point x="1562" y="308" type="qcurve"/>
      <point x="1746" y="732" type="line"/>
      <point x="1800" y="718" type="line"/>
      <point x="1647" y="303" type="line"/>
      <point x="1678" y="304"/>
      <point x="1731" y="316"/>
      <point x="1771" y="330"/>
      <point x="1797" y="342"/>
      <point x="1802" y="345" type="qcurve"/>
      <point x="1824" y="311" type="line" smooth="yes"/>
      <point x="1823" y="310"/>
      <point x="1794" y="294"/>
      <point x="1744" y="276"/>
      <point x="1674" y="262"/>
      <point x="1631" y="262" type="qcurve"/>
      <point x="1513" y="-58" type="line"/>
      <point x="1412" y="-38" type="line"/>
      <point x="1544" y="267" type="line"/>
      <point x="1531" y="269"/>
      <point x="1506" y="272"/>
      <point x="1493" y="274" type="qcurve" smooth="yes"/>
      <point x="1457" y="279"/>
      <point x="1383" y="288"/>
      <point x="1342" y="288" type="qcurve" smooth="yes"/>
      <point x="1278" y="288"/>
      <point x="1137" y="262"/>
      <point x="1056" y="225" type="qcurve"/>
      <point x="1033" y="256" type="line"/>
      <point x="1071" y="305"/>
      <point x="1127" y="389" type="qcurve" smooth="yes"/>
      <point x="1175" y="461"/>
      <point x="1319" y="695"/>
      <point x="1417" y="870" type="qcurve"/>
    </contour>
    <contour>
      <point x="449" y="-20" type="line"/>
      <point x="1563" y="1444" type="line"/>
      <point x="1647" y="1444" type="line"/>
      <point x="533" y="-20" type="line"/>
    </contour>
    <contour>
      <point x="513" y="1030" type="qcurve" smooth="yes"/>
      <point x="534" y="1030"/>
      <point x="585" y="1055"/>
      <point x="616" y="1076" type="qcurve"/>
      <point x="608" y="1077"/>
      <point x="596" y="1078"/>
      <point x="588" y="1078" type="qcurve" smooth="yes"/>
      <point x="545" y="1078"/>
      <point x="492" y="1056"/>
      <point x="492" y="1042" type="qcurve" smooth="yes"/>
      <point x="492" y="1038"/>
      <point x="502" y="1030"/>
    </contour>
  </outline>
</glyph>
<glyph name="questiondown" format="2">
  <advance width="1136"/>
  <unicode hex="00BF"/>
  <outline>
    <contour>
      <point x="730" y="764" type="line"/>
      <point x="742" y="735"/>
      <point x="754" y="677"/>
      <point x="754" y="652" type="qcurve" smooth="yes"/>
      <point x="754" y="581"/>
      <point x="692" y="471"/>
      <point x="591" y="381"/>
      <point x="462" y="304"/>
      <point x="328" y="228"/>
      <point x="199" y="147"/>
      <point x="98" y="49"/>
      <point x="36" y="-72"/>
      <point x="36" y="-150" type="qcurve" smooth="yes"/>
      <point x="36" y="-216"/>
      <point x="85" y="-304"/>
      <point x="163" y="-357"/>
      <point x="260" y="-380"/>
      <point x="308" y="-380" type="qcurve" smooth="yes"/>
      <point x="396" y="-380"/>
      <point x="551" y="-327"/>
      <point x="667" y="-238"/>
      <point x="734" y="-124"/>
      <point x="734" y="-63" type="qcurve" smooth="yes"/>
      <point x="734" y="-28"/>
      <point x="710" y="24"/>
      <point x="671" y="58"/>
      <point x="621" y="74"/>
      <point x="594" y="74" type="qcurve" smooth="yes"/>
      <point x="548" y="74"/>
      <point x="472" y="58"/>
      <point x="446" y="47" type="qcurve"/>
      <point x="437" y="88" type="line"/>
      <point x="470" y="102"/>
      <point x="565" y="126"/>
      <point x="622" y="126" type="qcurve" smooth="yes"/>
      <point x="667" y="126"/>
      <point x="748" y="106"/>
      <point x="808" y="62"/>
      <point x="844" y="-7"/>
      <point x="844" y="-55" type="qcurve" smooth="yes"/>
      <point x="844" y="-105"/>
      <point x="802" y="-199"/>
      <point x="727" y="-282"/>
      <point x="625" y="-351"/>
      <point x="504" y="-401"/>
      <point x="370" y="-428"/>
      <point x="301" y="-428" type="qcurve" smooth="yes"/>
      <point x="224" y="-428"/>
      <point x="88" y="-389"/>
      <point x="-13" y="-313"/>
      <point x="-71" y="-199"/>
      <point x="-71" y="-125" type="qcurve" smooth="yes"/>
      <point x="-71" y="-42"/>
      <point x="-4" y="89"/>
      <point x="105" y="195"/>
      <point x="244" y="282"/>
      <point x="389" y="360"/>
      <point x="528" y="434"/>
      <point x="637" y="515"/>
      <point x="704" y="609"/>
      <point x="704" y="667" type="qcurve" smooth="yes"/>
      <point x="704" y="684"/>
      <point x="698" y="721"/>
      <point x="690" y="741" type="qcurve"/>
    </contour>
    <contour>
      <point x="713" y="952" type="qcurve" smooth="yes"/>
      <point x="713" y="982"/>
      <point x="756" y="1025"/>
      <point x="787" y="1025" type="qcurve" smooth="yes"/>
      <point x="816" y="1025"/>
      <point x="859" y="982"/>
      <point x="859" y="952" type="qcurve" smooth="yes"/>
      <point x="859" y="923"/>
      <point x="816" y="880"/>
      <point x="787" y="880" type="qcurve" smooth="yes"/>
      <point x="756" y="880"/>
      <point x="713" y="923"/>
    </contour>
  </outline>
</glyph>
<glyph name="AE" format="2">
  <advance width="3237"/>
  <unicode hex="00C6"/>
  <outline>
    <contour>
      <point x="2872" y="933" type="line"/>
      <point x="2875" y="932"/>
      <point x="2880" y="932" type="qcurve" smooth="yes"/>
      <point x="2904" y="932" type="line" smooth="yes"/>
      <point x="2982" y="932"/>
      <point x="3140" y="974"/>
      <point x="3268" y="1049"/>
      <point x="3348" y="1154"/>
      <point x="3348" y="1217" type="qcurve" smooth="yes"/>
      <point x="3348" y="1251"/>
      <point x="3318" y="1304"/>
      <point x="3265" y="1340"/>
      <point x="3190" y="1359"/>
      <point x="3145" y="1359" type="qcurve" smooth="yes"/>
      <point x="3066" y="1359"/>
      <point x="2916" y="1319"/>
      <point x="2784" y="1250"/>
      <point x="2674" y="1157"/>
      <point x="2594" y="1048"/>
      <point x="2550" y="930"/>
      <point x="2550" y="871" type="qcurve" smooth="yes"/>
      <point x="2550" y="812"/>
      <point x="2572" y="759" type="qcurve"/>
      <point x="2641" y="757"/>
      <point x="2761" y="741"/>
      <point x="2849" y="708"/>
      <point x="2899" y="656"/>
      <point x="2899" y="619" type="qcurve" smooth="yes"/>
      <point x="2899" y="579"/>
      <point x="2839" y="537"/>
      <point x="2794" y="537" type="qcurve" smooth="yes"/>
      <point x="2758" y="537"/>
      <point x="2682" y="561"/>
      <point x="2611" y="604"/>
      <point x="2546" y="665"/>
      <point x="2520" y="702" type="qcurve"/>
      <point x="2409" y="693"/>
      <point x="2220" y="608"/>
      <point x="2083" y="473"/>
      <point x="2005" y="298"/>
      <point x="2005" y="201" type="qcurve" smooth="yes"/>
      <point x="2005" y="122"/>
      <point x="2058" y="-5"/>
      <point x="2163" y="-95"/>
      <point x="2320" y="-143"/>
      <point x="2423" y="-143" type="qcurve" smooth="yes"/>
      <point x="2537" y="-143"/>
      <point x="2742" y="-74"/>
      <point x="2916" y="32"/>
      <point x="3058" y="159"/>
      <point x="3163" y="273"/>
      <point x="3227" y="360"/>
      <point x="3237" y="373" type="qcurve"/>
      <point x="3273" y="345" type="line"/>
      <point x="3250" y="312"/>
      <point x="3172" y="205"/>
      <point x="3061" y="85"/>
      <point x="2916" y="-36"/>
      <point x="2737" y="-134"/>
      <point x="2525" y="-195"/>
      <point x="2402" y="-195" type="qcurve" smooth="yes"/>
      <point x="2293" y="-195"/>
      <point x="2122" y="-150"/>
      <point x="1998" y="-70"/>
      <point x="1917" y="37"/>
      <point x="1898" y="100" type="qcurve"/>
      <point x="1868" y="30"/>
      <point x="1835" y="-49"/>
      <point x="1835" y="-51" type="qcurve"/>
      <point x="1716" y="-14" type="line"/>
      <point x="1776" y="123" type="line"/>
      <point x="1709" y="138"/>
      <point x="1561" y="178"/>
      <point x="1408" y="229"/>
      <point x="1256" y="293"/>
      <point x="1186" y="331" type="qcurve"/>
      <point x="1121" y="256"/>
      <point x="969" y="111"/>
      <point x="795" y="-4"/>
      <point x="600" y="-75"/>
      <point x="492" y="-75" type="qcurve" smooth="yes"/>
      <point x="396" y="-75"/>
      <point x="205" y="-18"/>
      <point x="54" y="91"/>
      <point x="-40" y="248"/>
      <point x="-40" y="348" type="qcurve" smooth="yes"/>
      <point x="-40" y="427"/>
      <point x="19" y="547"/>
      <point x="122" y="627"/>
      <point x="261" y="668"/>
      <point x="341" y="668" type="qcurve" smooth="yes"/>
      <point x="402" y="668"/>
      <point x="533" y="644"/>
      <point x="657" y="588"/>
      <point x="767" y="496"/>
      <point x="806" y="428" type="qcurve"/>
      <point x="762" y="400" type="line"/>
      <point x="761" y="402"/>
      <point x="740" y="429"/>
      <point x="699" y="468"/>
      <point x="635" y="512"/>
      <point x="546" y="549"/>
      <point x="429" y="574"/>
      <point x="355" y="574" type="qcurve" smooth="yes"/>
      <point x="280" y="574"/>
      <point x="168" y="523"/>
      <point x="93" y="444"/>
      <point x="56" y="346"/>
      <point x="56" y="300" type="qcurve" smooth="yes"/>
      <point x="56" y="246"/>
      <point x="94" y="157"/>
      <point x="159" y="85"/>
      <point x="246" y="32"/>
      <point x="343" y="-4"/>
      <point x="444" y="-22"/>
      <point x="492" y="-22" type="qcurve" smooth="yes"/>
      <point x="591" y="-22"/>
      <point x="773" y="43"/>
      <point x="935" y="150"/>
      <point x="1078" y="286"/>
      <point x="1139" y="357" type="qcurve"/>
      <point x="1071" y="398"/>
      <point x="956" y="493"/>
      <point x="872" y="602"/>
      <point x="825" y="727"/>
      <point x="825" y="797" type="qcurve" smooth="yes"/>
      <point x="825" y="855"/>
      <point x="868" y="957"/>
      <point x="943" y="1034"/>
      <point x="1046" y="1079"/>
      <point x="1105" y="1079" type="qcurve" smooth="yes"/>
      <point x="1171" y="1079"/>
      <point x="1289" y="1038"/>
      <point x="1395" y="967"/>
      <point x="1488" y="869"/>
      <point x="1529" y="812" type="qcurve"/>
      <point x="1641" y="937"/>
      <point x="1864" y="1158"/>
      <point x="2070" y="1324"/>
      <point x="2253" y="1421"/>
      <point x="2327" y="1421" type="qcurve" smooth="yes"/>
      <point x="2356" y="1421"/>
      <point x="2411" y="1402"/>
      <point x="2454" y="1367"/>
      <point x="2480" y="1316"/>
      <point x="2480" y="1284" type="qcurve" smooth="yes"/>
      <point x="2480" y="1222"/>
      <point x="2400" y="1064"/>
      <point x="2336" y="958" type="qcurve" smooth="yes"/>
      <point x="2294" y="889"/>
      <point x="2217" y="754"/>
      <point x="2182" y="688" type="qcurve"/>
      <point x="2244" y="718"/>
      <point x="2395" y="754"/>
      <point x="2486" y="759" type="qcurve"/>
      <point x="2468" y="795"/>
      <point x="2448" y="874"/>
      <point x="2448" y="916" type="qcurve" smooth="yes"/>
      <point x="2448" y="993"/>
      <point x="2500" y="1130"/>
      <point x="2591" y="1245"/>
      <point x="2714" y="1335"/>
      <point x="2854" y="1398"/>
      <point x="3005" y="1431"/>
      <point x="3079" y="1431" type="qcurve" smooth="yes"/>
      <point x="3155" y="1431"/>
      <point x="3274" y="1400"/>
      <point x="3356" y="1344"/>
      <point x="3400" y="1265"/>
      <point x="3400" y="1218" type="qcurve" smooth="yes"/>
      <point x="3400" y="1166"/>
      <point x="3357" y="1074"/>
      <point x="3284" y="999"/>
      <point x="3187" y="940"/>
      <point x="3078" y="900"/>
      <point x="2962" y="879"/>
      <point x="2908" y="879" type="qcurve" smooth="yes"/>
      <point x="2890" y="879"/>
      <point x="2868" y="881"/>
      <point x="2866" y="881" type="qcurve"/>
    </contour>
    <contour>
      <point x="1560" y="766" type="qcurve"/>
      <point x="1607" y="694"/>
      <point x="1685" y="540"/>
      <point x="1748" y="392"/>
      <point x="1797" y="259"/>
      <point x="1815" y="208" type="qcurve"/>
      <point x="1932" y="463"/>
      <point x="2198" y="953"/>
      <point x="2364" y="1192" type="qcurve" smooth="yes"/>
      <point x="2391" y="1232"/>
      <point x="2414" y="1285"/>
      <point x="2414" y="1304" type="qcurve" smooth="yes"/>
      <point x="2414" y="1336"/>
      <point x="2360" y="1369"/>
      <point x="2325" y="1369" type="qcurve" smooth="yes"/>
      <point x="2214" y="1369"/>
      <point x="1831" y="1066"/>
    </contour>
    <contour>
      <point x="916" y="749" type="qcurve" smooth="yes"/>
      <point x="916" y="696"/>
      <point x="956" y="601"/>
      <point x="1026" y="514"/>
      <point x="1122" y="437"/>
      <point x="1178" y="403" type="qcurve"/>
      <point x="1253" y="494"/>
      <point x="1409" y="678"/>
      <point x="1489" y="768" type="qcurve"/>
      <point x="1454" y="814"/>
      <point x="1379" y="893"/>
      <point x="1297" y="951"/>
      <point x="1209" y="983"/>
      <point x="1162" y="983" type="qcurve" smooth="yes"/>
      <point x="1109" y="983"/>
      <point x="1019" y="947"/>
      <point x="953" y="884"/>
      <point x="916" y="799"/>
    </contour>
    <contour>
      <point x="1771" y="179" type="qcurve"/>
      <point x="1757" y="224"/>
      <point x="1710" y="352"/>
      <point x="1647" y="499"/>
      <point x="1568" y="653"/>
      <point x="1521" y="723" type="qcurve"/>
      <point x="1452" y="645"/>
      <point x="1304" y="473"/>
      <point x="1224" y="376" type="qcurve"/>
      <point x="1294" y="337"/>
      <point x="1447" y="274"/>
      <point x="1592" y="225"/>
      <point x="1723" y="189"/>
    </contour>
    <contour>
      <point x="2846" y="621" type="qcurve" smooth="yes"/>
      <point x="2846" y="645"/>
      <point x="2803" y="676"/>
      <point x="2734" y="694"/>
      <point x="2647" y="703"/>
      <point x="2602" y="704" type="qcurve"/>
      <point x="2621" y="676"/>
      <point x="2668" y="633"/>
      <point x="2718" y="603"/>
      <point x="2769" y="587"/>
      <point x="2792" y="587" type="qcurve" smooth="yes"/>
      <point x="2819" y="587"/>
      <point x="2846" y="607"/>
    </contour>
  </outline>
</glyph>
